<mxfile modified="2022-10-01T10:41:05.035Z" host="app.diagrams.net" agent="5.0 (Macintosh; Intel Mac OS X 10_15_7) AppleWebKit/537.36 (KHTML, like Gecko) Chrome/106.0.0.0 Safari/537.36" etag="DQ89W4Fo00aEBXbm3sAr" version="20.4.0" type="github">
  <diagram id="WI9T0HZ2pTsCkuznbFz-" name="Page-1">
    <mxGraphModel dx="905" dy="1486" grid="1" gridSize="10" guides="1" tooltips="1" connect="1" arrows="1" fold="1" page="1" pageScale="1" pageWidth="1169" pageHeight="827" math="0" shadow="0">
      <root>
        <mxCell id="0" />
        <mxCell id="1" parent="0" />
        <mxCell id="_bzIca81G6JWRWRTaQMl-45" value="&lt;h1&gt;PEERING SETTINGS&lt;/h1&gt;&lt;p&gt;Configure use remote gateway in VN01 and VN03&lt;br&gt;&lt;br&gt;&lt;br&gt;&lt;br&gt;&lt;br&gt;&lt;br&gt;&lt;br&gt;&lt;br&gt;Configure allow gateway transit in VN02 Peering connection only&lt;/p&gt;" style="text;html=1;strokeColor=#d6b656;fillColor=#fff2cc;spacing=5;spacingTop=-20;whiteSpace=wrap;overflow=hidden;rounded=0;" vertex="1" parent="1">
          <mxGeometry x="30" y="140" width="310" height="390" as="geometry" />
        </mxCell>
        <mxCell id="AcxdMaKK0mU5kZiv2lnr-4" value="SPOKE" style="rounded=0;whiteSpace=wrap;html=1;fillColor=#f5f5f5;strokeColor=none;fontColor=#333333;verticalAlign=top;" parent="1" vertex="1">
          <mxGeometry x="375" y="500" width="170" height="60" as="geometry" />
        </mxCell>
        <mxCell id="_bzIca81G6JWRWRTaQMl-5" value="HUB" style="rounded=0;whiteSpace=wrap;html=1;fillColor=#f5f5f5;strokeColor=none;fontColor=#333333;verticalAlign=top;" vertex="1" parent="1">
          <mxGeometry x="490" y="140" width="230" height="151" as="geometry" />
        </mxCell>
        <mxCell id="_bzIca81G6JWRWRTaQMl-3" value="VN02" style="shape=image;verticalLabelPosition=bottom;labelBackgroundColor=#ffffff;verticalAlign=top;aspect=fixed;imageAspect=0;image=data:image/svg+xml,PHN2ZyB4bWxuczpjYz0iaHR0cDovL2NyZWF0aXZlY29tbW9ucy5vcmcvbnMjIiB4bWxuczpkYz0iaHR0cDovL3B1cmwub3JnL2RjL2VsZW1lbnRzLzEuMS8iIHhtbG5zOmlua3NjYXBlPSJodHRwOi8vd3d3Lmlua3NjYXBlLm9yZy9uYW1lc3BhY2VzL2lua3NjYXBlIiB4bWxuczpyZGY9Imh0dHA6Ly93d3cudzMub3JnLzE5OTkvMDIvMjItcmRmLXN5bnRheC1ucyMiIHhtbG5zOnNvZGlwb2RpPSJodHRwOi8vc29kaXBvZGkuc291cmNlZm9yZ2UubmV0L0RURC9zb2RpcG9kaS0wLmR0ZCIgeG1sbnM6c3ZnPSJodHRwOi8vd3d3LnczLm9yZy8yMDAwL3N2ZyIgeG1sbnM9Imh0dHA6Ly93d3cudzMub3JnLzIwMDAvc3ZnIiB4bWxuczp4bGluaz0iaHR0cDovL3d3dy53My5vcmcvMTk5OS94bGluayIgdmVyc2lvbj0iMS4xIiBpZD0ic3ZnOTkyNDkiIGlua3NjYXBlOnZlcnNpb249IjAuOTIuMyAoMjQwNTU0NiwgMjAxOC0wMy0xMSkiIHNvZGlwb2RpOmRvY25hbWU9InN1Ym5ldHMuc3ZnIiB4PSIwcHgiIHk9IjBweCIgdmlld0JveD0iMCAwIDM0Ljg0IDIxLjYxIiBzdHlsZT0iZW5hYmxlLWJhY2tncm91bmQ6bmV3IDAgMCAzNC44NCAyMS42MTsiIHhtbDpzcGFjZT0icHJlc2VydmUiPiYjeGE7PHNvZGlwb2RpOm5hbWVkdmlldyBib3JkZXJjb2xvcj0iIzY2NjY2NiIgYm9yZGVyb3BhY2l0eT0iMSIgZml0LW1hcmdpbi1ib3R0b209IjAiIGZpdC1tYXJnaW4tbGVmdD0iMCIgZml0LW1hcmdpbi1yaWdodD0iMCIgZml0LW1hcmdpbi10b3A9IjAiIGdyaWR0b2xlcmFuY2U9IjEwIiBndWlkZXRvbGVyYW5jZT0iMTAiIGlkPSJuYW1lZHZpZXc5OTI1MSIgaW5rc2NhcGU6Y3VycmVudC1sYXllcj0ic3ZnOTkyNDkiIGlua3NjYXBlOmN4PSI0MC45MTcxNDUiIGlua3NjYXBlOmN5PSIwLjYzNzUyNTg2IiBpbmtzY2FwZTpwYWdlb3BhY2l0eT0iMCIgaW5rc2NhcGU6cGFnZXNoYWRvdz0iMiIgaW5rc2NhcGU6d2luZG93LWhlaWdodD0iMTAxNyIgaW5rc2NhcGU6d2luZG93LW1heGltaXplZD0iMSIgaW5rc2NhcGU6d2luZG93LXdpZHRoPSIxOTIwIiBpbmtzY2FwZTp3aW5kb3cteD0iLTgiIGlua3NjYXBlOndpbmRvdy15PSItOCIgaW5rc2NhcGU6em9vbT0iMTAuNjM5NDk0IiBvYmplY3R0b2xlcmFuY2U9IjEwIiBwYWdlY29sb3I9IiNmZmZmZmYiIHNob3dncmlkPSJmYWxzZSI+JiN4YTsJPC9zb2RpcG9kaTpuYW1lZHZpZXc+JiN4YTs8ZyBpZD0iZzk5MjQ3IiB0cmFuc2Zvcm09InRyYW5zbGF0ZSgtNC4yMzMxNzQ5ZS01KSI+JiN4YTsJPHRpdGxlIGlkPSJ0aXRsZTk5MjI3Ij5QYWdlLTE8L3RpdGxlPiYjeGE7CTxnIGlkPSJncm91cDQ2NTQtMSI+JiN4YTsJCTx0aXRsZSBpZD0idGl0bGU5OTIyOSI+U3VibmV0czwvdGl0bGU+JiN4YTsJCTxnIGlkPSJzaGFwZTQ2NTUtMiIgdHJhbnNmb3JtPSJ0cmFuc2xhdGUoMjIuNjEzKSI+JiN4YTsJCQk8dGl0bGUgaWQ9InRpdGxlOTkyMzEiPlNoZWV0LjQ2NTU8L3RpdGxlPiYjeGE7CQkJPHBhdGggaWQ9InBhdGg5OTIzMyIgaW5rc2NhcGU6Y29ubmVjdG9yLWN1cnZhdHVyZT0iMCIgc3R5bGU9ImZpbGw6IzM5OTlDNjsiIGQ9Ik0xMi4yMywxMC42OEw5Ljg0LDguMjlMMS4zOSwwTDAsMS4yNmw5LjU4LDkuNDIgICAgIEwwLDIwLjM1bDEuMzksMS4yNmw4LjQ1LTguM0wxMi4yMywxMC42OHoiLz4mI3hhOwkJPC9nPiYjeGE7CQk8ZyBpZD0ic2hhcGU0NjU2LTQiPiYjeGE7CQkJPHRpdGxlIGlkPSJ0aXRsZTk5MjM2Ij5TaGVldC40NjU2PC90aXRsZT4mI3hhOwkJCTxwYXRoIGlkPSJwYXRoOTkyMzgiIGlua3NjYXBlOmNvbm5lY3Rvci1jdXJ2YXR1cmU9IjAiIHN0eWxlPSJmaWxsOiMzOTk5QzY7IiBkPSJNMCwxMC42OGwyLjM5LTIuMzlMMTAuODQsMGwxLjM5LDEuMjYgICAgIGwtOS41OCw5LjQybDkuNTgsOS42N2wtMS4zOSwxLjI2bC04LjQ1LTguM0wwLDEwLjY4eiIvPiYjeGE7CQk8L2c+JiN4YTsJCTxnIGlkPSJzaGFwZTQ2NTctNiIgdHJhbnNmb3JtPSJ0cmFuc2xhdGUoMTQuODY4NSwtOC41MzE5NykiPiYjeGE7CQkJPHRpdGxlIGlkPSJ0aXRsZTk5MjQxIj5TaGVldC40NjU3PC90aXRsZT4mI3hhOwkJCTxwYXRoIGlkPSJwYXRoOTkyNDMiIGlua3NjYXBlOmNvbm5lY3Rvci1jdXJ2YXR1cmU9IjAiIHN0eWxlPSJmaWxsOiM3RkJBMDA7IiBkPSJNNC45MSwxOS4yMWMwLDEuMzgtMS4xMywyLjQtMi4zOSwyLjQgICAgIFMwLDIwLjQ2LDAsMTkuMjFjMC0xLjI2LDEuMTMtMi4zOCwyLjUyLTIuMzhTNC45MSwxNy45NSw0LjkxLDE5LjIxeiIvPiYjeGE7CQk8L2c+JiN4YTsJPC9nPiYjeGE7PC9nPiYjeGE7PC9zdmc+;rounded=0;" vertex="1" parent="1">
          <mxGeometry x="670" y="125" width="39.77" height="25" as="geometry" />
        </mxCell>
        <mxCell id="_bzIca81G6JWRWRTaQMl-7" value="VN01" style="shape=image;verticalLabelPosition=bottom;labelBackgroundColor=#ffffff;verticalAlign=top;aspect=fixed;imageAspect=0;image=data:image/svg+xml,PHN2ZyB4bWxuczpjYz0iaHR0cDovL2NyZWF0aXZlY29tbW9ucy5vcmcvbnMjIiB4bWxuczpkYz0iaHR0cDovL3B1cmwub3JnL2RjL2VsZW1lbnRzLzEuMS8iIHhtbG5zOmlua3NjYXBlPSJodHRwOi8vd3d3Lmlua3NjYXBlLm9yZy9uYW1lc3BhY2VzL2lua3NjYXBlIiB4bWxuczpyZGY9Imh0dHA6Ly93d3cudzMub3JnLzE5OTkvMDIvMjItcmRmLXN5bnRheC1ucyMiIHhtbG5zOnNvZGlwb2RpPSJodHRwOi8vc29kaXBvZGkuc291cmNlZm9yZ2UubmV0L0RURC9zb2RpcG9kaS0wLmR0ZCIgeG1sbnM6c3ZnPSJodHRwOi8vd3d3LnczLm9yZy8yMDAwL3N2ZyIgeG1sbnM9Imh0dHA6Ly93d3cudzMub3JnLzIwMDAvc3ZnIiB4bWxuczp4bGluaz0iaHR0cDovL3d3dy53My5vcmcvMTk5OS94bGluayIgdmVyc2lvbj0iMS4xIiBpZD0ic3ZnOTkyNDkiIGlua3NjYXBlOnZlcnNpb249IjAuOTIuMyAoMjQwNTU0NiwgMjAxOC0wMy0xMSkiIHNvZGlwb2RpOmRvY25hbWU9InN1Ym5ldHMuc3ZnIiB4PSIwcHgiIHk9IjBweCIgdmlld0JveD0iMCAwIDM0Ljg0IDIxLjYxIiBzdHlsZT0iZW5hYmxlLWJhY2tncm91bmQ6bmV3IDAgMCAzNC44NCAyMS42MTsiIHhtbDpzcGFjZT0icHJlc2VydmUiPiYjeGE7PHNvZGlwb2RpOm5hbWVkdmlldyBib3JkZXJjb2xvcj0iIzY2NjY2NiIgYm9yZGVyb3BhY2l0eT0iMSIgZml0LW1hcmdpbi1ib3R0b209IjAiIGZpdC1tYXJnaW4tbGVmdD0iMCIgZml0LW1hcmdpbi1yaWdodD0iMCIgZml0LW1hcmdpbi10b3A9IjAiIGdyaWR0b2xlcmFuY2U9IjEwIiBndWlkZXRvbGVyYW5jZT0iMTAiIGlkPSJuYW1lZHZpZXc5OTI1MSIgaW5rc2NhcGU6Y3VycmVudC1sYXllcj0ic3ZnOTkyNDkiIGlua3NjYXBlOmN4PSI0MC45MTcxNDUiIGlua3NjYXBlOmN5PSIwLjYzNzUyNTg2IiBpbmtzY2FwZTpwYWdlb3BhY2l0eT0iMCIgaW5rc2NhcGU6cGFnZXNoYWRvdz0iMiIgaW5rc2NhcGU6d2luZG93LWhlaWdodD0iMTAxNyIgaW5rc2NhcGU6d2luZG93LW1heGltaXplZD0iMSIgaW5rc2NhcGU6d2luZG93LXdpZHRoPSIxOTIwIiBpbmtzY2FwZTp3aW5kb3cteD0iLTgiIGlua3NjYXBlOndpbmRvdy15PSItOCIgaW5rc2NhcGU6em9vbT0iMTAuNjM5NDk0IiBvYmplY3R0b2xlcmFuY2U9IjEwIiBwYWdlY29sb3I9IiNmZmZmZmYiIHNob3dncmlkPSJmYWxzZSI+JiN4YTsJPC9zb2RpcG9kaTpuYW1lZHZpZXc+JiN4YTs8ZyBpZD0iZzk5MjQ3IiB0cmFuc2Zvcm09InRyYW5zbGF0ZSgtNC4yMzMxNzQ5ZS01KSI+JiN4YTsJPHRpdGxlIGlkPSJ0aXRsZTk5MjI3Ij5QYWdlLTE8L3RpdGxlPiYjeGE7CTxnIGlkPSJncm91cDQ2NTQtMSI+JiN4YTsJCTx0aXRsZSBpZD0idGl0bGU5OTIyOSI+U3VibmV0czwvdGl0bGU+JiN4YTsJCTxnIGlkPSJzaGFwZTQ2NTUtMiIgdHJhbnNmb3JtPSJ0cmFuc2xhdGUoMjIuNjEzKSI+JiN4YTsJCQk8dGl0bGUgaWQ9InRpdGxlOTkyMzEiPlNoZWV0LjQ2NTU8L3RpdGxlPiYjeGE7CQkJPHBhdGggaWQ9InBhdGg5OTIzMyIgaW5rc2NhcGU6Y29ubmVjdG9yLWN1cnZhdHVyZT0iMCIgc3R5bGU9ImZpbGw6IzM5OTlDNjsiIGQ9Ik0xMi4yMywxMC42OEw5Ljg0LDguMjlMMS4zOSwwTDAsMS4yNmw5LjU4LDkuNDIgICAgIEwwLDIwLjM1bDEuMzksMS4yNmw4LjQ1LTguM0wxMi4yMywxMC42OHoiLz4mI3hhOwkJPC9nPiYjeGE7CQk8ZyBpZD0ic2hhcGU0NjU2LTQiPiYjeGE7CQkJPHRpdGxlIGlkPSJ0aXRsZTk5MjM2Ij5TaGVldC40NjU2PC90aXRsZT4mI3hhOwkJCTxwYXRoIGlkPSJwYXRoOTkyMzgiIGlua3NjYXBlOmNvbm5lY3Rvci1jdXJ2YXR1cmU9IjAiIHN0eWxlPSJmaWxsOiMzOTk5QzY7IiBkPSJNMCwxMC42OGwyLjM5LTIuMzlMMTAuODQsMGwxLjM5LDEuMjYgICAgIGwtOS41OCw5LjQybDkuNTgsOS42N2wtMS4zOSwxLjI2bC04LjQ1LTguM0wwLDEwLjY4eiIvPiYjeGE7CQk8L2c+JiN4YTsJCTxnIGlkPSJzaGFwZTQ2NTctNiIgdHJhbnNmb3JtPSJ0cmFuc2xhdGUoMTQuODY4NSwtOC41MzE5NykiPiYjeGE7CQkJPHRpdGxlIGlkPSJ0aXRsZTk5MjQxIj5TaGVldC40NjU3PC90aXRsZT4mI3hhOwkJCTxwYXRoIGlkPSJwYXRoOTkyNDMiIGlua3NjYXBlOmNvbm5lY3Rvci1jdXJ2YXR1cmU9IjAiIHN0eWxlPSJmaWxsOiM3RkJBMDA7IiBkPSJNNC45MSwxOS4yMWMwLDEuMzgtMS4xMywyLjQtMi4zOSwyLjQgICAgIFMwLDIwLjQ2LDAsMTkuMjFjMC0xLjI2LDEuMTMtMi4zOCwyLjUyLTIuMzhTNC45MSwxNy45NSw0LjkxLDE5LjIxeiIvPiYjeGE7CQk8L2c+JiN4YTsJPC9nPiYjeGE7PC9nPiYjeGE7PC9zdmc+;rounded=0;" vertex="1" parent="1">
          <mxGeometry x="500" y="490" width="39.77" height="25" as="geometry" />
        </mxCell>
        <mxCell id="_bzIca81G6JWRWRTaQMl-8" value="SPOKE" style="rounded=0;whiteSpace=wrap;html=1;fillColor=#f5f5f5;strokeColor=none;fontColor=#333333;verticalAlign=top;" vertex="1" parent="1">
          <mxGeometry x="665" y="500" width="170" height="60" as="geometry" />
        </mxCell>
        <mxCell id="_bzIca81G6JWRWRTaQMl-6" value="VN03" style="shape=image;verticalLabelPosition=bottom;labelBackgroundColor=#ffffff;verticalAlign=top;aspect=fixed;imageAspect=0;image=data:image/svg+xml,PHN2ZyB4bWxuczpjYz0iaHR0cDovL2NyZWF0aXZlY29tbW9ucy5vcmcvbnMjIiB4bWxuczpkYz0iaHR0cDovL3B1cmwub3JnL2RjL2VsZW1lbnRzLzEuMS8iIHhtbG5zOmlua3NjYXBlPSJodHRwOi8vd3d3Lmlua3NjYXBlLm9yZy9uYW1lc3BhY2VzL2lua3NjYXBlIiB4bWxuczpyZGY9Imh0dHA6Ly93d3cudzMub3JnLzE5OTkvMDIvMjItcmRmLXN5bnRheC1ucyMiIHhtbG5zOnNvZGlwb2RpPSJodHRwOi8vc29kaXBvZGkuc291cmNlZm9yZ2UubmV0L0RURC9zb2RpcG9kaS0wLmR0ZCIgeG1sbnM6c3ZnPSJodHRwOi8vd3d3LnczLm9yZy8yMDAwL3N2ZyIgeG1sbnM9Imh0dHA6Ly93d3cudzMub3JnLzIwMDAvc3ZnIiB4bWxuczp4bGluaz0iaHR0cDovL3d3dy53My5vcmcvMTk5OS94bGluayIgdmVyc2lvbj0iMS4xIiBpZD0ic3ZnOTkyNDkiIGlua3NjYXBlOnZlcnNpb249IjAuOTIuMyAoMjQwNTU0NiwgMjAxOC0wMy0xMSkiIHNvZGlwb2RpOmRvY25hbWU9InN1Ym5ldHMuc3ZnIiB4PSIwcHgiIHk9IjBweCIgdmlld0JveD0iMCAwIDM0Ljg0IDIxLjYxIiBzdHlsZT0iZW5hYmxlLWJhY2tncm91bmQ6bmV3IDAgMCAzNC44NCAyMS42MTsiIHhtbDpzcGFjZT0icHJlc2VydmUiPiYjeGE7PHNvZGlwb2RpOm5hbWVkdmlldyBib3JkZXJjb2xvcj0iIzY2NjY2NiIgYm9yZGVyb3BhY2l0eT0iMSIgZml0LW1hcmdpbi1ib3R0b209IjAiIGZpdC1tYXJnaW4tbGVmdD0iMCIgZml0LW1hcmdpbi1yaWdodD0iMCIgZml0LW1hcmdpbi10b3A9IjAiIGdyaWR0b2xlcmFuY2U9IjEwIiBndWlkZXRvbGVyYW5jZT0iMTAiIGlkPSJuYW1lZHZpZXc5OTI1MSIgaW5rc2NhcGU6Y3VycmVudC1sYXllcj0ic3ZnOTkyNDkiIGlua3NjYXBlOmN4PSI0MC45MTcxNDUiIGlua3NjYXBlOmN5PSIwLjYzNzUyNTg2IiBpbmtzY2FwZTpwYWdlb3BhY2l0eT0iMCIgaW5rc2NhcGU6cGFnZXNoYWRvdz0iMiIgaW5rc2NhcGU6d2luZG93LWhlaWdodD0iMTAxNyIgaW5rc2NhcGU6d2luZG93LW1heGltaXplZD0iMSIgaW5rc2NhcGU6d2luZG93LXdpZHRoPSIxOTIwIiBpbmtzY2FwZTp3aW5kb3cteD0iLTgiIGlua3NjYXBlOndpbmRvdy15PSItOCIgaW5rc2NhcGU6em9vbT0iMTAuNjM5NDk0IiBvYmplY3R0b2xlcmFuY2U9IjEwIiBwYWdlY29sb3I9IiNmZmZmZmYiIHNob3dncmlkPSJmYWxzZSI+JiN4YTsJPC9zb2RpcG9kaTpuYW1lZHZpZXc+JiN4YTs8ZyBpZD0iZzk5MjQ3IiB0cmFuc2Zvcm09InRyYW5zbGF0ZSgtNC4yMzMxNzQ5ZS01KSI+JiN4YTsJPHRpdGxlIGlkPSJ0aXRsZTk5MjI3Ij5QYWdlLTE8L3RpdGxlPiYjeGE7CTxnIGlkPSJncm91cDQ2NTQtMSI+JiN4YTsJCTx0aXRsZSBpZD0idGl0bGU5OTIyOSI+U3VibmV0czwvdGl0bGU+JiN4YTsJCTxnIGlkPSJzaGFwZTQ2NTUtMiIgdHJhbnNmb3JtPSJ0cmFuc2xhdGUoMjIuNjEzKSI+JiN4YTsJCQk8dGl0bGUgaWQ9InRpdGxlOTkyMzEiPlNoZWV0LjQ2NTU8L3RpdGxlPiYjeGE7CQkJPHBhdGggaWQ9InBhdGg5OTIzMyIgaW5rc2NhcGU6Y29ubmVjdG9yLWN1cnZhdHVyZT0iMCIgc3R5bGU9ImZpbGw6IzM5OTlDNjsiIGQ9Ik0xMi4yMywxMC42OEw5Ljg0LDguMjlMMS4zOSwwTDAsMS4yNmw5LjU4LDkuNDIgICAgIEwwLDIwLjM1bDEuMzksMS4yNmw4LjQ1LTguM0wxMi4yMywxMC42OHoiLz4mI3hhOwkJPC9nPiYjeGE7CQk8ZyBpZD0ic2hhcGU0NjU2LTQiPiYjeGE7CQkJPHRpdGxlIGlkPSJ0aXRsZTk5MjM2Ij5TaGVldC40NjU2PC90aXRsZT4mI3hhOwkJCTxwYXRoIGlkPSJwYXRoOTkyMzgiIGlua3NjYXBlOmNvbm5lY3Rvci1jdXJ2YXR1cmU9IjAiIHN0eWxlPSJmaWxsOiMzOTk5QzY7IiBkPSJNMCwxMC42OGwyLjM5LTIuMzlMMTAuODQsMGwxLjM5LDEuMjYgICAgIGwtOS41OCw5LjQybDkuNTgsOS42N2wtMS4zOSwxLjI2bC04LjQ1LTguM0wwLDEwLjY4eiIvPiYjeGE7CQk8L2c+JiN4YTsJCTxnIGlkPSJzaGFwZTQ2NTctNiIgdHJhbnNmb3JtPSJ0cmFuc2xhdGUoMTQuODY4NSwtOC41MzE5NykiPiYjeGE7CQkJPHRpdGxlIGlkPSJ0aXRsZTk5MjQxIj5TaGVldC40NjU3PC90aXRsZT4mI3hhOwkJCTxwYXRoIGlkPSJwYXRoOTkyNDMiIGlua3NjYXBlOmNvbm5lY3Rvci1jdXJ2YXR1cmU9IjAiIHN0eWxlPSJmaWxsOiM3RkJBMDA7IiBkPSJNNC45MSwxOS4yMWMwLDEuMzgtMS4xMywyLjQtMi4zOSwyLjQgICAgIFMwLDIwLjQ2LDAsMTkuMjFjMC0xLjI2LDEuMTMtMi4zOCwyLjUyLTIuMzhTNC45MSwxNy45NSw0LjkxLDE5LjIxeiIvPiYjeGE7CQk8L2c+JiN4YTsJPC9nPiYjeGE7PC9nPiYjeGE7PC9zdmc+;rounded=0;" vertex="1" parent="1">
          <mxGeometry x="789.9999999999999" y="490" width="39.77" height="25" as="geometry" />
        </mxCell>
        <mxCell id="_bzIca81G6JWRWRTaQMl-9" value="ROUTER APPLIANCE" style="shape=image;verticalLabelPosition=bottom;labelBackgroundColor=#ffffff;verticalAlign=top;aspect=fixed;imageAspect=0;image=data:image/svg+xml,PHN2ZyB4bWxuczpkYz0iaHR0cDovL3B1cmwub3JnL2RjL2VsZW1lbnRzLzEuMS8iIHhtbG5zOmNjPSJodHRwOi8vY3JlYXRpdmVjb21tb25zLm9yZy9ucyMiIHhtbG5zOnJkZj0iaHR0cDovL3d3dy53My5vcmcvMTk5OS8wMi8yMi1yZGYtc3ludGF4LW5zIyIgeG1sbnM6c3ZnPSJodHRwOi8vd3d3LnczLm9yZy8yMDAwL3N2ZyIgeG1sbnM9Imh0dHA6Ly93d3cudzMub3JnLzIwMDAvc3ZnIiB4bWxuczpzb2RpcG9kaT0iaHR0cDovL3NvZGlwb2RpLnNvdXJjZWZvcmdlLm5ldC9EVEQvc29kaXBvZGktMC5kdGQiIHhtbG5zOmlua3NjYXBlPSJodHRwOi8vd3d3Lmlua3NjYXBlLm9yZy9uYW1lc3BhY2VzL2lua3NjYXBlIiB2ZXJzaW9uPSIxLjEiIGlkPSJzdmc2MTAxMSIgaW5rc2NhcGU6dmVyc2lvbj0iMC45Mi4zICgyNDA1NTQ2LCAyMDE4LTAzLTExKSIgc29kaXBvZGk6ZG9jbmFtZT0iYXp1cmVfcG9ydGFsX3ZpcnR1YWxfbWFjaGluZXMuc3ZnIiB4PSIwcHgiIHk9IjBweCIgdmlld0JveD0iMCAwIDU3LjY0IDUzLjIwMDAwMiIgeG1sOnNwYWNlPSJwcmVzZXJ2ZSIgd2lkdGg9IjU3LjYzOTk5OSIgaGVpZ2h0PSI1My4yMDAwMDEiPjxtZXRhZGF0YSBpZD0ibWV0YWRhdGExMDk5MCI+PHJkZjpSREY+PGNjOldvcmsgcmRmOmFib3V0PSIiPjxkYzpmb3JtYXQ+aW1hZ2Uvc3ZnK3htbDwvZGM6Zm9ybWF0PjxkYzp0eXBlIHJkZjpyZXNvdXJjZT0iaHR0cDovL3B1cmwub3JnL2RjL2RjbWl0eXBlL1N0aWxsSW1hZ2UiLz48ZGM6dGl0bGUvPjwvY2M6V29yaz48L3JkZjpSREY+PC9tZXRhZGF0YT48ZGVmcyBpZD0iZGVmczEwOTg4Ii8+JiN4YTs8ZmlsdGVyIGlkPSJmaWx0ZXJfMiI+JiN4YTsJPGZlR2F1c3NpYW5CbHVyIGlkPSJmZUdhdXNzaWFuQmx1cjYwOTIwIiBzdGREZXZpYXRpb249IjIiLz4mI3hhOzwvZmlsdGVyPiYjeGE7PHNvZGlwb2RpOm5hbWVkdmlldyBib3JkZXJjb2xvcj0iIzY2NjY2NiIgYm9yZGVyb3BhY2l0eT0iMSIgZml0LW1hcmdpbi1ib3R0b209IjAiIGZpdC1tYXJnaW4tbGVmdD0iMCIgZml0LW1hcmdpbi1yaWdodD0iMCIgZml0LW1hcmdpbi10b3A9IjAiIGdyaWR0b2xlcmFuY2U9IjEwIiBndWlkZXRvbGVyYW5jZT0iMTAiIGlkPSJuYW1lZHZpZXc2MTAxMyIgaW5rc2NhcGU6Y3VycmVudC1sYXllcj0ic3ZnNjEwMTEiIGlua3NjYXBlOmN4PSItMzMuMTQzMzAzIiBpbmtzY2FwZTpjeT0iMjQuNjk2NTQ0IiBpbmtzY2FwZTpwYWdlb3BhY2l0eT0iMCIgaW5rc2NhcGU6cGFnZXNoYWRvdz0iMiIgaW5rc2NhcGU6d2luZG93LWhlaWdodD0iMTAxNyIgaW5rc2NhcGU6d2luZG93LW1heGltaXplZD0iMSIgaW5rc2NhcGU6d2luZG93LXdpZHRoPSIxOTIwIiBpbmtzY2FwZTp3aW5kb3cteD0iLTgiIGlua3NjYXBlOndpbmRvdy15PSItOCIgaW5rc2NhcGU6em9vbT0iNS45MTg3NzA5IiBvYmplY3R0b2xlcmFuY2U9IjEwIiBwYWdlY29sb3I9IiNmZmZmZmYiIHNob3dncmlkPSJmYWxzZSI+JiN4YTsJPC9zb2RpcG9kaTpuYW1lZHZpZXc+JiN4YTsmI3hhOzxwYXRoIGlkPSJwYXRoNjA5MzMiIGlua3NjYXBlOmNvbm5lY3Rvci1jdXJ2YXR1cmU9IjAiIHN0eWxlPSJmaWxsOiM3YTdhN2EiIGQ9Ik0gMzcuMzksNDIuMTIgSCAzNi4wMSAyMi40MiAyMS43MSBjIDEuODgsNi42NSAtMC42NSw3LjYgLTExLjczLDcuNiB2IDMuNDggaCAxNC4xIDEwLjI5IDEzLjMgdiAtMy40OCBjIC0xMS4wOCwwIC0xMi4xNywtMC45NSAtMTAuMjgsLTcuNiB6Ii8+JiN4YTsmI3hhOzxwYXRoIGlkPSJwYXRoNjA5NDEiIGlua3NjYXBlOmNvbm5lY3Rvci1jdXJ2YXR1cmU9IjAiIHN0eWxlPSJmaWxsOiNhMGExYTIiIGQ9Ik0gNTQuMTYsMCBIIDMuMTMgQyAxLjQsMCAwLDEuNTUgMCwzLjI4IHYgMzUuNTkgYyAwLDEuNzIgMS40LDMuMjUgMy4xMywzLjI1IGggNTEuMDMgYyAxLjczLDAgMy40OCwtMS41MyAzLjQ4LC0zLjI1IFYgMy4yOCBDIDU3LjY0LDEuNTUgNTUuODksMCA1NC4xNiwwIFoiLz4mI3hhOyYjeGE7PHBhdGggaWQ9InBhdGg2MDk0OSIgaW5rc2NhcGU6Y29ubmVjdG9yLWN1cnZhdHVyZT0iMCIgc3R5bGU9ImZpbGw6I2ZmZmZmZjtmaWxsLW9wYWNpdHk6MC4yIiBkPSJNIDU0LjIsMCBDIDU0LjE5LDAgNTQuMTcsMCA1NC4xNiwwIEggMy4xMyBDIDEuNCwwIDAsMS41NSAwLDMuMjggdiAzNS41OSBjIDAsMS43MiAxLjQsMy4yNSAzLjEzLDMuMjUgaCAxLjIyIHoiLz4mI3hhOyYjeGE7PHJlY3QgaWQ9InJlY3Q2MDk1NyIgeD0iNC4zNjk5OTUxIiB5PSI0LjQ0MDAwMDEiIHN0eWxlPSJmaWxsOiM1OWI0ZDkiIHdpZHRoPSI0OC43Nzk5OTkiIGhlaWdodD0iMzMuMjUiLz4mI3hhOyYjeGE7JiN4YTsmI3hhOzxyZWN0IGlkPSJyZWN0NjA5NzMiIHg9IjkuOTc5OTk1NyIgeT0iNDkuNzIwMDAxIiBzdHlsZT0iZmlsbDojYTBhMWEyIiB3aWR0aD0iMzcuNjg5OTk5IiBoZWlnaHQ9IjMuNDgiLz4mI3hhOyYjeGE7PHBhdGggaWQ9InBhdGg2MDk4MSIgaW5rc2NhcGU6Y29ubmVjdG9yLWN1cnZhdHVyZT0iMCIgc3R5bGU9ImZpbGw6I2I4ZDQzMiIgZD0ibSAyOS40MiwyLjQyIGMgMCwwLjQ1IC0wLjM3LDAuODEgLTAuODIsMC44MSAtMC40NiwwIC0wLjgyLC0wLjM2IC0wLjgyLC0wLjgxIDAsLTAuNDYgMC4zNiwtMC44MiAwLjgyLC0wLjgyIDAuNDUsMCAwLjgyLDAuMzYgMC44MiwwLjgyIHoiLz4mI3hhOyYjeGE7PHBhdGggaWQ9InBhdGg2MDk4OSIgaW5rc2NhcGU6Y29ubmVjdG9yLWN1cnZhdHVyZT0iMCIgc3R5bGU9ImZpbGw6I2ZmZmZmZiIgZD0ibSAyOS40NSwyMC4wNSBjIC0wLjA2LDAgLTAuMTEsLTAuMDEgLTAuMTYsLTAuMDQgTCAxOS4xNCwxNC4xNSBjIC0wLjA5LC0wLjA1IC0wLjE1LC0wLjE2IC0wLjE1LC0wLjI2IDAsLTAuMTEgMC4wNiwtMC4yMiAwLjE1LC0wLjI3IEwgMjkuMjMsNy44IGMgMC4xLC0wLjA1IDAuMjEsLTAuMDUgMC4zLDAgbCAxMC4xNiw1Ljg2IGMgMC4wOSwwLjA1IDAuMTUsMC4xNiAwLjE1LDAuMjcgMCwwLjExIC0wLjA2LDAuMjEgLTAuMTUsMC4yNiBMIDI5LjYsMjAuMDEgYyAtMC4wNSwwLjAzIC0wLjEsMC4wNCAtMC4xNSwwLjA0IHoiLz4mI3hhOyYjeGE7PHBhdGggaWQ9InBhdGg2MDk5NyIgaW5rc2NhcGU6Y29ubmVjdG9yLWN1cnZhdHVyZT0iMCIgc3R5bGU9ImZpbGw6I2ZmZmZmZjtmaWxsLW9wYWNpdHk6MC43IiBkPSJtIDI3Ljk5LDM0LjI5IGMgLTAuMDYsMCAtMC4xMSwtMC4wMSAtMC4xNSwtMC4wNCBMIDE3LjcyLDI4LjQxIGMgLTAuMSwtMC4wNSAtMC4xNiwtMC4xNSAtMC4xNiwtMC4yNiBWIDE2LjQzIGMgMCwtMC4xMSAwLjA2LC0wLjIyIDAuMTYsLTAuMjcgMC4wOSwtMC4wNiAwLjIxLC0wLjA2IDAuMzEsMCBMIDI4LjE0LDIyIGMgMC4wOSwwLjA2IDAuMTUsMC4xNiAwLjE1LDAuMjcgdiAxMS43MiBjIDAsMC4xMSAtMC4wNiwwLjIxIC0wLjE1LDAuMjYgLTAuMDUsMC4wMyAtMC4xLDAuMDQgLTAuMTUsMC4wNCB6Ii8+JiN4YTsmI3hhOzxwYXRoIGlkPSJwYXRoNjEwMDUiIGlua3NjYXBlOmNvbm5lY3Rvci1jdXJ2YXR1cmU9IjAiIHN0eWxlPSJmaWxsOiNmZmZmZmY7ZmlsbC1vcGFjaXR5OjAuNCIgZD0iTSAzMC44NiwzNC4yOSBDIDMwLjgsMzQuMjkgMzAuNzUsMzQuMjggMzAuNywzNC4yNSAzMC42MSwzNC4yIDMwLjU1LDM0LjEgMzAuNTUsMzMuOTkgViAyMi4zNCBjIDAsLTAuMTEgMC4wNiwtMC4yMSAwLjE1LC0wLjI3IGwgMTAuMTIsLTUuODMgYyAwLjA5LC0wLjA2IDAuMjEsLTAuMDYgMC4zLDAgMC4xLDAuMDUgMC4xNiwwLjE1IDAuMTYsMC4yNiB2IDExLjY1IGMgMCwwLjExIC0wLjA2LDAuMjEgLTAuMTYsMC4yNiBsIC0xMC4xMSw1Ljg0IGMgLTAuMDQsMC4wMyAtMC4xLDAuMDQgLTAuMTUsMC4wNCB6Ii8+JiN4YTs8L3N2Zz4=;rounded=0;" vertex="1" parent="1">
          <mxGeometry x="630.0000000000001" y="189" width="58" height="53" as="geometry" />
        </mxCell>
        <mxCell id="_bzIca81G6JWRWRTaQMl-10" value="&lt;p style=&quot;line-height: 1.1;&quot;&gt;&lt;/p&gt;&lt;h1 style=&quot;font-size: 11px;&quot;&gt;Gateway Transit&lt;/h1&gt;&lt;p style=&quot;font-size: 11px;&quot;&gt;&lt;a style=&quot;box-sizing: inherit; outline-color: inherit; cursor: pointer; overflow-wrap: break-word; text-decoration-line: none; outline-style: initial; outline-width: 0px; font-family: &amp;quot;Segoe UI&amp;quot;, SegoeUI, &amp;quot;Helvetica Neue&amp;quot;, Helvetica, Arial, sans-serif; font-size: 11px;&quot; data-linktype=&quot;relative-path&quot; href=&quot;https://learn.microsoft.com/en-us/azure/virtual-network/virtual-network-peering-overview#gateways-and-on-premises-connectivity&quot;&gt;Gateway transit&lt;/a&gt;&lt;span style=&quot;font-family: &amp;quot;Segoe UI&amp;quot;, SegoeUI, &amp;quot;Helvetica Neue&amp;quot;, Helvetica, Arial, sans-serif; font-size: 11px;&quot;&gt;&amp;nbsp;is a peering property that lets one virtual network use the VPN gateway in the peered virtual network for cross-premises or VNet-to-VNet connectivity&lt;/span&gt;&lt;br style=&quot;font-size: 11px;&quot;&gt;&lt;/p&gt;&lt;p&gt;&lt;/p&gt;" style="text;html=1;strokeColor=#d6b656;fillColor=#fff2cc;spacing=5;spacingTop=-20;whiteSpace=wrap;overflow=hidden;rounded=0;fontColor=default;fontSize=11;labelBackgroundColor=none;labelBorderColor=none;" vertex="1" parent="1">
          <mxGeometry x="400" width="190" height="95" as="geometry" />
        </mxCell>
        <mxCell id="_bzIca81G6JWRWRTaQMl-12" value="" style="shape=image;verticalLabelPosition=bottom;labelBackgroundColor=default;verticalAlign=top;aspect=fixed;imageAspect=0;image=data:image/png,iVBORw0KGgoAAAANSUhEUgAAA0oAAADoCAYAAADR5hSVAAAMQGlDQ1BJQ0MgUHJvZmlsZQAASImVVwdYU8kWnluSkEBoAQSkhN4E6QSQEkILIL0INkISIJQYA0HFjiwquHaxgA1dFVHsgNgRxcIi2PuCiIqyLhbsypsU0HVf+d5839z57z9n/nPm3Jl77wCgdpojEuWg6gDkCvPFsSEB9HHJKXTSE0AG6oAELIAFh5snYkZHRwBYhtq/l3c3ASJtr9lLtf7Z/1+LBo+fxwUAiYY4jZfHzYX4MAB4JVckzgeAKOXNpuWLpBhWoCWGAUK8SIoz5LhSitPkeL/MJj6WBXEzAEoqHI44AwDVdsjTC7gZUEO1H2JHIU8gBECNDrFvbu4UHsSpEFtDGxHEUn1G2g86GX/TTBvW5HAyhrF8LrKiFCjIE+VwZvyf6fjfJTdHMuTDElaVTHForHTOMG+3s6eES7EKxH3CtMgoiDUh/iDgyewhRimZktAEuT1qwM1jwZwBHYgdeZzAcIgNIA4W5kRGKPi0dEEwG2K4QtDpgnx2PMS6EC/i5wXFKWy2iKfEKnyhdeliFlPBX+CIZX6lvh5KshOYCv3XmXy2Qh9TLcyMT4KYArF5gSAxEmJViB3ysuPCFTZjCjNZkUM2YkmsNH5ziGP5wpAAuT5WkC4OjlXYl+bmDc0X25IpYEcq8MH8zPhQeX6wZi5HFj+cC9bOFzIThnT4eeMihubC4wcGyeeOPeMLE+IUOh9E+QGx8rE4RZQTrbDHTfk5IVLeFGLXvII4xVg8MR8uSLk+ni7Kj46Xx4kXZnHCouXx4MtBBGCBQEAHEljTwBSQBQRtffV98E7eEww4QAwyAB/YK5ihEUmyHiG8xoFC8CdEfJA3PC5A1ssHBZD/OszKr/YgXdZbIBuRDZ5AnAvCQQ68l8hGCYe9JYLHkBH8wzsHVi6MNwdWaf+/54fY7wwTMhEKRjLkka42ZEkMIgYSQ4nBRBtcH/fFvfEIePWH1Rln4J5D8/huT3hC6CA8ItwgdBLuTBYUiX+KcizohPrBilyk/ZgL3BJquuEBuA9Uh8q4Dq4P7HFX6IeJ+0HPbpBlKeKWZoX+k/bfZvDD01DYkR3JKHkE2Z9s/fNIVVtVt2EVaa5/zI881rThfLOGe372z/oh+zzYhv9siS3CDmEt2BnsInYcqwd07BTWgLViJ6R4eHU9lq2uIW+xsniyoY7gH/6Gnqw0k3mONY69jl/kffn86dJ3NGBNEc0QCzIy8+lM+EXg09lCrsMourOjszMA0u+L/PX1Jkb23UB0Wr9zC/4AwOfU4ODgse9c2CkADnjA7X/0O2fNgJ8OZQAuHOVKxAVyDpdeCPAtoQZ3mh4wAmbAGs7HGbgDb+APgkAYiALxIBlMgtFnwnUuBtPALDAflIAysBysARvAZrAN7AJ7wUFQD46DM+A8uAzawQ1wD66eHvAC9IN34DOCICSEitAQPcQYsUDsEGeEgfgiQUgEEoskI6lIBiJEJMgsZAFShqxENiBbkWrkAHIUOYNcRDqQO0gX0ou8Rj6hGKqCaqGGqCU6GmWgTDQcjUcnohnoVLQQLUaXouvQKnQPWoeeQS+jN9BO9AU6gAFMGdPBTDB7jIGxsCgsBUvHxNgcrBQrx6qwWqwRPudrWCfWh33EiTgNp+P2cAWH4gk4F5+Kz8GX4BvwXXgd3oxfw7vwfvwbgUowINgRvAhswjhCBmEaoYRQTthBOEI4B/dSD+EdkUjUIVoRPeBeTCZmEWcSlxA3EvcRTxM7iN3EARKJpEeyI/mQokgcUj6phLSetId0inSV1EP6oKSsZKzkrBSslKIkVCpSKlfarXRS6arSU6XPZHWyBdmLHEXmkWeQl5G3kxvJV8g95M8UDYoVxYcST8mizKeso9RSzlHuU94oKyubKnsqxygLlOcpr1Per3xBuUv5o4qmiq0KS2WCikRlqcpOldMqd1TeUKlUS6o/NYWaT11KraaepT6kflClqTqoslV5qnNVK1TrVK+qvlQjq1moMdUmqRWqlasdUrui1qdOVrdUZ6lz1OeoV6gfVb+lPqBB03DSiNLI1ViisVvjosYzTZKmpWaQJk+zWHOb5lnNbhpGM6OxaFzaAtp22jlajxZRy0qLrZWlVaa1V6tNq19bU9tVO1F7unaF9gntTh1Mx1KHrZOjs0znoM5NnU8jDEcwR/BHLB5RO+LqiPe6I3X9dfm6pbr7dG/oftKj6wXpZeut0KvXe6CP69vqx+hP09+kf06/b6TWSO+R3JGlIw+OvGuAGtgaxBrMNNhm0GowYGhkGGIoMlxveNawz0jHyN8oy2i10UmjXmOasa+xwHi18Snj53RtOpOeQ19Hb6b3mxiYhJpITLaatJl8NrUyTTAtMt1n+sCMYsYwSzdbbdZk1m9ubD7WfJZ5jfldC7IFwyLTYq1Fi8V7SyvLJMuFlvWWz6x0rdhWhVY1VvetqdZ+1lOtq6yv2xBtGDbZNhtt2m1RWzfbTNsK2yt2qJ27ncBuo13HKMIoz1HCUVWjbtmr2DPtC+xr7LscdBwiHIoc6h1ejjYfnTJ6xeiW0d8c3RxzHLc73nPSdApzKnJqdHrtbOvMda5wvu5CdQl2mevS4PLK1c6V77rJ9bYbzW2s20K3Jrev7h7uYvda914Pc49Uj0qPWwwtRjRjCeOCJ8EzwHOu53HPj17uXvleB73+8rb3zvbe7f1sjNUY/pjtY7p9TH04Plt9On3pvqm+W3w7/Uz8OH5Vfo/8zfx5/jv8nzJtmFnMPcyXAY4B4oAjAe9ZXqzZrNOBWGBIYGlgW5BmUELQhqCHwabBGcE1wf0hbiEzQ06HEkLDQ1eE3mIbsrnsanZ/mEfY7LDmcJXwuPAN4Y8ibCPEEY1j0bFhY1eNvR9pESmMrI8CUeyoVVEPoq2ip0YfiyHGRMdUxDyJdYqdFdsSR4ubHLc77l18QPyy+HsJ1gmShKZEtcQJidWJ75MCk1YmdY4bPW72uMvJ+smC5IYUUkpiyo6UgfFB49eM75ngNqFkws2JVhOnT7w4SX9SzqQTk9UmcyYfSiWkJqXuTv3CieJUcQbS2GmVaf1cFnct9wXPn7ea18v34a/kP033SV+Z/izDJ2NVRm+mX2Z5Zp+AJdggeJUVmrU56312VPbO7MGcpJx9uUq5qblHhZrCbGHzFKMp06d0iOxEJaLOqV5T10ztF4eLd+QheRPzGvK14I98q8Ra8oukq8C3oKLgw7TEaYema0wXTm+dYTtj8YynhcGFv83EZ3JnNs0ymTV/Vtds5uytc5A5aXOa5prNLZ7bMy9k3q75lPnZ838vcixaWfR2QdKCxmLD4nnF3b+E/FJToloiLrm10Hvh5kX4IsGitsUui9cv/lbKK71U5lhWXvZlCXfJpV+dfl336+DS9KVty9yXbVpOXC5cfnOF34pdKzVWFq7sXjV2Vd1q+urS1W/XTF5zsdy1fPNaylrJ2s51Eesa1puvX77+y4bMDTcqAir2VRpULq58v5G38eom/021mw03l23+tEWw5fbWkK11VZZV5duI2wq2PdmeuL3lN8Zv1Tv0d5Tt+LpTuLNzV+yu5mqP6urdBruX1aA1kprePRP2tO8N3NtQa1+7dZ/OvrL9YL9k//MDqQduHgw/2HSIcaj2sMXhyiO0I6V1SN2Muv76zPrOhuSGjqNhR5savRuPHHM4tvO4yfGKE9onlp2knCw+OXiq8NTAadHpvjMZZ7qbJjfdOzvu7PXmmOa2c+HnLpwPPn+2hdly6oLPheMXvS4evcS4VH/Z/XJdq1vrkd/dfj/S5t5Wd8XjSkO7Z3tjx5iOk1f9rp65Fnjt/HX29cs3Im903Ey4efvWhFudt3m3n93JufPqbsHdz/fm3SfcL32g/qD8ocHDqj9s/tjX6d55oiuwq/VR3KN73dzuF4/zHn/pKX5CfVL+1Php9TPnZ8d7g3vbn49/3vNC9OJzX8mfGn9WvrR+efgv/79a+8f197wSvxp8veSN3pudb13fNg1EDzx8l/vu8/vSD3ofdn1kfGz5lPTp6edpX0hf1n21+dr4Lfzb/cHcwUERR8yR/QpgsKLp6QC83gkANRkAGjyfUcbLz3+ygsjPrDIE/hOWnxFlxR2AWvj/HtMH/25uAbB/Ozx+QX21CQBEUwGI9wSoi8twHTqryc6V0kKE54AtkV/TctPAvynyM+cPcf/cAqmqK/i5/RfSgHxwyICe4QAAAIplWElmTU0AKgAAAAgABAEaAAUAAAABAAAAPgEbAAUAAAABAAAARgEoAAMAAAABAAIAAIdpAAQAAAABAAAATgAAAAAAAACQAAAAAQAAAJAAAAABAAOShgAHAAAAEgAAAHigAgAEAAAAAQAAA0qgAwAEAAAAAQAAAOgAAAAAQVNDSUkAAABTY3JlZW5zaG903xxYGwAAAAlwSFlzAAAWJQAAFiUBSVIk8AAAAdZpVFh0WE1MOmNvbS5hZG9iZS54bXAAAAAAADx4OnhtcG1ldGEgeG1sbnM6eD0iYWRvYmU6bnM6bWV0YS8iIHg6eG1wdGs9IlhNUCBDb3JlIDYuMC4wIj4KICAgPHJkZjpSREYgeG1sbnM6cmRmPSJodHRwOi8vd3d3LnczLm9yZy8xOTk5LzAyLzIyLXJkZi1zeW50YXgtbnMjIj4KICAgICAgPHJkZjpEZXNjcmlwdGlvbiByZGY6YWJvdXQ9IiIKICAgICAgICAgICAgeG1sbnM6ZXhpZj0iaHR0cDovL25zLmFkb2JlLmNvbS9leGlmLzEuMC8iPgogICAgICAgICA8ZXhpZjpQaXhlbFlEaW1lbnNpb24+MjMyPC9leGlmOlBpeGVsWURpbWVuc2lvbj4KICAgICAgICAgPGV4aWY6UGl4ZWxYRGltZW5zaW9uPjg0MjwvZXhpZjpQaXhlbFhEaW1lbnNpb24+CiAgICAgICAgIDxleGlmOlVzZXJDb21tZW50PlNjcmVlbnNob3Q8L2V4aWY6VXNlckNvbW1lbnQ+CiAgICAgIDwvcmRmOkRlc2NyaXB0aW9uPgogICA8L3JkZjpSREY+CjwveDp4bXBtZXRhPgqoE8nrAAAAHGlET1QAAAACAAAAAAAAAHQAAAAoAAAAdAAAAHQAAF5vdJmGbAAAQABJREFUeAHsXQm8VdP3X+Z5rFQyhyR+f/OUKI0SGqho0KQioqRRkdKowRTSKCGleR41GBooElIpFFFmMnv/9d2vdVr3vHPuPffdN/Vaq0/vnHv22tN377PPXnv47v3SWMjEEDAEDAFDwBAwBAwBQ8AQMAQMAUPAQ2A/M5Q8LOzGEDAEDAFDwBAwBAwBQ8AQMAQMAYeAGUpWEQwBQ8AQMAQMAUPAEDAEDAFDwBDwIWCGkg8Q+2kIGAKGgCFgCBgChoAhYAgYAoaAGUpWBwwBQ8AQMAQMAUPAEDAEDAFDwBDwIWCGkg8Q+2kIGAKGgCFgCBgChoAhYAgYAoaAGUpWBwwBQ8AQMAQMAUPAEDAEDAFDwBDwIWCGkg8Q+2kIGAKGgCFgCBgChoAhYAgYAoaAGUpWBwwBQ8AQMAQMAUPAEDAEDAFDwBDwIWCGkg8Q+2kIGAKGgCFgCBgChoAhYAgYAoaAGUpWBwwBQ8AQMAQMAUPAEDAEDAFDwBDwIWCGkg8Q+2kIGAKGgCFgCBgChoAhYAgYAoaAGUpWBwwBQ8AQMAQMAUPAEDAEDAFDwBDwIWCGkg8Q+2kIGAKGgCFgCBgChoAhYAgYAoaAGUpWBwwBQ8AQMAQMAUPAEDAEDAFDwBDwIWCGkg8Q+2kIGAKGgCFgCBgChoAhYAgYAoaAGUpWBwwBQ8AQMAQMAUPAEDAEDAFDwBDwIWCGkg8Q+2kIGAKGgCFgCBgChoAhYAgYAoaAGUpWBwwBQ8AQMAQMAUPAEDAEDAFDwBDwIWCGkg8Q+2kIGAKGgCFgCBgCexcCn3zyMX3y8ccu0es/+cRLfIlzzqFzSpakc84p6T2zG0PAEDAEoiJghlJUpEzPEDAEDAFDwBAwBPIUApMnTaQpkyclTBMMpZtr1DCDKSFSpmAIGAIaATOUNBp2bwgYAoaAIWAIGAJ5HgHMIPXt3ctL583Va7h7PXsEHciUSZNI7vG7Q6fOZjABCBNDwBBIiMBeaSj9/vvvtGPHDjrllFMSZnBvVZjMDfuPP/1IJ510MlWoUGFvzUa+TLeUzRlnnEHXXHNtvsyjZcoQMAQMgbyKgJ5FgoFUvUbNSEnNrL9IgZuSIWAI5EsEcsRQWrZ0Kf35118OwDJlytDBBx8cCcyffvqJVq1a5XRPKlaMsNYYBlLNmjVo12+/UaNGjene1q0jhbW3Kd16Sy367LPP6OJLLqGhQ1/Y25Kfr9NrZZOvizdfZO6///6jRYsWBeblEG5/i554Ip3I/w877LBAHXsYjMDnW7bQqndX0VdffUXffvMtf8sOomOOOZZOKFyYrrjiCjrttNOCPdrTLEMgVWNHz0QlY2RlWQYsIEPAENirEMgRQ6nN/ffRkiVLHDCDn3iCypS5JhJIY158kQYPHuR027RtS/XrN6D58+dTh/YPumfFip1EU6dNixTW3qZknfG8W2JWNnm3bCxl6Qj8+eefdNWVVySEo06dutS4SRMqVKhQQt19WWHjxg301FNPEQb94smUqdN4FcBJ8VTMLQUEtJGT6vK5xnc0cCkxYymFAjGvhsA+gECOGErauKly/fX02GN71hXHw1g6pNCZPWeu+5j/+uuv1KxpE9qwYQN1eeghnl2qFS+IULffeEbqjTfeoIUL5lPr1vfRqXlsJFDyvrfNKGEk++2333a4XnrZ5VSlSpXQMthbHfbWskmE9/bt23kgYh6tXLmSBg0aTPvvv38iL+aeRxGIaigh+ccffzy9Ou41KlCgQJ7MTW7Xy82bN1PDhg3cKgYBCIN0xx57DH399df0/fffy2MyQ8mDIltusCcJxlKqRhISp42ukaPHZEt6LVBDwBDY+xHIEUPpjz/+oNJXXemhtXTZm3T44Yd7v4NuYAjVrVPbOZUuXZqefOrpGLW/eClf1CV8MR53/1iwYAG1f7Cd+zV8xAi64IILg9Ry7dne2hn/7rvvqFLF9D1VrVrdQ02aNs01DLMr4r21bBLh0b9fX3r11Ved2spV75qhlAiwPOyuDaXKlSvTg+07uNT++++/bvny+++/T88887TX+b/yyqvo6WeeyZM5yu16edONN9K2bVsdNjfedBM1b97CLVsUsPB9W7RwIY0ePYoGDBxIMKJMsh4BMWyizABheR4k0d4lWcYXJcysz5GFaAgYAnsDAjliKAGIx3r2pIkTX3eY9Ordh/DxjidPP/0UjWQDBtK7Tx+qVCm+frywgtzMUApCJfVnZiiljmFuhZDbHdLcynd+jFcbSjVq1qSHHuqaIZtbt26lm2+60Xu+eMlSOvLII73feeUmN+vll19+SdVvvslBcTXvrx08+Anab7/98go0+1Q6ZDYpyuyPsOFh5imRyBK8KOEmCsvcDQFDIP8hkGOG0nvvvUd3NkufXbjmmmtoEH9wwgTLtypXqugtaXjzrbfp0EMPDVPP1HMzlDIFW0JPZiglhCjPKuRmhzTPgrKXJiyKoYSs9enTm8a/9prLZV6cWUfCcrNezpw5g7ryEm9Ih44dqXbtOu7e/uQsAjKbhLOQohg/yaTOZpWSQct0DYF9D4EcM5T8xs/CRW8wW9AxgYhro+qWW26hTp27eHpgu3viicHu9zXXliUsyxPRbuXKXecY48aNe5UW8rKInTt2UrVq1ejAAw+kb77ZThs2bqT316xxXi9ntqKTd2/ALXTCCdSs2Z3u+XPPPUs/8Przs84uQUhHkGxhFqRXXh7rnG6/vV6GvU5paWm0YsUKmjVrJn3xxRf0Jf+HFC9+Jl3CjHb1GzQINAIzu7zLj8EVV15JixcvphXL33F7h3755RcqyaeUly1XjmowpWq80VGENWHCBPrggw/o/ffX0EEHHUTnnluKLrjwAsImcPwWgeGJOH5kpsL58+a5x6DPvuiii0SFWt93Pz35JBvIjMnpZxSnunXrem5yA7wef7w//fP333TeeecTlrr4BfVjzuxZ7nGzO5tn2Ij+Du+Reuutt+jTTz+ldR+to6N4lBx5PrtECbenLWzj+tDnn6fvvttJZxQv7vKHPWwTxo935QYqelmalKhsXhw92luqU/zMM5PuXIHZERTkH3HaP/zwQzrqqKPo4osvIYxoX3vttYTZ1l9+/plKcllUr17dD48bYJgyeTKX2/v0+eef046dO6kIs3KhztWrX5/OP/98zw861AMHPO5+L+WN6t988427R7h4VyDYa+anqMf7PHPmTGalXEkf8DIuxIFwS3JHpl69enS82u/y0ktjXL0/4IADqd2DDwYu6UNnHRvmjzzyqEAmS2Ay7IWhLj2VKldhPC529/izadMmPnByMm3ctJG28H6SX3gf4+m857DkuedSkyZNqTDnXWTa1KmM6Vr3sx6Tw8Q7YgBlv2HDp0633YPtY+q7hBd2xRK3GTOm09oP1rowNjGDJcoAHb1S553H9bBm4NJh//uLPYr+Nqx5ixZh0XrPoxpKw4a9QM8OGeL8YXmzbk+9wPjmZ65vk3g5E96pT9evp+1cT4rz+12C36mg+iF+Z3EdWbNmNR3IbcWDjGGQ/M3vOt55tAulr77aUe7nRL0MSov/2RvMHPjAA23dY7TVbdqk3/v1Ev1O5n2RsObMmUPvMcOevDeo5yNHDOe9NZ8wW+HhdD3v9/3yy/TvScM77oi75E/ajKD3C7NmU6dOoXXr1tHatWtdPUV7ie+r/71H2rKqjko+o1xlNinq3iQYVhC8b1EEs0q2/C4KUqZjCOx7COSYoQRon312CHd20qmuu3Z7OLCTB73evR5zHXTcjxgxkv7vggtw6wQbZytWKO/u77rrbmp2Z7pRgwd+N9CLv7zbiIF7xYqVmNZ1m/sg4HeQaCY9xIMwy5cvT/36p3cm/X7AgnTffa3d4yHPPkeXX365p4KPY53atzqab++h7wbxjXnppQxGY6LOuC8Y76cfA6Th+eef89z1DfLVt1//QGMJHaJ2Dzzgdfi1P9yXKlWK+vTt563Vf+qpJ2nUyJF+tZjfIOS4955Wjojj8COOYDKNxdwJOCBGZz13Am6//Tb3TJeFVnq0e3eaMmWye/TW2+/QIYcc4u5R3gO4wzVjxgytHnOPeB/mulehYsWY5/ihMb/ttttc/kUJ/pYuXeZ+aj0/dfsLQ4cSDGwINsmPGDmKTj75ZPc7yh8YgWB1RDkGSVsuk+eee851VlCf+/TtG6OGzlXnTh1jnvl/tGv3IN12++3uMUhNrilztV8l5vettWtTx46dvGc//PADPfLIw6EMYMh3r9696dJLL3N+BvG+DRhLkJdffsXR/Lsfu//AqChb9lpvv8ys2XPoBB6w0IIy7dY1fWRftwl6tkHr63utD0MJaYdgQOSuu+/Wqt49zmq7uvRV7jfaH4QRVTbxIEz37o/EbWcwiNCz52MZsPC/v0FtmL/Mg9IV1VDq0KG9N7AxecrUwLqKAYPHevYIrZOIHwNTnbt0cXVepwdYA3PIu++t1k7ePYywclz+ELTnaNdzol56CYhzg71J2KMkkplZt2TfF4lrwOOPe98vlI0sART3u7nuDtlt5KIeywCfuMsVx0ygzYJg4OmRR7qLE82dO4c68UxZmEAf775e0ZFVdTQszqDnYihFXR6XzNI7xAdDKTtmq4LyYs8MAUNg70IgRw0l3WCHsbmBpKF8+etcpwkd5Sn8kdWzHv5GOsxQQidt5coVhA5u6atK07c7vnWjx8VOLEbb2Fja+uVWWr36PVda2MhcsFBBd1/g+ALeiHZWGEqXXpI+8o3OFkbBzzj9DPpt1y7Ssw51uVPuH22N1xmPV8U0PqIHHGvxh7Jw4SK0jmcotPE4YOAg7qSWFVV3xcxXjeo3e89uuOEG1+n9+5+/afbs2fTu7rOtLrzwIho2fLjTwyzSsjeX0R+//0Hz5s11z8466yzCKekibds+QOOYLEAMidFM/45ZIy16hBvPpzL9O9IvghknkEUgn+icPT5ggHP6559/6La6dTyjFLMIN954k6PqBd4rVyxnw+wNCYZnJZ90MzTeA74RzNGJ/fHHH10cGGGHMbdp02ceFb3o+eswZkWwlAmCejdmzEtJnauCsgG7lgjiRt08htm14CZEC+IeZCiN4PLAJn3EX4mNQcyGHnfcca6uyxIr+J85a5arD9iILmnGzBBmoCB6Ju+SSy51s7F4jvcTJCuih3pd9fqqdBiTs+B9k04x4p8+fYYbAFjFLHotWjSHd7r//jbUoGFDdy9/9Awynj3aoyehzmmBkQRjCeFqA7slz64gXtSRMteUobPOOtvNhM3m/L399lsuCNTDsWygoRx3cV0oc3X6LDTqyPQZMwNnuLTBGZQenTZ979/3g1m2smXLcftSiM/d+YYw8yqj3fA3Z+48Klgwve3Bb/3+hrVhuqMLP0ESxVDC7EGjO9LL4tRTT6XxE17PMHDh70ijzl108UWu44x2AjN5SDMEgyejRr8Yg2dmDaWcqJdBuAU9k7onbi1b3uVWAhx22GHyKPSamfdFAtOGElY9LH/nHYcx6MfBTIk2rEGD+k4d9R9tZZDoAUo9aKCXFcIfziXErPsO/la+PHasN7vcokVL0rOYWVVHg9Ia9ixZwydZfTOUwpC354aAIcCrHXJWbr/ttrSLLrzA/Wfa1wyRL1q0yHN/4YWhGdx5D8we96Gx7toNcXBnP42XEmUIAw+YstwLZ/Xq9wJ1KpS/zuk82O6BQHc8XLpkiRfOO++8E6PHI+Vp11epnMaMSDHP8YNHitOuvrq055dnfmJ0bqlV07ndeWezmOeJfvgxuOuulmlMqR7jbeaMGV68QeG3bn2v575gwfwYv8hT90ce8dyXLVsW475z507PbfiwYTFu+MFLyTx3NooyuOv6gTKcNGlSjM7GjRs9/1OnTPHc+Mwt7/n997V2+HqOu2+mT5/u6dxYrVoad2JiVARzqZ/vvvtujLv8ED2N3Zw5s72wUa48Iyfqka8oK4l77NiXMvjT2EGvQ/v2GXTYUEp7tPsjaagHfkF5SPivvPKK3zmtX98+njvKOUg0zgMHDkjz6/FMnxfGk0884YIAzlLXWzRvniHYJwYP9vwgfQ916RKjgzjE/8MPd4txQ1mPHjUqjQ2DmOfw0+ruu71wP/n4Y8+9V6/HvOdr1qzxnusbnvl0OoiXjSvtFPdevzu8lDONDfgYfWDRt88enFFWWvzvb7w2TPvz37Oh4eWxR49HPWfgwoelpqH8BVNg/vZbb3k6csPLdNOkDYQODzSIk3fF+964cSMvLl5u6LnhBuUldS7GQf1AWyg6Q4Y8o1zSb7OrXmaIKOQBcNB5RFqBCy+JzFDv/EFk5n2RMB7v39/DBXHyrKw4eVeN78cff+Q9lxuUt5Qh6pJ8Z3TZoh7wklXx4q48y5cm7Rzi/o7LWSSr6qiEF+XaqGH9tD783kYV6CarjzhMDAFDwBDwI5DjhhI+LvJR5FErf3rS2rd/0HPfuvXLDO66keZlTjHu2g1xhHWC4CknDCXE4+8o4ZnIwAEDvLzqDxHc5SOlO+PiL97Vj8G2bdsyqOPjCUMBGOEjqWXlihVemnhEUzt590irlKG/45rIUNIfbnQ+tPCZJF64kn/UBy26/vC+FeeEj7qkB/nB7zDRHQueHYtRkzgRFjMuxrjpH6InZYNOpsSPK6/11+qR7mGsSxjo/IcJzwp5ekGGUrz6xrNknt9+/fpmiCJRh1TjDIOW95ZkCAMdMTF20UET6dy5kxc3L6uSx+4qdVFwRRminoisX7/e8ztv3jx57K7x8ouOvWCqDX5tcCLPfvn22289f0Hufn35rd8dGL1hAtwkz0gf6r2I//2N14aJn6CrNpQEg7Dr4sUZDSCECUNP/MR7H3h20dNDvrTo900/1/epGkqp1Eudjnj3KLMhzzzj5VNwwUCYv05KOKmmSxtKYfWJZ2u9NMnAhMSP66pVqzz3V1/dMziiyzZoIA9+lyxZ7PnVg1JZVUcRR1SBEZOMIZMZQykZwypquk3PEDAE9n4EctxQ0h1pdKi06A9m0yZNtJN3rxvpeIYS7w3y/ATd5JShFBQ38rB27Qdp3bp19T5EesQbfqTTKJ3xoHCCnml8MLodJroDo0fMR44c4aUJszdhAnzRWfAbO7p8g2aUEF6vx3p6caDMRSZMGO+eI2yMniJ8dJp1ZxhGBJ43qF9PvDkspeOC9MeTjRs2eHH7R68Fc4QFoyJMRA9l8+HatV548JfZji1mRSQPYTOcSI8u3yBDKSjNmG3BiPGbb77pxfFA27YZVBMZSsibpBFlFSZ6AID3+jg1GKXiV89C6hlCPBcdPToudQFu6HwmEsygYkZPj+brTiL8SxmifvkNvjFj9sxO+t/LeHHzclov/Ynqwfjx6XUdedIz0bp8E7Vh8dISxVDCIMRPcep5MrNqqItSdro90e1MWHp1u+9/J+EnO+tlWJrCnjPxQZo2+iXPmGWXui5+U3lfEIY2lMKMWQwowFhDOjAwoQcYEAZmEyWNuk2T2Vb/oAT8iOiBFV4uLY9j2qBU6qgXYIQbGDHZaSghbDOUIhSEqRgC+yACObpHSVY6gvwAJAiQiRMneUxxeqM11uHrfRLiV6+PjkfmUI034Hbv/qh4y3CNQg+e6h4lRAoyhRXLl9OiRQuZbWtdzP4EnaixL78cw9ATtg9G+wm61/iACek+ZpoLEuxjwX4WyLx58z2WMr2nAPsW/GQLEhb2m0GwZ0RIDvCbO3oJD5zVBBh6j9Q9rVq5fSV38xX7Omrfms40iH0P2OuB9f5XXpFOlnHPPfdS4yZNECWzr+2h8PUTajgF9YeNLrr8skvdE/8eH8EcZATz5i9QvmJvRQ95h4AFCvIcs+YJgYF7kMQfTWCy7M23mNUqfP9DGSZfQJz+9Et0PCPC+3gWcb1b4ZjzhMlO3HEty/vSgL0WTYwQdOCsfj+Rd7C4BYnUDbjJ+82dYbquXFmnXq9efQIpBWQ0H9LJI+EOtyHPPsusfte4vLW+7z66445GTkfqBfZpDBmSTpThHHb/AQEI9setXLHSsRxKeWgdTWCB53o/2TPPDCGwQ4pI+WLPzYu8zyyq9Hi0O03mPTuQREcasDFMzXYfxgxWT2HV1O9vojYsXrr0HiXkoxKfW4d9Px9/9BHXjTc8r3379gskNoFC1euruH0qePfwDsaT4cOHEc+4OJXXXhtPYHuE6PYkGTIH53n3n+yslzqeZO5BdvM0E9jw4IPnzX/OUirvCwLVe5TCiDagp/d1Ys8o9o5CUN5y0Dv2/GGvnYh82/AbezKDhI0uby9i1ao3UA8+CxGSVXU0KM6wZ0LhnR1kDtlJPR6WH3tuCBgCew8CuWIo6Q3C6BQ3bdrMISYbs/Ej7PBD3UjHM5TiMVoh/JwwlL5no6Ft2zaOchVx+gWdTenUZYeh5MdHx687NtpQwuZubPJORnQHKIqhpBnFQDPevkMHAm15We4kQ155dRxvyj/LI20QRifduYTO2Wef7fTB6gdqb4h0zN2PkD/SSfB3hKWDnKhjKHo6+LBDPbVOvPu7777Lbdb2G55BfuIZSmADBCtgkIC8QIymzBhKelN4UPhBz8a8NJYp5c91Ts2b3+mIQGCAT5yUblA05M3ooCWWM2qkYy1EGbqzJzoSDzpy6EyCPjtIYPCivYD4DaWf2XArt9tw00xgmnWx28MP0803Vw8KOvBZkyaN3ZEDUcpQH2TaqHFjuvfe1i5M3b4lasMCE7H7oTaU/HUT9PmtWu1h+3udB6tOYzp1Ldq/7iRrHX2vjQJNMy7lCV3dTmi/PEuYgfVOuycylFKtlzquZO816Qf8duEzl2rWrOWCSTVd2lCKN3jCy6uZma+ai1MzVIJgB6yGkDADyjlG+KPPPsyqOhohWk9FDKWoFN7JkDlI2FGpx71E2Y0hYAjsEwjkiqGkO8rSacLZRlX5XAiIf/RLl4RupP2GQDw3HQbukzGUNLuaPxycUdS2TfqsjX82QzqG8INO6vVVqzIV8zV0Mp/JAyYysHg93K2rCzKvGEqt773HGyUFhXsiAW1slSpVPLUohhKUH2ADEiPbwGXmrNnESyEdLTZ+z5g5yzEd9mPqa3SChZ4ZxhCMInSA5/IsmLAhyqwEwsUMAAygeHLxRRc6Z7+xIAaQdNLDwhA9dIghYuwmw47mDztqJxszlMKk6J9R0ixmCB+dmwrMUnYe41H0xBPduT1iJPrzDv1EHVIwNcoZZrfzmWEyawC/QbLffkTXXVfenQMF91d41tSdl8P305gRD+dwValcyXmdOm06M9cVc1TV0rnDTCXOwcIACsQ/qq7Tg7IAyx/e1TPZyC7ELHO894duvimd2tlvKCE8zWYmM0CDBjGV+Zh0KnPEL2UM/UQiM1/QC5qR0/61QabTlkwbpsPz32tDx28oQRczX5gBg+D9GjZseAxbHYzQyy69xLljpuQJZliLJ2BkRP2B6LYsiqGkZxuFHlzHld31UseVmXttkIClUs5b0/UzM++LNpSW82ypnGsWlEYZZER9XbhwkXu32tx/Hy1ZsoTwjYUxLO2lbkPQlrbi2flEgnMG0S5CsqqOJorT7w5mOkiUWaVkDKVkwvWnyX4bAobAPoBAbi03BNuTrJ3GPgC9L0Cv2fenT6/hj7dHye/mD4c75l78q0NY72TDtd4P4w9HkwvodGOPhOSPDakMa8cRDhjKREfvyYCb7KFIZY9SPAzAOCdxayIJvR9AyBKQnqgSZY8SwtLsaNgM3vWhLi49A5lJTUQzCmIfA8oBaQZrmJZFiinRT9Cg9XDPH3kv308+mc7KJjpRMdd67733rhce0jZv7lwJLqmr3suBvIaJJrzw71HSeyewd8ov2IsjZY466Rdd9v69DtDV70zYBnZ/mPq33vSP8p88eZJLj97ngD0zkkbsWeKDMt1vMHb5BfsroIs9GkGYrVm92gsriDhGb3RHfoCPhIl9dMkKd2y9+IIYPXV42ECv8ylu8do30Yly1XuUNOud+AXphmZZ9LNLQk/quZ+gQcLQV513zbLZu3cvL59+Eg/xr8k6MrNHKdV6KenI7BXvitQbXEVSTZfeo+TfRydxyHXWrFkeznhvNOFOUN3H+4T6F/ReSZhh16yqo2Hhhz2fNPF1t08J10QCnah62J8URTdRnOZuCBgC+ROBHCdzEBhXrFjuNexgE9JMWXrzvujLNV4jHc9N/MtVf8TAVhUk0pHAxy8sTbpzqg0lHX5Y512ICfDByiuGEmiDpQOnmY6C8Al6pg0lMCuFiWYWw4dcOhqakvs33pQvaZk0caJ3D1ICLbwnxnNLZFhqw3batGk6GK9jmCgM6UCKHjZaSzpxheGWrGjDNR7umgTAbyhJusI6th999JGXzkSGEs9IZMgCBjQknyAiyYxIBw1pl/rvPwag8W66aXS+pV3gA41jotMGb5hRA4p1SW9QZxEdXBkMAbmFNswzw1w48fXXvfji1X1kBEcOSNpAECCSTBsmfoKuiQwl+NHvDd4/PWACd922gV0tTEBiIBTUmukQ+mDLk3yGUeZr3BIZStlVL8PyFuU5jE5pv7Thker7koyhBAINwRnvpm7n+MDbDNnA+y/6fmrwDMq+B1lVR33BRvoJowb//d/LSJ59SghDwvM52U9DwBAwBDwEcs1QQidFPq7C2oOG298h8lK6+yZeIx3PzR+OpnTG+TpB0rNHD+9jEjRTgM6UfGxw1YYS6IjFzT8Dgrg0lTD0/A2/dHqlMx6UvqBnUTHQHXPdQeJDJL104+OPDmmQwHDEeUx+waix5BtMUPFEZoikHiA+v0Eq7Ey6jvjZpVCXpHONuMPKE/mUuHCFIaYlKuZBejBuJN+4+o05HU/Q/QcffOD5D5shgXEpHTLE4TeUxAiBm39GAxihLkkagwwlmb2BThA1P0a1dRyYkQkTDIQEnWGG9xvh63z4meWEeVGXOWaHtOgRc6QJ+dOCeqvjCDKUoK/ZBoXlTc9w6TAT3SNNOs5NmzYFetEzWf5yiPr+BgasHkYxlKAOSmmpE5jV1YL2TNyACc7eCRIYuqLnx1nPdAS1g5h9kncSYQQZSjlRL4PyhWeYaQProv/MNa2vz6XTRnuq70syhhLSg7iBIeqgnOflP5NM0q3TjDbW3+6KHmZq/Yx7WVVHJY5krpj5ySrjRpj0/N/eZNJjuoaAIZD/Ecg1QwnQSqdJPrK4xqOkhp94jXQ8N/jVokdT0QmA4YKOqDZ29KwXPj5YnrOLR+7wcccBo7pThLRrvxil0/nCjAjSh6VFenZEdPyNdVBnXKc/7D4qBmGGEsIdyMvfJF3oxMBIRLjojG7dutXhIOkLSofGBbNp6LRiOYh/NFgvPUR8QYYVaJ0lLbgG0VojDXqpI/QwG4EyRgcAaV+4cEFMhyzI8JU8JTJOw/Q0HTXSEDZTGYQZnulZBsx0wD+MQnRWsFRLdygRvt9QQqcIz/EfszUwLtDB27Dh05hlVnD3d9ARvx7ZB3U03sXNXI8xEyXinz2DUYOzulA3YCggzTJTFLT8Ty+HQzpgDGFEXoseiYcO6lNQR07XM3T4kVbghfdQG1kIw9+Bl/j0zCb08D8e9bn4C7vCr4SDK2YAsVwS+AAnvcQY7niftER9f7WfoPuohhIGC3S90m0YwkUdk/wAU8y6gTYaRgDqh15CjffCv0RML6VEOFgOjPYA9RL02fIuSRxBhlJO1MsgDPFMZiWBEeoY2jG07fiPut6Laasl7bj68UvlfUnWUNKDLZKmsMEM1EeZrYUuBq1Wr37PDR6hbFC2mJXCO+Y/ZiKr6mgY5omea2PJ/91M5Bfu8CPGli25i4KY6RgC+zYCuULmIFu/Nm7cQHVq15afjh4bG4HjCX9kCRvSIamQOWBDa4P69TPQdRcrdhJNnTbNS4JskvUe+G7qMdUxf0zdUz+ZQ+dOHQmsSEGCTbdVmdxhwvjxzllvgMYDIQxIRCzgDzsePlp3uKLz1ax30AEL1f28Efj9NWu0l8D7ICYr0D2DYMEvs+fMdZvs5Tkodm+rW0d+0sBBg5ke+lrvN262bNlCtWrW8J6F0cZDIR7jmxcA3zRncoAWLVrqR+4+Kubx9J568kkaNWqkF/aIESPdZnnvQZybbdu20p3NmnnMdEGqnTp1pieefCKQHnzDhg1Ut86e98nvH+xuby5b5jZjB5E58LJJqlypot8baSYtOPbp09vRa2dQ9D148cUxVOq882KecgeNypa91iPAqF+/AbVp2zZGB+8m0oG6DAmjyZ448XV6bDdlcUwAu380atTYKwtNmODXbcdU5aDvF3lj8RKPgEKeRb0i7X379vHe6zB/eP97PNqDypYrF6MS9f2N8RTwIxGZg/aiWUjR/o2fMIEOOeQQp8KdYiZZaU+rmc48noBium+//oFU0zwoQ88OGRLqHax/o0amvzNBZA45US/DEqdJKsJ05HnXrt2oeo09bZU8z+z7woM99PLLY10wicgcoMRdGddW8l5A5wdlOWXqVI/EwT1Uf0Aocs89rbz3TDnF3PrJPLKqjsZEkuQPYaqDt6hMeNDNrD/4NTEEDIF9E4FcNZQAOTp26OBBOnbs5Dpl7kfIH00lq8/Sgbp28xtRQcHxjINjWsNV5JxzSjrWJvnNI7M0ePCgDB1DdAzub9OWeDiczypKp/Z9/vmhdMml6Wf0wD/PPBEvG8ngF3F07NSJeJmbY96C7qvjXnOU2LiH1Lv9dmfEhZ0dk66V8W9UDHj2w+ULISxglqRjjz02JjB0aNHhHzVqlNep1QrovDZo0IDOPPMs/djdg+objFpgFtTiN8jwYa9UsYL3oQ6jwJXzXBCW39jS4eMemKJjsvydd/xOjg0PVOTnnXd+Bjc8EMwTGafx9JCnnj0e9c7TQbhTpk6jk5g1Koqg/Ho99hifbTU3Rh31rUHDhnT99VXpissvc263M/PcA+3axeiB+rlXr14Eo0sEnfIbq93odMEyh45O+fLlqV//x0XFu4KJsGvXh2LKHAbHva3T67goQo/JHwKNOpzj0oTPCLqSzyYSpi3xh6tmQhv6wjC6+OKLtbO779mzB/HMq7tHB7xChQoZdID1uHHjCGeCCfMglMCceOedzekyxukmrqcQP7W4e7j7D4wkGEuQ6tWrUxS2x91eQy8oh37MAiedVq0I7B9s3yFm0EDco76/oh925Zkdr54IBX+YLnBs0aK5o26HDs64wgCQCIw/ntkl3m/kvavihrpV+9ba1KJlS8eqKM/1FeHDqEW91gLGtXo8WFWzZi2PHrxly7vozubNtZq7z4l6mSFSfgA6/REjhtNCbsvw3gRJFWZrrVXrFrroovTzi4J0MvO+6EGXKIYS4tXtur8cg9IFmvz+/fu7s+j87ijbevXqufI9vkABzzmr6qgXYCZv5Pwj8Y7v6s27DVXcQ6DDM9TufsrkSe6KP8kYV54nuzEEDIF9EoFcN5RyG3UYBF999RVt3/41nXhiMf5/YmDnDgbT5zy7wRtjqcQ55zh676hpx8foiy+/oN9+20UlS5ako48+OqrXPKHHy5OIlzU5etoiRQpzB++E0E6RTjD88dIizu9RdPrpZ4QeXqv9ZNU9L9UinFWzc+cOV1annHJqpDRnVfyphsPLX2gzG/A/ct0pyfXt6GOOcUHq83dg9KET7BfUaZyt8hX/L1CwIBUvXjyG+tmv7/+Nuo540CGCgQYq+zCBDtLJS96ocJEiVPiEE5Ki1A4LN5nnkl7UN6S3aNGiyXj3Dr2Fp1G7DzdOKoA4ysAFs6Iw5IAP2pf9998/jo+87cTL7lw7iFSedPLJVEB1oBOlHPVyK9erbdzensx+8T8ZkXLOjXoJY49ZQOlrTjsGgo448ggqWLCQM3ZxREJUyQvvS1BapWy2cpuB7xMGGwpy27E31FUYQ1MmTcqwOsSfTxhHkOo1avqd7LchYAgYAqEI7POGUigy5mAI5EEEcPYWzv+BPPHEk4RlMSaZRwAdRJllg5E1fsLrmQ/MfBoChkCuISCzR1hSKIJBTcg5PEAps0ziZldDwBAwBKIgYIZSFJRMxxDIAwhgRP3Gajd4S4DmzJ3nRn3zQNL22iRowzNsj8lemzlLuCFgCBgChoAhYAikhIAZSinBZ54NgaxDAOQf551/PlXj/UT+5ZlY+sgHh3oEG2F7ObIuNfk/JCxPrMtkIlgWh/0yM2bO2quWZ+b/ErIcGgKGgCFgCBgCuYuAGUq5i7/Fbgh4CAhJBB6czwbTGWcUp3/++dvtceEzuzw9sFm9xmyJyeyN8Dzv4zebNm6kAQMH0EEHHUTLli710BgwcBCz8ZX1ftuNIWAIGAKGgCFgCBgCZihZHTAE8ggCfprqoGQ1vOMOx+h2+OGHBznbswQIwOBs2GAPoxvUo7CDJQjWnA0BQ8AQMAQMAUMgHyJghlI+LFTL0t6LwKZNm+jtt9+ib7Z/Q9/u+NYxDZ526ml0yqmnOsbEU045Ze/NXB5I+TffbKenn3rasfSdetqpVLlyFTr77LPzQMosCYaAIWAIGAKGgCGQ1xAwQymvlYilxxAwBAwBQ8AQMAQMAUPAEDAEch0BM5RyvQgsAYaAIWAIGAKGgCFgCBgChoAhkNcQMEMpr5WIpccQMAQMAUPAEDAEDAFDwBAwBHIdATOUcr0ILAGGgCFgCBgChoAhYAgYAoaAIZDXEDBDKa+ViKXHEDAEDAFDwBAwBAwBQ8AQMARyHQEzlHK9CCwBhoAhYAgYAoaAIWAIGAKGgCGQ1xAwQymvlYilxxAwBAwBQ8AQMAQMAUPAEDAEch0BM5RyvQgsAYaAIWAIGAKGgCFgCBgChoAhkNcQyPOGUloa0Vvrf6bVW36l9dt20Rc7/6Tvf/2Hfv/rX4flYQcfQMcfeSCdUvAQKlHscLrwtCPpqhJH03775TWoLT2GgCFgCBgChoAhYAgYAoaAIbC3IJBnDaV1X/5Gk1d8R3PWfE+7/vovKTwPP3h/qnzB8VT9sgJU6uQjkvJryoaAIWAIGAKGgCFgCBgChoAhYAjkOUNp0/Y/6IUFX9P8D37wSgfGzuVnHeWMntMKHUqFjjmIYAxBYETt+Olv2rLjD4JxtXzDL+4qniv87zi6s3xRKl7kUHlkV0PAEDAEDAFDwBAwBAwBQ8AQMATiIpCnDKWRi7bTM7O/cgk+YP/9qG7pQnTTpQWpeOHkjJxN3/xBU1fupFff3EH//sdr91haVTmRGpcr4u7tjyFgCBgChoAhYAgYAoaAIWAIGALxEMgThtKff/9H3cZ9TgvWps8i1by8IDWvUJQKHn1QvLQndNv58980dP7XNHH5Tqdb/vzj6NE6p9IhB6XPRiUMwBQMAUPAEDAEDAFDwBAwBAwBQ2CfRCDXDaXvf/2bHhj9Ga394jc67ogDqUutU6hsqWOztDDeWPcjPfb6F/TDb//Q+accQQPuOIMJIFIzwrI0gRaYIWAIGAKGgCFgCBgChoAhYAjkKQRy1VDCTFLLoRuckVTixMOpd73THXtddiAEtrxOYzfT+q92OWPpueZn2cxSdgBtYRoChoAhYAgYAoaAIWAIGAL5AIFcNZQ6vLTZLbeDkfRU0zMdzXd2Ygpa8XuHb3TGEpbh9a1/enZGZ2EbAoaAIWAIGAKGgCFgCBgChsBeikCuGUpC3IDldsPvLpFtM0n+csHMUtMh690yPCN48KNjvw0BQ8AQMAQMAUPAEDAEDAFDAAjkiqEECvA6gz5yJfB4wzOyfE9SoqLFnqV2L37m1Ma1OdeowxMBlgn3P/74g1599RXn86qrStPZZ5+ddCi///477dixg0455ZSk/eaUh507d/LhxvtRgQIFcirKHI1Hl+Oll1xKpc47L0fjt8jCEdBlk9l3LDx0czEEDAFDwBAwBAyBXDGUOvJeIZyTBHa7zjVzpxPca+IXjg0P5yz14b1RWS3ff/cdrV6zxgV76SWX0NHHHJMwijVrVtN3331Phx12GF111VUJ9fOywvfff08VK5R3Sbzrrrup2Z13JpVcGEg1a9agXb/9Ro0aNaZ7W7dOyn9OKC9bupTuuy89XYOfeILKlLkmJ6LN0ThSLcccTew+FlkqZfPmm28SDK1zzz2XihYtuo8hZ9ndWxHYtHEjbfn88wzJ57EqKnB8ASp64olUsGBB2n9/Y7bNAFLIg7/++ove4vZgy+db6OuvvqJdu36nY489lo459hg644wz6IorrqTDDz88xLc9NgTyPwI5bijhUNg7nl5POCdpRqfzkqIAn/Hu97SIZ4MQxs5f/nGlU/CoA91BtOWYKe+Gi4+PXGKgDr+h94funKXR95RwYUT2HEFxxYoVdFfLFk7zsV69qUqVKgl9odONzvfhRxxBS5cuS6iflxVS6cQhX/Pnz6cO7R90WSxW7CSaOm1anstuv759ady4V1266tSpS+07dMhzaUw1QamWY6rxm/9wBFIpm6rXV6FvvvmGHmzfgerWrRseibkYAnkIgeeff46GPv983BSdeuqpbmDt2mvLmsEUB6n//vuPXhozhsaMeZHQloTJjTfdRI880j3M2Z4bAvkegRw3lEDTPWnFTqpX5gRqU+2kSAC//enPNHjGNtq0/fe4+sWLHEb331CMrjz76Lh64jho+lYau/RbqnFZQUdLLs+z4pqfDSU0sG+//TYtXDCfLr3s8kAjMJVOHPD/9ddfqVnTJrRhwwbq8tBDPLtUKyuKJUvD+PDDtdTm/vtdmIMGD6bzzjs/U+F//PHHtICx/O/f/6j1ffdlKozs8pRqOWZXuqKEu337dja459HKlStp0KDB+a7TlErZ7CuG0m88I/3GG2+4tqp16/vo1NNOi1J1TCePIhDFUJKkZ2Ylg/jN7muUb2h2piEtLY369+vnDfQhLgzQFuMZuX///Zc++yx9awKem6EEFEz2ZQRy1FDid5Ou7baGdv31H41ry3uDCh+aEPvJK76jnq9nnGqP5/GhWqdS9csS7xnZ9A3vlRr4ER1+8P60+NELeK9JvFCTc8vPhtJ3vKywUsUKDpBWre6hJk2bZgAnlU6cDgzLAg4++GD9KE/d46MCOeCAAzKdrpo1qtPnvJzk0ksvo+cSjJZmOpJMesyqcsxk9Cl569+vL++TS5/xW7nqXTOUFJr7iqG0YMECav9gO5fz4SNG0AUXXKhQsNu9DQFtKL045iU6kTv2EAysbdu6lcaPf80ZxpKvESNG0v9dcIH8zDPXKN/Q7EzsnDlzqHOnji4KGEg9evSkq6++mg488ED3DIYUvkmvjRvHq27+pU6dOmdncixsQyBPI5CjhtKbn/xM943c6Ja5YblbIsFMEui8MyOgG48ys4RlgFjK90TjM6n0OdFmoqKkxwyl1PYoRcE4v+iYoZQ9JWmGUjiuZiiFY2MueRcBbShNnzEzcH+dXhLdqDHvb703fR9pXspVbhtKjzzyME2bOtVBMmr0i3T++ZlbDZGXMLW0GALZhUCOGkpPz/6KRi3aTk2uK0J3V04fCYqXsTqDPk643C7MP5bhjWtTMszZez5kzlc0YuF2alSuCN1TJXGaPI8JbsxQMkMpQRXxnM1Q8qDI0hszlMLhNEMpHBtzybsIRDGUQARUpXIll4m8OEuPhOW2oSTvP2aTlixZ6phb826pW8oMgdxFIEcNJcwOYZZowB3F6dpz47PAgbjh4de2pIRO99qnJSR4WPzRT/TA6E1u9gmzUFkl2WEobdu2jV6fMIHee+9d2sRriI868kg6/3//o5LnlKTrypcPpNHGWuiZM2fSqlUr6YP336cdTGeN0SP4qVevHh2fBK01lrGsWP4O/fjTTzR/3jwHFVhxLrroIg+2Nm0foEMPPdRtDvWz3i1duoTeeecdenfVKvr555/ptNNPp9KlS/Nm8tsyLF0D290TTwx24V7Dm3Kh55e1a9fS669PoE94j882ZuspUriwo68Gk1fVqjfQkYxPPPnhhx/ouWeHOJXTzyged1M74po+LX0EruoN1ej//u//6JNPPqZJEyc6//UbNKSTTz7Ziw5LG957dxXn60Bq9+CDtGnTJho5Yjj7+YRZDQ+ne+69l95YtNDpT+AyheCjVfX66909/txya20666yz6JdffqGnn3rSPa9QsaJboucpqZvFixcze1E6CUj7Dh0zYPrnn3/SXE7XMtbZ+uVW+uLLL+i4Y4+j4sXPoIqVKtH111fN8MFMZemdxqfhHY0chfqcObNd+WOPG3AoeW5JuuWWW0LzJNn78ssvaerUKbRu3TpCWaCsS5YsSagbFSqkLwOFLvI4cMDjzttSJkYBYQGkevXq3rIS7Ks79JBDmDBliXNr0PAOOumkjPsl8Q4v4D1OkJbM3Hjccce5e/1n0MCBzB73O53D71ONmjW1k1vrP2PGdFr7wVrea/epe2eRbuiCZr0m6wctK9V1v1y56+hiZs0EacjChQtp546dVK1aNWreokXgO6YTsGvXLq7fzzImf7jH15WvQJdffrm7l45SEJkDlpMuWrSIZkyf5pbfoM0ozu850lyqVCn3bul4ot5L+/Hhh+tc3fu///0fXXDhBVSjRk36it9feb+at2iZgW4/2bo7YvhwLvvttIFZ0t7fzT56+RVX0Mm7y7nQCSdQs2YZmTjRNi1cuMDVsc1btrh8n8P17Oabq7v6Jnn94osvaOxLY9zPa8uWC2QpxR45vPMQaTPcD/UH7Qfek0MOOZTaPvCA55JMfnU7djIfpVC/fgMvHP8NMAE2kCv52IayZcu6+6h/Nm/eTLNnzaKNGzcQ9lb+wkve8D0568yzqFLlyq5+BIWVqD0cwO9RkSJFgrzGPItiKP3zzz90+WWXOn9418a+/HJMGPID9Twz7+dHH31EUyZPcsE0adqMCvM7HSQvjh5N27Zt5bblZGrQsKFTkXcgyjdUhxm1/dN+4t3fekstbx/SwkVv0DERWHmDwks2Xf5vAtj0RvKS2BUrlhOW2VevUcMtoURcaPuuuPLKoGjds+nT0ba+7+5btLyLjj/+eE83M/2erKqjXiLsJt8gkKOG0s1919G27/+k19uVolMLHRIXRJxzhPOOUpGyzISHc5riyec7/qRaj6+jYscfQlM6lIqnmpRbVhtKM2fOoK5MahAmnTp3cR1O7Y4PKKbYwaQXJGhYevXunbCTKn6f4s76qJEj5WfgdfacuVSoUKEMnTiseX7uuWcD/aAj+Oyzz8V07ON10BFWn969SAyMoEBfe208FT8zvuGLxrRypYoe48/SZW+G0qBiPTcaUsjkKVOdUbSIDZ12uzs3Q18YRhdffLGXlAGPP04vvzzW069+802eG246d+5MvXr1innm/9G3bz+CYbSV197ffNONzrlDx45Uu3Ydv6r7/SRTlI8ePcrdv/nW285gFUV0cBo2bODo1uWZ/4oPU39ON86FEolXDqITdtX4PPnU0/QKd1jefvutQPWgDrsozp07hzpxvsMEm407duzk8ovN+9eUuTpM1T2/tXZtuvLKq6htm3QijrC4UbbIA6R3nz5UqVJldy9/0Am66cb0crnnnnupcZMm4kSgMe7e/RFn2HkPfTcYZOjZ8zEqcc45MS5+zH/igQmpS1CsWLES9WHGRb+epuBHp6NtmzYe3njHnnzyKa9OIH3oUMJg0B0M7PW4+66WoemGMZ8sIydoyLEcasqUyTH5lB9gKYOhPuyFF9yj18ZPYOO9uDhTZupuwwb1Q/OAgP1MmsAC7RM6bWHyQLt2dPvt9Zwz2tYK5a9z9zA2BgwclMEbjFvkG3LLrbcG7vPAYBLKEUbckCHp7WOy+UU7Vu2Gqt6gwBuLl9BRRx2VIT14gPw9/fRTzm0It7liOAcqq4fABwxp+AbEExjwTZo0pYMOOihGLVF7GKW9RoBRDCUYcXX4HYdU4/eze/dH3b3+k8r7iQ76w926uuBeHfeaG8zSYct9vdtvd0YwDEksb4Mk8w2VcJJp/8RPouuj3bt77yPqb99+/b2BpER+xT0z6dLfBNQ/fLNgPIm04EESlDEEbdbQoeltgrjLFUYuZg3x7sBQxTJMoYTPbL8nq+qopNGu+QeBHDWUynR9n37/619a0uMCR6AQD8brH1tLO5jCOxUpdPRBNKvL+XGDALHENV3X0GEHH0BLe/xfXN1kHLPSUFrPsxC3336bix4dlYY8e1H8zOL0808/06effupGm/2GEjpKdevUdiPC8IgNrVV5xuAwHsFZuXKFtz4Z4U2fPiPSiBJmkTAb8cfvf9C8eXNdejDjgRFXkbY8o3T00UfHdOLEDZ2TWjySVbhwEfqIZwbGjn1JnOhR3kx6ww03eL/jdQJfe20c9eWOKwSdrLq33ebOzsCSi5UrVrrObdQPL6hmpWEWw8RLxO4bzOiUvfYa90t3aHSjH89Qgp/lPJOG0XjMXICFrWvXrrSQR+0hGGXELAI6rKV5Q60IZlrApJcVhhLO6Gq6uyMPgwizbiedfJKbWXrmmaclSmcoXXddee93vHLwlEJuND6igqUwmAE6+JCDaRHPkCxZskScSIxs7wHf+AcIcKbW2SVK8EHE39LLY8d6nUN8YNFJQ6e8T5/eLgjMoGJDMgTGlMglfHDuddddR2WuLu0eYbYShpwWhFP6qj2jmZhR6Pbww1rFdTTQ4YC88uo471BlXV5wQ0epLM86FOQBhG95hgvlrTsHc+bOc/UXuhCNOfDC+4r3tDTPAHzL+cYBzKDr1Xqa4Qsd586dOnnvKOJHJxxhJBIQHyB9ENTbG3j29BAmU9n21TaeXZtPmGVJ1lBqc/99XjkjDbV5phTt148//khTp0xxzJY6XX5DKTN194WhQ12aMXO6evV7LngYxwULFXT3OHNHn83W49HuNHlyuiGHjlcdpkwvUqQoj7pv8gw4eATZCsoE0oxJbCTsd5avyGAcNG9+p5s9hS7CnDlrNm49+ZyxxFlxED0Akpn8Dh8+jIY884wLq/ujPdyso/uh/mCA6WZ+D2Dg+zuXSi3wtjcGpsaP99xAKY+BqP343yfrP4lxCzr3TndCg9rDYcOGR2IkTGQoIY/3c32TwcFevftQZZ7p0pLq+5mKoZTMNxRpTrb90/mMd48VDrVvvcVTwXe8a9dukQ8Uz2y69DdB6gH6BVihsW7dh3RHo0bcrk7xZoFnzZ5DJ/Bgjl+WL1/uBnTwXA9SpdLvyao66k+r/c4HCHDDkmNycft30/A/ilzS4T2nK34yc0UYUUTCjqIbVYdf5LSLLrzA/Z81a1Ykb61b3+v0r766dIz+8GHDvLB42V2MG3789OOPabwsL+b5mBdf9PwMHDggjUdgYtx5dNdz51GdGLdEP3bu3On5RdqChNdgezrA4c47m6XxcrsYVV6G5ek0qF8vxk37505PjFuL5s2dP+DEo+0xbvjBy2LSeGQ8w/OgB9CVcuIZhiCVNO7MeTrz5s3zdHiJjvd81apV3nPcPN6/v+eG8F96aUyMu/5Ro/rNThf5ChJe3uCFxaPUQSru2RODB3t6v//+e4wed+jSGjdulMaGdcxz/IBbGAbxyiFDQL4HGh+Ez6OpMfWQO/RpPXv08OL2lzMbqGk8au/cUdZbNm+OiQH16ZZaNT3/33G91NKvbx/PzV//oSfvG9LGhpH2mrZ0yRLPL9yRDqRXS4f27Z2O302Hy4Z4Go/Ga29p/DFPY0PfC//R7o/EuGvMETfqBy8hjNHBD62nsdNh337bbRneuwwB7X4ADBAf/t91V8uYshI/H3/8kdxGuq5ZvdoLs07tW9N4iV2MP15ilvbww908HcS9cePGGJ3M1l0EwuexeWEjnCBZu/YDTyeondq4YYPnjnZK6gGfP+M997fLbAR6boKpv/5OmDDe00E7JJKZ/G7f/rUXFsouSD74YE8+eWYpSCXwmcYHdZE72Rn01q1b572ryK/OD5STaQ8zBK4e8DjH2cEAAB4vSURBVKyfl09dl3gmOW3NmjWu3greaO8SvfeZeT+nTZvmpSGoPZXk4t1DWu5o2EAeedco39BU2z8vspCb2bP3fH8FM3wDN2zI+I3QQaSSLv83oX37B9PQBmjR31seDNNO3n23bl29Mvj222+956n0e7KqjnqJsZt8gwDlZE6SMUjMUNpTMmGNwh6N2Dt0IKXhQ2P9999/xyrwL3zspSFHRy8ZidLI604c0uL/cCI+fMTESPAbh9q/7gTCn3Seb6xWDT9TFp5p8fCC0ekXdJ6QB6RRN+q60Y9nKIV1XCQewSA7DSVgLR08iVdf0YlFHpEWLfHKQesF3Wt8YND4DQb4QWdH6mrnzp1igkEnRtx49inGTX4sWbLY08EHVksiQ2ni6697fjGwoUUMOG2I6Q4E8oL6gPTBMBFZuWKFF2a8csc7ifor+fv6668liBgDCO7oAAZJUNk8/9xzXphIOzrsUUUPGvTq9VhUb3H1ZFAD+UBnOkjQyb2+SmUv3X5DKbN1F3FFMZT0+6/LQad18OBBXvqkLeOzZrxn6MBrweAY8qzzNf6117RK2gNt2zod/zuX2fxqA51n12Piwg9tQOvOZQZF3wONT1hdhBdtQPR6rGdMKLoTGu+9iPEU8EMbSvLuBF3vv6914GBZVryfOp/ZaSil2v4FwJfhEe/vjRlsEiwxeIPvfJCkki79TUD7+VvAgCYGOSUd6KP4BX7EHe+QSKr9nqyqo5Ieu+YfBHLUULr6oTVului3P2NnN4LgrNLzg5RnlBBGIkFaYMAhbVkp2TWjhBGfoM68Tjs+ZtKQYNQyTAYOGODp+WcgwvzgebKG0r33tAoNrvsjj3hp0I1mUCdQAtGdLxhRQYag6Ea58lIKLw2TJ0+K8YKZOsHyySdjZ950ox/PUFq8+I2YMP0/csJQ8seJ3+jso2OItIuhhLxqiVcOWi/oXuODkb4wEcPXP/La6u67Hfb4oKLzGCR65N7fWU1kKOlReF22iEuMIHS05V6PbqLTL/XizTff9JLGG7i95/E6lfAwfvyeGQUmOfHC0JijXMJE6+E94DNPvLhRp8I6OmHhYaZL8oQrjNBUBDhKeGGDABK+7qT4DSXR0dcodRf6iQwlhCNpxAxhmPChtZ6eNqrF2PXPiMtsIwwsdNoRh56xRpsl8WKmNZFEye+iRYu8MP0zzxjgkXqsO5eJ4tVliPcxniCNYe+yLt9E7WG8OKIYSm+/9VZoEFnxfuaUoZRq+xcKgs8B5YZBJik7qZf47f+uwWsq6dLfhIG80iVMdL/APxM7c8YMr54vW7bMCyLVfk9W1VEvQXaTbxDI0T1K+yqZQ4+ePSMxRd13X2u3thrr+PU+AOy9wVp27GOBwB2MWbVq3RLIdIfzEUDiILpg2goSffr2xImTIq0RRzjcQUvqwFmwMLVp2zYoCUziMMTbAzBv3nyPhe973qTpZ82TALhjSq3vvUd+uo3ZderWoRur3UhHZ4K9B7iW2U0A4KeTHTVqJD31ZPoG5kmTp8Tgrddbx9ujJOQPXoJ9N4nowfWaer2XwReM2xgbRuYAXey74Y6j2+D/MTM3yf4dfzjvvrfaexSvHDylkBuNz2DetFumTPo+L7+6bLzHfrOJk/Zs+JeN7tAH8UGQcEfOyweYDvGuiUShB5cN1wh//ITXnVew6jW6o6G7BynGI7w3CXvysMfl6d37QIAzNiJD3nr7HWYtO8Td670ufkINp6D+8BIrt88Fj/QeQ4152GZ0+NF6xXidP/aeQLD/ZOSo0e7qHiTxB3UddV4Eexvr1Knr9nT5N+iLTtgVjINg14OAYe6uu+8OUyWebfH2lvn3KMFTZuou/GG/VbwDZ8HapYlWwurZds6LtL9duz3sWBQRviZQmb9goWNGZIOTrrzicjjTMGaYQzvb67HH3O+331numA51HRsRcChqZvLLxheXUzmXTuyHxIGsIvpdxH68IBZR0dVXnvHldjV97yjIQrAXLp605H2CsqdOf8P0/o9E7WG88PUeJdSpo5i0At9H7JnB+wDBnrxnn3ueWTUPyxBUVryfqexRkgRF+Yam2v5JXFGvbEzzPr1JTPbxtFfX4XfEyFFuD5GEk0q6dD3EPku9d1TCx/W9996jO5s1dY/ubtWKmjK7oMg9/PttJgXCnl7sa5XD3lPt92RVHZV02jX/IJCjhtK+RA/+Pm8kb9K4kaspoH2tV69+wloT1mGER5A2dOzQ3usUSmDYmA82pqJFi8qjGOPDe5jgZsxLY90G/wRqzjlKI687cXqjuT/84WoTclRDCWFgU2x33oAtnRcJt+Edd1Dz5i0CP5KiE3TVH1C9gTSeEaMb/XiG0rI334qbnnhxIK1ZYSit+/BDt8lZOhMaAxjeGsfsMJT8+Oj4pXOlDSV0FDWZgtYPu7/mmmto0OB04wU6UQylYcNeoGeHpFPEC5nEM0xuAQplvFuPDxjAZCd7WK7E+JE0i46kqUmTxm4jsn+wQ9z1VXfS9cGY+t2JZ2BoPR1uEEOfdo93z6PL9MILQ73BC9FFp6RVq3voZqZZ16yI4h50BS038IB0YcbOmjVrBam5Z6DJ7tmzh7v3G0qZrbsILJGhxLND3qZwF3mEP7o91x26vrtZKt9h6vtWre52A1pvvLGYeNbWY618gUkLcJyCtHuoJ9CRzh6iTyW/YLQT5j5tkDzQtg3H80aGzmWi7GpSIm0ghvnTB5kuWbqMjuD8QXQnNFF7GBY2nmtDSR84i/aiA38fhcQBxwEgvX7JivdTtwfJst5JehJ9Q7Oi/ZO4kr3yTLQbHIIxAsHACwYJMRiUarr0N/OZZ4aE0n/zMnGPyVF/F3jJKPFyVpcuvwGlB12dQoQ/ut+TVXU0QrSmspchkKOG0r504KweTQWlLIyZRIJZDXRYry5Ths8QykjDitFzXl7BNK0vunM+dHgvv/yKRzOM8xvkDCLEnYgmG2zQYDrD6FwUSdTIIwzdicsOQwlxgMoYZ+uAtlbOy8FzNKxoAOUjjWeJRDNNCV00zsvgJTXOq3SCdDi60fcbArrRXc5MfAceeKD2GnOfjKHUvkMHN8IfE8DuHzjTh0kj3C/p0OMHr91m9rKqnjGE0WaceXLZZZfzbFwxh5Pu4OQFQwkfyksvSadbd510pt9OJDgjB5SyIlEMJbDPYVYJIjO/Uh7yGyPWcoAlKG0xYi2Mef5RURntRHgrV73rUdbit180m2W7dg/SbbvTEfXd0XrozMg7gM43ZinAZJVZwUzCuFdf5Rm+iV69QVhgpgRDZRTRnWw9YxbkV9NWa0MplbqLeBIZSnpmB7PJVdQ5ZkHpxLMLeZbt1NNOc84wLMuVK+swks45KMFBDS6/oSh16s7mzakln/kiHXb/jGGq+dVMesIGpusJZvWCzo9ymQn4o/HBqoB4ZzTBuxhkuNf1P5n2EH7DJMxQgj468bWZhl1mVoPoz7Pi/dSGkv7u+tMM1tkNGza49kLowUUn0Tc0K9o/iSszV2DJe9M8dk6ZVUo1XfG+mf50YrAKg1YQwRlMubxlwD0DiyTaPZFU+z1ZVUclPXbNRwjk5CLCZR//5PYDNXzqk0jRvrU+XV9IIJK5wm8UQVoQLtKWlYJ1v7LWF5thEwn2HYl+v359E6mngX1KSAbgT6+R5+VVXliapS1hoBEVkt2j5Cdj0NHwiL6XVs1axh8S73k8/wgL6+gX8fp8vXE6yrp/nQ7+AHib6wVLbjhdGrC2X5M4iD+93tq/lluvd060hyrRHiXuAHtY8IixRJ/hKpvDUR/0njO9d4U/NBn84QE2WEv90wrJlIP2h/t4+Ghd2XPm39QuuPifa7/x7hPtUYJf1B1Zm9/1oS6OWU9w4PM4vOCF+AQMkdgDITr+TfNSZ+DOB456/oNuQFAh4ei19lEx9+uNHjXKCw91FmQDqQrqEeqMpBNXvScrXviaHAKMjPFEyDMQvt6jlErdRXy6LVwdwHqn2zJNyhEvrX431BukG/VI1ye9F0cYKVGPwBomePrb51Tzi7TJd0HeG+xXkvjCyCr8eZLfeAfEr5+gQXT0VchPpA0Vt2TaQ/ETdNV7lNiYz6AC9kFJL/aP6XYQylnxfmq21nj7oSQd/r2XSIeud2HMsam2f4gnFdH1BvVSJJV0Rf0mIC6Ur2Aoe0ilfun9fpIu/a773yvRiXfNqjoaLw5z2zsRyFEyB7DrlnlotTNMNm6PpS8Og2/S8p1OPxkjCX6iCNKAcJEmH/NvFO8JdaRBwcueaGO3ZpLBJu8ogs67NByIg0eBnDcw2UgDA8a8rBbdyCPdQeLvxAXp4FlWGEoStiZeiGKcij+5gjJXcNvEFLiy+TmMPj1eo59Moyv1JCzN2uh+sN0DktyYKzbiS4cfedAdBG0wBHXeUW8kr/CrJWo5aj9yHw8f0cE1zFDCx1DKw7+hV/sPu9f5DjJ0xZ+wgQEDoZdFZ1OLdNDwvkmn198ZhL5m0gt7NyRclKXkDxTwIlExD9JDXZUwUR+EoU3CzuxVUwknypfEockhMIiB30GCuqrrrjaUdBkmW3cRl+48gfHMLxggEbzQsY5XT/x+5fe8uXO9MEAGI+Ht2rVLVNI0uc+kSXt0eAbJ08FNqvlFGMK4h3TgWyBGPkglMiPSNuAaj0ho/fr1Xt5B+a4lmfZQ+/Pfy3uIvAUZStAXwxU6vBwrJoiseD81aYCfNEMi04yIiQylsPcp1fZP0pLZqyab0YZHKumK+k2QNMsAHtoH3a/B8Q1+0e6Z6fdkVR31p8t+7/0I5KihBLh6TvjcGScDp+3pGCSCEbNDtQd+lNBggk7UmSTEiTTAUEKaskN0Q4OPFWYGgmStOscDDYL+wEIfjS5GKoMEnTX5MMtHHjMY0vmGm3+2Q4ezYsXy0HRpPX0POl+JE+w0QRLUiQvSy4yhFDYqqhnQErFsBaUF4Uq+9Mc2rJMer9FPptGVMkRnMkz0bBnY2vziH/WPMZR4hlLyhU6dX/ChFndctUQtR+1H7uPhIzq4hhlKmt0ITEswGIMEZ2np0XvRweyb5Gvr1vD2BjMkoicd9ldffUWCcVfdOZKy4KUhMTr4gVlR6VgizE0BZ85AD++kxOkfHY2KeZAeOv6g9pWwkR//GWuIP0hAyxtkjEAXM14SZtgIeFCYYLwUf2GzmXxQqqcD3RhDKYW6i/To2T9eMhWUxLQePR714uf9WYE6eAijE2cR+QX1T/Io9cfPLIe2WXSk/gTRZGM1gegl+65KuvDuSx3Undqgd0T8xLsOGbKnfIBV0LcIRrAuaz8VfDLtYby0RDGUMMsrGOKq38GseD/1dwLfWT8eeAc17kGGUpRvaKrtXzwc0Z5qXPy66INoJlT9zUklXVG/CZIePUAj32S8Y0HfglT7PVlVRyXtds0/COS4ofThF7864+Syju+l7fgpeIQxDN7pq75Le2D0pjTQfuOcJfzHPZ7BLRlB3EgDDCWkKTsEHw+MUkqjjY8XDimEcQLjB50PPQIMPYx4+QUfXTRaWKoDYwsNMzOWeaPf8Oc3DPBRlHhxHTlyhOswwS8+FhhdFdraD9eu9UeZ8Ld8iBE2GjNeB+/yI8ZaUCcuKNDMGEqIE5hgKQ1GOIEz7ydK0wdXJtOZ0+kS6lPBzj+zoHXjNfrJNLo4P0jig9HCG1bdDKT+OOnzcfBxRpnhw4DZPb+hg7C0oaRHsOF3ES9ThDvC10tRJA06j1HLUfuR+3j4iA6uYYYS6qqMhiNtMChR5qCRR5mjQ40RXdRFnCHjFz16jIMNob9582ZXV7QusJC8y9VvWOHDrOs89DCCGST6IFHoYcAEnSvkB0aLPqgU7kzWERNMVMzD9JBW3VFDxzzMANIRy4gsZsxwPgxwgfG0auXKmHIIWsKmw9H3epYBecUSGuQXacQAhH5n4Y7/2lBKpe4iHXpkH20o2j28X5qOHb8lblzRIUMaUMdQ1z788MO0gUxlDLcwmnsZ+ZZwgowyvTQWen5jHOlNNb8IA6INLsQV1rlM147/F/VAjDuEhfcV7Q+eo8OPQQQZ7IF77969MgSYTHuYwbN6EMVQgjqo/JEW/MdMPd49kVTfT4SDw2wlfJQr6jTiwHfZX85BhhLC0O1J0Dc01fYPcYSJpB3fO+ABwxZtHpb04zB6vVIFedWSSrqifhMkPtQxjRPSHW8pfir9nqyqo5J2u+YfBHKUzEG2dnUcu5nmf/AD1by8IHWueYo8ztFrr4lf0MTlO6nC/46jPvVOz7a4sRm2Q/sHvY3W8SKq36ABtW59XwwDEvTbMWseNkGGCTZvD3thmEfmIHp9+vR2tLvyO+z64otjqNR554U5Bz5nA4+EilorCHMYG06h9N5af3gmWO8uvuhCHUSGe2xiHzr0hUxRhYNND+xJIr1696HKTHwQJPE2prIBwhtQxzpvicgcwNQEani/aAIJ/yZvv24xpoc+77xSNGfOHOekyRx4dJDq1qnjbXL2+wVehYsU8Rij8gKZg6QRhAf33NPKo/6V5/7r1QEEKGxEUuVKFf2qdGvt2tSxY6eY5/odAx5gs/JLly6dafasWe4xCCbmMp19EAMcjyhT3759aML48f4gYn7jve3xaA8qW65czPOo7048PR6woHuZQv/dVatc2CA4AeNagQIFYuLSPzS5hH6u70Hn243ZxPbff3/9OO49d2yIO7ihOqDkrlSpsqejyRxSqbuIEGXRoH59b1O6JALvy9Rp0+Sno5fuysx8iaRNGyY04HbaL6+9No54Caf3eP5uqnDvAd9MnjSJeEbGe6RZ6eRhqvmVcPxl2Zxpu1u0aCnOSV8//HAt06wn/o6VLVuWHun+aAZioGTaw3iJe/7554gHhpyKZr3z+2FDnG7jIyPYUHZO3Zji/+abq7v7VN9PBPLuu+9S8zv3UFa7gNUf4MAzkC5+kL/4yRygmugbCp1U2j/4D5NE31Dxh3dz+PARGb6lmU1XvG+mxOm/+vsxM7kNLly4iF/N++3X9xx8N/5+T1bVUV809jMfIJArhtKm7X9QnUEfOfgeb3gGlS11bI5C+ca6H6ndi+kN6Lg251LxIodma/xgssPZBNOmT4thkJJI0ZC2aftAzFkF4oYrzgfgkdjAzmLFipWoabNmoQxXoITlde+BhtqFF15ETZo25fNhrgzs8Ok0+O95QzJ38ro7VintJhTf6NiXK3utc4rHescjtMSHMjq9BQsX0bHHptcF7V/YmySex/isnIkT08+8kWe4ouOJ86UaNWrszjPRblHvwfZTsWIFV04Ib/78Bd4ZOf4wtIEzwncWij6PJpGhhHDx8UcnQIv/7CGeFeBOalev8yu6YHp7+OFH6PUJEzzjVZ/tAz18tPEBWf7OO+LNXXGeCpjbUD95JNE904ZSvHKICSjgh8bHzwqo1XEmFs7GwkdZzjLS7j//9BP179/fdWb1c9yjjOrVq8dsV7W9M7i0Dup/164Pxbx3qB/3to41TDWTVVh9nTVzJj30UBcXPM4WAgNhPAFNNI/sZ6D0h5/y5csT2BULFSqUIQiNeVha4CmRHlghmzVt4pi3oA98YQBqKmo8FwHOyB/Kwi9gl4KBgHyH+ff70b8XL15MPdlIgHEngrK78oorqGOnzu59Fpr2efzOwRAVyWzdFf/oLGOwSjrNeH7OOSVp7Msvi4q7btq0ybVpGNzyCwyrJswCdn3VqoHtgabwx/uIgRq/8KyiozzGcxiu+swwrZtqfiWsW2+p5eUZRiHykIqgPj3F36EJ3M74BfWjFTNTghUxSJJtD4PCwDPNhDZn7jwqWLBgmGqMMYO6toCN14MPPtjTz+z7KQGs5nPQunTuHPNtRTzl2Ejq8lBXPh6ksTPQ8Z3FeVp+SfQNFf1U2j8Jw39FWzZ+wnh3lIHfDb9RV2oza99NN91MRx99dJAKZSZdUb8JOkIY6Xc0bOge+Y+A0Hr6PjP9nqyqozoddp8/EMgVQwnQjVy0nZ6Z/RUdd8SBNPzuEnRKwfQDG7Mb1i92/klNh6ynH377h1pVOZEalwsfmciOtDCLkOu0okN+0knFqEiRopE6HhgFw8cYo+Q8HU0FeWS46IknhjZi/rSjU7WZOwzwi9mDwiec4DqZfr1kf/OyFZeuo48+ik4//YxIeUk2jiB94LcNePDht5ATOD8nMh5y8GeQn7z+DGXESzdcMs8888zQs5d4TwRt2bKFeAmEO/vq0EOjG/q8dNOV14EHHEDnlCy5V+GF/G7lA0K3btvm6j06Z+goJZrdQF3BmUXAF8bCcccdl6NVAe8cygsDJnj3UE8TpTlHE+iLDB2gr77+ig+W/t7VwcKFT4jcTvmCyvATVOswWAoUOJ7LoriHQxg9vQ4glbqLugPKc15uyvgXc2UQNBuI+FBfQLONtgXtLMpMBnB0erL7PpX8os5V4tlU1Dl9UHJWpJkX1DCO2935UAcffJBr95M5iiEr0pCVYaTyfgKLb7/9htvtL7hNOooHLM9O+hsY9Rua2fYvHlbSNmIAA7NwqO8FuE3FQEXUNio70hUvzcm4ZVe/J5k0mO7ej0CuGUqArsNLm2nB2h+oxImH01NNz6Tjjww/ayYroP7+138Ih96u/2oXlT//OOpbP/uW3GVFei0MQ8AQMATyOwLooNWsUcMtDQ2a6cnv+c+O/GF2+NHu3V3Q/XkZMM7JMzEEDAFDwBBIHoFcNZT+/Ps/ajl0A6394jdnLPXmvULZNbOEmaROvDcKRtL5pxxBzzU/iw45aP/kETMfhoAhYAgYAlmGAPZyMQGACw/L+7APyCTzCGB/GvbnYHYaMwM4mPOggw7KfIDm0xAwBAyBfRiBXDWUgPv3v/5ND4z+zBlLWIbXpdYpWb5nCXuSHnv9C7fcDkbSgDvO4Nkr+3Dsw/Xesm4IGAI5gMDKlSt479zrVPe2unTBBbEkLFiy88orL9OggQNdSrC/Y/r0GXTMMcfkQMryZxRYCgY8mYrdZbALE1TUrFkrf2bWcmUIGAKGQA4gkOuGEvKImaVu4z53y/DwG2x4zSsUpYJHp2bM7Pz5bxo6/2vHbodwsdzu0Tqn2kwSwDAxBAwBQyCbEQAxBMg6INhTVqJECTqBr1/zfqGPP/44htyha9duVJ2X4JkkjwCIYDZ/tpn4mASP3bJUqVJMIjAihsAg+ZDNhyFgCBgC+zYCecJQkiIQggf8PmD//ahu6UJ006UFqXjh6JvV4XfTN3/Q1JU76dU3d9C//6XhUa4QN7iI7Y8hYAgYAvsoAu+//z6zfzWKm3swwHXt1o3ADmaSOQRwvAAYxUSA6fPMvBfEqig6djUEDAFDwBBIjECeMpSQXFCHv7Dga3fOkiS/1MlH0OVnHUW4nlboUCp0zEF0+MHp+4t2/fUf7fjpb9qy4w9a9+VvtHzDL+4qfnFO0p3li2Y7BbjEZ1dDwBAwBAyBPQiAWYsP12aa8k9pJ7Pe/fjjj1SkaFFHkX3KyafQRRdfbLMee+DK1B2OS1ixfAUdetih9L///Y+qVbvRMM0UkubJEDAEDIFYBPKcoSTJg9EzecV3NGfN9wRjKBmBEVX5guOp+mUFnHGVjF/TNQQMAUPAEDAEDAFDwBAwBAwBQyDPGkpSNLw3ld5a/zOt3vIrrd+2i8BeB5rv3//616kcdvABjlYcbHklih1OF552JF1V4mg+QFVCsKshYAgYAoaAIWAIGAKGgCFgCBgCySGQ5w2l5LJj2oaAIWAIGAKGgCFgCBgChoAhYAikjoAZSqljaCEYAoaAIWAIGAKGgCFgCBgChkA+Q8AMpXxWoJYdQ8AQMAQMAUPAEDAEDAFDwBBIHQEzlFLH0EIwBAwBQ8AQMAQMAUPAEDAEDIF8hoAZSvmsQC07hoAhYAgYAoaAIWAIGAKGgCGQOgJmKKWOoYVgCBgChoAhYAgYAoaAIWAIGAL5DAEzlPJZgVp2DAFDwBAwBAwBQ8AQMAQMAUMgdQTMUEodQwvBEDAEDAFDwBAwBAwBQ8AQMATyGQJmKOWzArXsGAKGgCFgCBgChoAhYAgYAoZA6giYoZQ6hhaCIWAIGAKGgCFgCBgChoAhYAjkMwTMUMpnBWrZMQQMAUPAEDAEDAFDwBAwBAyB1BEwQyl1DC0EQ8AQMAQMAUPAEDAEDAFDwBDIZwiYoZTPCtSyYwgYAoaAIWAIGAKGgCFgCBgCqSNghlLqGFoIhoAhYAgYAoaAIWAIGAKGgCGQzxAwQymfFahlxxAwBAwBQ8AQMAQMAUPAEDAEUkfADKXUMbQQDAFDwBAwBAwBQ8AQMAQMAUMgnyFghlI+K1DLjiFgCBgChoAhYAgYAoaAIWAIpI7A/wMAAP//s3pp9wAAQABJREFU7V0HnBRF9i6CEkQlioJkRDESRERyUIlKEiOmO/XM/zMrekm9M3ueOWdBMio5C4iKCBjJGQRBRERQQfnXV/DGN7U9Mz3bs7vD8j1+bE93V/yquqpevVBFdlkyWUwo3to1a8z69evMpk2bzJYtP5ift/9sduzc4Uq9X/H9TMlSJc1BBx1sypcvbypXPtRUqVrVFClSJItrxaIRASJABIgAESACRIAIEAEikM0IFMlWRmnjxg1m0cKFZtnSpWbnHqYoLJDFLfNUq3Ztc0S9eqZixUphozEcESACRIAIEAEiQASIABEgAkTAIZB1jNLmzd+beXPnmhXLl8WaCMzOYVWqOKbn4LIHm9KlSxswQyAwUdu2bTM/bP7BgLn6Zu1ad5XINWrWMic0aGDKli0nj3glAkSACBABIkAEiAARIAJEgAgkRSCrGKXPP5tn5nw62xW4SJGipv7RR5u6RxyRNpMDZmvxokXm66++Mrt2/e7Sa9iosTnu+BOSgsGXRIAIEAEiQASIABEgAkSACBABIJAVjNJvv/1mpk+baqVIy12r1DvySHPCCQ1NKSs5ikLbraRp3rw5ZuGCBS6ZGjVrmhYtW5tixYpFSZZxiQARIAJEgAgQASJABIgAESjkCBQ4o/Tz9u1m0qQJZuOGDaZEyZKm2SnNTfXqNTIK+8qVK8zMD2aYX37+2VSsVMm0a9fBOoAoldE8mBgRIAJEgAgQASJABIgAESAChQeBAmWUIEkaO2aUY5LKl69gWrVpa73XHZQn6G7ZssW8P2Wy9Zz3nWOWTu/YmZKlPEGaiRIBIkAEiAARIAJEgAgQgb0fgQJllKZOmeTU7cAkdTjtdFPSSpTykn62EqUJ48Y6ZglqeK3btMvL7Jg2ESACRIAIEAEiQASIABEgAnspAgXGKInjBqjbdercNc8kSX67QLI0etR7Tg2PDh58dHhPBIgAESACRIAIEAEiQASIABAoEEYJXuneGT7MtUCbdu0zbpOUqmlhszRl0kQX7IzuPdL2qpcqfb435tdffzWzPvrQQVG7Tl3n3p24EIFMIbDr99/Nt99+aw455BBTpGjRTCWbVels2PCtWTh/vivT8Sc0MAfmkVpyVlV6LykMvKquX/eN2W///c1JTU/eS0rNYhIBIkAEiEC6CBQIozTV2grhnCR4tzu5WfN0y5yR8B/OnOG84eGcpdbWNirTtHXrjzEvfrVq13FnP6XKA5hs3brV7G8n3yPqHZkqeFa/Rz2GDh7oylizVi3TqnXmMc5qAFi4PEVgwFtvWmb8F/utlDDnnHd+nuZVUIl/9eWX5pNZH7nsW7ZqbQ/RrlNQRWG+HgLjxo426775xj09v+9Foe1dv//+e7N2zWqz33772fnvKC9V3hKB7EQAG1NfffVlYOFwpmXZcmVNuXLl3dolMBAfBiKAzTCs+6Dp9NPWn9w4UqJECVPmwDKmdu26ppLdCCQVPAL5zijhUNhR771rcE5S77P6RHYBnlsI4Tp88KCB7pylzl27ucNsc5tWULwlixeZGdOnuVcNGjYy2BFORWAswGAUKVLE9L3oklTBs/o9GaWsbp69unA/2kll2NDBsTp079nLqu4eHLsvLD/IKGVvS+aWUfps3lwzd86nrmIXXnxp9laQJSMCCoEdO3aY/m++rp4E/6xc+VDTrHnzQjkeB9c4d0/XWWn0B3Z9iHVSMura7UxTvkKFZEH4Lh8QyHdGCW66Fy1cYI4+5lhzYpOT8qGKibP4ZNbH5qsvv3DSG7glzyQVZkYJu0uLFi10h/oeXq1aIBNIRimTvSnv0grTlnmXe+5Tfu+dEc4pS4UKFU2XbmfkKqFsr/vezCitsVKTBVZtEBi3P/W0XLVPNkcio5S6daBi/7WVQnyzdq3p0esstwGYOhZDZCMCYRkllL2oVYU+s0cvc+CBB2ZjVQyces3/+iuzbNlSe65mK1OpUv5Kbb79dr0ZO3qU3aTfFcMHZ3sWK1bc7Ny5w/xux0whMkqCRMFe85VRQsfo/+YbrjNkg22Q2EpBdHzu+RdkdCAvzIzSjz/+aIYNGeR6LtSBoBbkExklH5HsvA/TltlZcmN22l3O4laFKbeU7XXfmxmlt954zY7zO53Kce8+5+S2ibI2Hhml1E0zboxVT7Q756C+F15caG0JUyOx94fQjFLZsmVN+w67Nz+wqN/y4xazetVKZ8ogi/8DDjjA9Drr7Kys+JdffG5mfzLLlQ1mFzC/yE968/VXDY7GAWGj75QWLZzaopQBWGODAeU8vVNnA6/QpIJFIF8ZpTWrV5uJE8Y5NTeou2UDQQ0Q6oD48KsefnjGikRGiTZKGetMeZhQtjMLeVh1k+11J6OUl60fLW0ySqnxI6OUGqO9JYRmlCpWqmQ6d8m5ftv03XfmvXdHxKrU55zz8vzIl1hmafwoSEbpu40bzcj33nGlLVOmjOnZu08aJWfQgkIgXxmlT2d/Yr74/DNz3PEnGLjmzgaa8+lsA1flxx53vGnU+MSMFYmMEhmljHWmPEwo25mFPKw6GaU8BJcSpWBw9yUbJTJKwX1gb3wahlFCvcaMHmm+Xb/eVbEgpDVhsC1IRmne3DkG/0FH1T+aHjPDNFgWhMlXRmnC+HHO40/bdh1MterVs6D6xqxaudJMnjTBVKl6uOmQQV36vGCUNm3aZOZYZhMSMLjfhtMH6AFXqFjJfnT1Ax1SQBSODxPSvB9+2OxEvqVKlTLlypc3TU9uZsqUCa9HjAEGrtV//eUXm9YPrv2g+lSuXLlYW0IyB699Qap3C+Z/7TwBfvfdRlcOHDBc9fBqrhzQa05E2IXBAgPxtm/fbooVL24OsvWG2t8xxx6XKFrC57CfQHqgpiefYkrY8n7wwXSzccMGpzfc+MQm5sij6sfFX7p0iVm8cKG1i9lkduz41dXxYKuCAKa/qu07PuXIo8T+Ns951lPWWocNdJJ3G762iHlEhO7yogULzNq1a8wvFmN4xoIhJ/SoS5Uq7WcRd7/Y2oxB5/qHzZsdRugbB9gdq/LWE1FDuwFwkOdaOp221Bmli4OOq3+vXLHcfGntA0FHHFHP1LX/ExGM37+xuIFatmpj+2wZg8Oqt1mHLOXKljMne/aF8g4qC+jjUGOALSJ009HnMEGF7cf4bj77bHdfOaV5C3PwwWUDiwnHLVu2/ODeI5xP69evc30O7YNy4Lvcb7/97dEEZZ3xc1C6USRK2PxZvXqVKWqd5pzWsZMrGzCAvchPP/1kittvCHkCu/J2LEhE6Ywf8AI3Z85sl9QG67odhH6IHWihhg0b2366xGy2OEjZEMYnHC2w0X7vGEtEzUeHgZeoGdPfd4+Ost8qxgJN27dvM9iYwy73j1u3mt+sGiDSOujgg91xFInGjRzfbYKxIZVE6WtrA7Hcfo+gYkWLmVNP7+iwSMUooW/MtZt3aDvpJ6VLl3bqN7Vq1zY1a9XW1Qz1G/1y7qefuvETbY+xFh7Katr06ttvYdLECXa8+dmNR0GbhRjL59p2RZti/IXaEMZgqFc1shue1arXiJUDC+oJ48e6e4zbYm9R0c5RRYrubufqNryPfzr9DPMIxiFQ06bNAo3dMf8utLbQoFZ2zMBY6NP4cWOceihsVLS9dDrfKjZaRb2wyUlNA+dgyXfWxx+5uRv3p53eydqkFJNXKa/Acd7cT+38sc59y5j/0QYH2vn7kMqHmMaNmwSqIWMemTRxvEsf4yy+k48/munWPWgr2Bi3btMuZf5hGaX3p06J9fuTm52S0LNjbr9PfD/4RvFNYVwLIvTP8WPHmF32Xy37vWC8B017f6qde380cAaEbwuEb0v6xgEHlLHeedu45/InnX4pcZJdMRehH4CqVKlqOpx2erLgCd/lplz+nLB+3TrXF/B9Y0yoUbOmG5eRKebNZCp/MmYEjc/oc7D/32DXM0gbhDm78qGHWsawWY5+n6k+6jLKoz/5yigNtXYtW619SzZ5qcIkMnzoEOuO8UDT0xqcZooyzSjpnYigMtY/+hiDgVrTT7aTjh0zKtZZ9Tv8xseBRR3OOQpDGHBXr1qVNKi0LT4Q7R7cjllmuXWDGURg3KDPHMQsff7ZZ2bOp58ERXPPKlSo6BYh+GDDkl6ANm/R0g1cmHiENJYYdOHOHjrYiaiedeXuL9Z1HmC8MMBjsvEJA3UvK37/xuryTxi3e4HhhwEu3c7sYRe2OT27bbMLH7QLGLhEhIUoJLiQmgql05aIk1scJD//CqZ01Mh33WO0/1lnn+sHcfdYIEA6gStwOP+CC52tw1vWAxNslILi6nfHHHt8zMU2EgQWULEN24/BpAlTjcXNoYcdFljOAW+94TYv4Nr17HPj3ZXrnfXAyPZh0O6r7kPpugfXC3moOY8ZNTK2aNVlAB5YHATp6ac7fmBh+qF11pOMsBAH0wuGDYSFAhYMmtDW0OPHYgAEw3C/7+t28bHDYgQ2CEgnEWHjoMNpHd0ErsNozJONDRpf3z04Ni0+mDE9liwWHbLxAuYetrFF7L/DqlSJhcEPLLjdAm9PveNe2htszJzZvaf/OOk9mLXp095PiAWOoUB5gXVQ+nIwfLJM4OYci2IQFqADB7yVLLhd2Fc2HTt1iYVJt5+BCZUz+o486ii32RVLbM+P4UMHO5fLuG3Y6ES7ofXH2IdnmzZZNTHrEAZUu04duxnV2v1O91sVjRRExuYvNoGDCPMLxggQNmuglhaWsKCdbM99xHEIiQgblm3atsvxLfnzMNpH3NojraA2D8ojLKM0YtiQ2CZql65n2E3cijmSi/J9jnz3HcfwI9FEXiPBhA16e4DLt3qNGhaX9u63HCnhbgL+gHHFtyyUbr+UeMmuut8hnD92JYsr73JbLj1moW1EBVDSrW2ZaNmAwIaMzzRKOEgMITkEYf2lnSlhXMfaAuuFIMJxHqd36hRnk5WpPhqUX6ae5Suj9NYbdnFjvXqcd0Ffu6OZeyPsTFUe6aA8KBfKg3JlijLJKEHCIItoLGxq1Kjpdmmxu4cFJ3bA9OJ+d712ugkLBtUgDM7YTYKUArvkkM6AkB4W6qXt7mAqgtrkiuXLzc7fdjrJBcIjPe2auV2HDk76oTu/pIuBCGcqHXjgQa7MsljCe7hPhxt1TT5ziAXuIYdUdrtCSxYvjk3+2AkJsysmaevFEBgVLF5QNtTjR2uYih0o2VkVGzbExUIdu7oIB/xWrlghSTqpj2Y4dR4SCAsELAqxo4UBSRaCqBOkhFjYQTpX3bYvyoQ+JIs9LNCxUNeEwehtuygBwwBC+YBRWStlwaS61g5ayEsI0jMsLEDptCXC5xYHxE1EWFDJzl7QYhjxcLDnBzOmuST0gkYzQz6TJe+wePjdYgQMsWtY1PZ14HpCg4ah+7FekOeWURo8cECsj2H3GhIWtBXaFzv8IHxHYLDwXEj3oSiMEtIEBtjVr1K1qmPoFtu8pd8g73POi3dmg3ED7ZPO+IEFmBhJY0GA/o28Ib0QOr5BA7Pj1x128T7VPYIk0ZfAYXGPnWmhoLHhvXeGu80BjF9Y3Ahu/sYKFoKHHVbF4lvcfP/9ZqfRIN8UJu2zzz3PjYGSl8Y82digFx2aUcKGCnZbhbBJ4ktP5J2+AmcspKVsOD+lWrXqbsGBs5eQLg4cTodR8suCb6Bq1cPd5gIW3yIJkXIELZqxC7/MjlXAGYuiChUr2F34A9yuvqhYIb44Z8KCGswGCBoM0n8QVwhjlIz1eJ9uP8MO9Nv933TJoU6YvzRppgTPsVjHwlCTmAHg2amWYRamNd1vVZcFfRB9AVj5pBnOoP7sh5d73+4HGzHQwsAOPdSm16xe5b5nCd+jZ++4g6n1PCz9GeWDZPUXyzRBiqIXupKOfw3DKK2y2iZg6ECQWGNMke9S0ov6fUZhlN63G57A7KeftsbmHUhFS5Ys5YpXslTJmPQ6N/1S6pjqKmOXhKtZs5bbaA2z2RulXHrMkr6AMbB06VJuU6Ft+w5motX6AvlMo5QV1ymTJ8bWPprRwxoG6wQhaCqgr2KdgjEE61WQv1GQqT4q+ebFNV8ZpVdfecnuoyXeCciLCoZJ8zVbLuxdXnTxpWGChwqTSUZJJitkjINbwWxowuIPqhN6QYIdTewUgrA4b9/h1DivQ5DSYNACYeIKUm9xLwP+hLFr0Z0fSWDnv9sZ3U1JexXSg6Z/cCgW0Ji0sHDAwN6xc5c4N54/249uqN01lMVez95n2ckjnBqhXgyhLNit7tLtTDe4S9lwXWUXJ5P3LHqCyo/FBiR2IL/8fh7+WVr+BIg06tSta5q3aIWfjjTOeHDBhRfHTTy6jaGCCYx8FT290Mfgh8kLVyGdR63awR4Mo+Ag+QRd9W6s3pXWYcUNOJ6JtBK/hRlKJlFCOBB2xrBD5lOYumv8cssowUPkIfZ8EUgWsIAQAiMBqaswS750RfehKIwS8tNSDdxjgYe8Rcrpp6/7Vm7Gj2Q2Spg48R71x4Tte8XDZA31GiGMa93O7C63Lt4br73irliAy0JPjxkI3KTpyU61LBbR/kCbj7aSTGHQwTTjv5DGHM8SjQ160SGMku/2N50FMQ6dhOQahM2YllZdTBMww+GUhx4aLNHUYeW3LPpxHyT1Xm0X2ZMmjJfggdIFMLRbfthiWlnvYFica9LzUpBkR0tn+tqxq4jaBJB0ctvP5MxBpHPu+X3dRoOkCdW8jz6cKbduzMTYqWnE8KFusw8Lef0uN98qpLVoe1BrK9XBRqZPQ/Cdb919RiI2RMIsipGGricW1C1atY6bA9AvsImKzVIQNkO0oyx/Hsb4g7nOl9C6yEn+JGKU8A1DjXbhgq/jvN5h88NXp87E9xmFUZLqhbFRym2/lDySXYHDO7b/yRiEsOiHmAOxQavnCD+dKOXSYxbShTTZPxZH44tjHarajRVNOO7hzT0aHijneVbDQ0j3Vaiy4gggIcQbNeo9A3VckFbLzFQflbzy4kpGyaKa7YxSosViog4BJmLg2/3dawzI2HHXi2OJJ+pC/mQh7xNdwyww/c4fJIbHIItD7LBLAmZIH7KL3R9R1YNKISRmPukJMR0HIXoxhHyhBoGdOp+0xEN2TP0welGn66jzCFrMIx2onkEiCIL041w7gfqLCT0J6zLoNkYdzrIumDUT6hLd80cPflDBA1ZCYdoyCg6ST9AVEwXSBqGfgonTpHdroSrV3e6WCoVllCDlg41XEIWpeyYYJTD7/s6qlOfrr/9QI/InF92HfEZG4ie66knRV3WSONpeBlIPSD9Aum/ldvxIxighj3dHDLMSnu/x00nS9Pcn7nPxTWAjBP37AuzU71loQxIN+xKQltjoMSNZu+udT4yLYHSENObJxgaNL+JDEo1xWiRC6Z4TqDcNglTFpHxhr5rxwiYKzjEKIthLQBUKFCRRStZ3ofY7eNDbLi4YON9mJBWjFKWfyRmIyBwqknXqHuHKgT+jR77nmErpP3iGsgmTiTqJaifsROGCWShZfRN9q5rhDMJB1PuRR9B7ydu/Ll2yJCZ5DdpQkPBgljCX4wrS84Q/Dydi5CStRFfNKCUKI89PshsUYhckz3DNxPep57J0Ve+kLKkYpSj9UvJIdUVbvT91srMV02ExT2CODpJCRy2XHrMS9Sdouky3UmRQ0AY6JEPYIAFBnRgbcCDdVyGdhZTWJ9iHDR08yD2uoDa4MtVH/fwyeZ+vjBJV75I3nXDkmKA106B37qB+cXrHzm4nNlFqMJSfMnmSe330McdYQ9V42yWJh8WGqL/5u3ISJugaZoGpO3+QeoSkCz1Z2WXATpssmIbYCRg77W6RhN1Ii4lPeqLGLh4mgTCkF0PYLQ8yqMSEiV1rUNACwr2wf/TkqSdsnQcmDUwePkHPHvFBR9SrZ3d3WvhBnP2ULGTatmsfM5zWUp46lhlonoAZQIJa8qV1tvEuVVtGxQF5JCPd/nA5qw3/9UIeNmDYFRcKyyj1trZvidRKU9UdeWWCUZIy6yuYxM2WUcDEJJJfPfEgrO5DURildlal4nCrxuUTvjvRU9f2FZkYP1IxSloVSbctdsZxGCMIu44fzvzA/da7m3JoOV70sZtAskGQzq69SBSQBhh02eHXmCcaGxBHLzrAwEOdBhs+oETSUfcywR/N2IB5g/QS6ne5pRnWuQi0GkBaPcZPT4/TycY5HQ/MK6QI33+/yaAtQP5GBp6lYpSi9DM5AxH5wCFBu/an4qc74PiNPfZtYKKhYocNOd0mckwJwmNHHTvrySjMtyrjEeYp7LLrjcmZ1lHQIusICORLjZPlq6UHsD+CSnYi0gzvKc1bWmnObsZRty9UbDHP54bCMEqQUp1q+y0W4UGUie8zPxilKP0yqN7JnkGzBE5pZNNIwkJdFGMA2kwoarn0mJWImcW3gk0E2TAQm2Apg97c1XPrDGsHuWTJYhcMGw/YgAgibIyjL2n1u0z10aD8MvUsXxmlfdWZg6/ekajxEjFK2JEaMWyoG/ARF4Mx9O4bNGoU6GVH704iLLzjBJGoreFdpy5d41TbgsLLszALTN35E+0wID2t76rV58Ck4GMFYWcwkOxHLYsTXz0nMPyeh3oxlEgSpReRiJaoDPCmhcEFpF3M6zy0bZALuOcPvJBhZxSUaODSu1+QjIgdlLbf0hPjnqTjLti9wuAH8hdDqdoyKg5xBQm40fYovsqRMMvYZcPiQ0tlZGESJK2Tdwiv1Wr87FPVHeEzxSjBzhALVzCt0NWWPqPLpBdzeK77UBRG6ayzz8mhkon0tcRO73RnYvxIxSjpTQ49PmDRAPtDLLZgeyKLXq2WKv3C3xWVMQObLb5DDdRX07T3p1i9+aXuETae4JEJpDFPNDYgnF50YDGDyR+k7ejcg5B/MNYNsloAaBMheEQ8/oSGxle1lvfJrqOtmot4HtSMYFCc11992fVHf2yQsPBwCun9WqsOiXFdxmV5jys28GAfoykVoxS1n4lGBMbm8/YwANpOBvUGDvA0CVsUOQBV+hjKGrRBmJtvVW96+WpnMh756tkaq6Df2i40VRsuX7bMSSiQjrZX1vMwvJh1PePMoKxSPtOMEupRo2YN2+d3OltdbQerJbx+opn4PvODUYraL/16h7nHhvUHlqGGeqYQVF31OUtRy6XHLK39IvnJVXsu1KYeug/A/qirNaUQ0u3iVAcDNrYRVtacWJeKMCBTfVTKkhfXfGWU9iX34Jr7D9IFDWpM8cri634iLD4kuDEXxkDiYyevddv2zgmAPNPMhzxLdU3nwN0wC0zd+THR44MLIr1gEUbJN8YNiuc/S6Ze4ofViyF/UpOw2omAPEt11e2s80i0yIWkSFyFwusSFlk+zbcSp4+t5AmkGaWpVmK4wkoOQWGYXJmk/Mk6VVtGxcEVMMkfvYOl+z0WZ/CgBPIZKDyTxUcyRinVgjlV3ZFPVEYJi0p4MhMbAqSpCcycLDzzilESGxqdL34jX/QLkGaUMjF+pGKUkCcYAzCNut1lDBQprEzA0s56spYwSEs/D7NpohcdWqKlv9tEYwPy04sO3IMgRcCCXVQEdz8N/xeLpHFWyq8XnogNRgySjyA7u0Spi32SXpAkCpuMUdJOD/z4uu/mhlGK2s/0gg5SPcyFkydOcLalIuHS368wRYKNhJF6RflWt1k7YaQLqlDhD7s57YhJb6RJnsmuovIcpg31hpaWsOl5WEuNk+Ub9E5/X/6Bs76Xx06d7aarJw3V8aN8nzIeoIx5pXoXtV8G4Rf2mZa0I45W4Y1aLj1mJWO84UEXEnKQVtvWm7aagUI4OFfRmzx4loqk/TLVR1PlF+V9vjJKMugm26mLUpncxJUJM91BLFVe8PgDKRAoyGNZUHyZsPydBAmLgRyLa3gs8zulFulrtQvkDQPPVHS0tQESFZZUYcMsMHXnT5dRguHf63sWcJiMtVFgorKVtd7iatfOyWgEhdeLoURMjJyvhfjYuRZJTlB68gwTEbyagcLkEYVR0rui7ayjjsOtd5lkBDs8kL+gSdWWUXFIViZ5p1VLpR9r9aoze/S0xsfx5xeFYZRkcS35+NdUdUd4vdCSsvnp4F5UCnzmTH+LWPBgEQXpCCQY8J4I9Ts5zT5bGCVd5tyOH2EYJajVLVww38EJZw3FihW3RzUMdvfYrcSupZ6cISWCly+4uwbpXVHN9CUaP12kPX8++vADKyXZnbdW6wvz3SIJvegAoycbWFhEYqGIts4tQSryqT2fB5IQTenMUWEX2diowLwD8iVKWjqD99iMqmXHWIw1kHZBkiMbMP64gvCpJEpR+xkcfoiXLtHakH4n99o+CKrRUEEVj3n+OkSXJ91vFfXV3sxkIQpHC2CWQFq13D1I8UckpwiG3fdkfUozZHocCTsPpyhK3EaEzyghrqzt8BtqVbCL1uXN1PcZhlHS0mpf1Rzl02NKkFqq7ge5Hf+QT25Jly9eEvqHOm1uyqXHrESbZ1Jm2UxAG4oqKRydYM7UG1sSXtQqcY9xKhUhDTi7AWWqj6bKM8r7fGWURDfY98wSpQJR44p4Ox2JSpg89cCg9TETxdU7Unp3N1F4TBIfWD10cbmoJQX6Q0smCk+UdqrnYRaYYTt/kEQJ+cuEF/RRpipfqvdhFkO6jr7Bb6r08T5MHlEYJR3Xd9Dglw871RjIQHq3Efe6nlgEgXHUpN/nBgedVqLf0M+GcT9IyieMUNACDOHkfRAzlOwd4grpugXVHeG0Z8ZkEgZhRH1GSTY/wPD3OqtPDhU4bZuiFzjIO0wfQrggCjMp6jFKjzmZGD/k+/XV43RZtVMFnHMDDVZsAmlbCj0uwmYJcwjs84LGBWl3SHa0gwadp/zW9plw5oIxGhQWc40vjOexgBNjeo2l5JebKxb5WLSJCh3SgIdAYJqK9IIykeol0tC2Pj6jpB1uBNm5aZXeoO80FaMUtZ9paTSY6pObNY+dzYZvDa6vQaKiB+N02LLC9gfku9KO8q0iPW3ojnkXEk98BygnJCxgoNMh3UeDNot0Wno+0BLSsPOwTivot5YIBTFKiCOLa/wOYuoz8X3i/B5xS5+I8YT2jTh7yQ2jFLVfov5RCBvFonIMRkVU1KKWS49ZqRgl3z64inXQII4Y/HkKddXfuv9dpcIiU300VT5R3ucro4QBo/+bb9jdtx1xnlmiVCBKXJkkcIbSuefHnyMSJV2JK4sF3KcyxtQeYbSOsaQVdMUuJrzbid6nqBbo3aUoeslBeeKZXmDWrGnV6qzrWJ/Cdv5EjNIwu7MsKii+kb+fV7r3YRdDsvjFwguDMhZnYSlMHnpyS1f1Du5o4REPFMQs6HJCdQ8qfCDfZXGYtoyCgy5Hst8yyYKhgIRMzg1LZN8lk25Q3ZO902UIU3eoN0LNEaRVvXQ6ui00o6QZ1EQLJRzQioNaQf4EFKYP6XLo32EmxUSMUibGDxn7Um0SSTgs0nHmFdoEKmb6sEORjsCWCSpGUM2FZACLd016YQ83yokkzFj0QaqA+qO/aTu2sJj7+EL6A0NnpAmqWtUeuWDd62aCRo/6w94o0Tjh56PHVV9yosNqJwA+oyTfUSLGU0t0UjFK2JX2x89M9DM4/oBaKxaU8HwHNTB/TBA1ZUjAKtsz61BuvbEIPKJ+q0gD6xv0ZzCQUOurf/Sx1k35HmckHayrZcuopUPas1+ieVbSG27VlLdYdWVQV+v+u3yFCu532HnYBU7yJwyjpMdBtEePXr3jjuzIxPcJafLSJbudBiQ6rkHjlopRCvqeMtEvk0AZ6pUw7XpDKGq5/DEL33Ui0uYPWENCBU/WEHoTQuJrCX2y8UbC62um+qhOM9O/85VRQuFFpUbrXma6UmHTkw9K25aEjRsmnJ6E4FWpk/XqFXR+gfZghokbO5zihQn5YACCShcGH59Epx/PoR+PyQADNRYCog6SSL0McTDoVLCqeUHlwvsg0kbgQYf5IU7Yzq8ndLFRQny9owHxM9zbAhufcAr3iuXLA92R+mHlPuxiSHt48RdvkhauWLxh5xuqd0Jh8ojCKGFSho0HPDKBfAZIygGXnMOHDoktCqESgcW8UJi2jIKD5JPqqnWzsTsMPWm0t+/EQdKRRZy/KML7ZO8kPq5h6i6bKQiPSQubEf53qJl6zShpd6hBcbE4g4MbtCUoWxilTIwfMi75jIirqPqDw1lxMCowFRx8FUfxqIS0hBEJUpnR9nSQSmHMEEmRytIdZgsnIqDcYh606MCBu9jJlnqk44kTUlWMc3rclzJPnGDPlbKSNFBQvSWcvmqVWeAWJM3cYg+jhh2glDcHo2QX/TKH+BINxMHmhmg0BDFKYi+EcsGJABZcmjLRzxbZTQbxvCf9w/ceqe2FJUxtaw+KRbJQ1G9V0tFqW/D2im9cS0glXJgryjRsyOBY+3Ts1MUtWP24WpLlt0PYedhP078Pwyghju6rvsF/Jr5PvS4I0nDAfIh+KeNEEKOkbaqC5s1M9EsfP7mHiiLmHThvSsSo6DrqDbao5Qoas6RcQVfZoMHYjLEJfSmRfRnWQOJBFeF72rEX/d8ntAu0BkTtDu8z1Uf9vDJ5n++MkqhbFClS1PSGKkoINYJMVljS2g7jy0ED7SD0uzugLYwdj8QNe0XH1ucboAPBbSc+8DJW3xv2CWCSZBJEukEMJPT2MSHh0NIqdqfyIBv3u03fuQPexLWwr+KinQAg3Tp16pqjjz3W6paXcydTf7v+WzNv7qduBzdIrQJxkpHseCAMVL+we4udOtjyYFEYtvMnYpQwEYPZw84GCDuAzU45xdp7VXHpox+BQYI3JnzE2juMi5DkTxgmBtG1fjvuMfDjEEv0FSwgcADk/K++cjroOFwPqllCYfKIwighHyzMMPgJYccduvkoHxi3lSusrcPsWbFJA4fZBekPp2rLKDhI2VJd0c5ob1m0IXwy27ZkzFCyd345UtUd4UWigd/YKW7Vpp0pZyUg+AZx5gQWnEKaUcIznT52lI8/voGBPR0Wb1jgyYSOsLldtCOuT2EmReQd5MwBaUUdP/Tucc2atZyHTjAD2JDBGCSkVQ/xDAtZLeHBM72TinuMo1AdQViftNtvvG9y0smmmnUfXcKq1mHMmD1rlrsiHjaVzrabUnrBEua7RdxE+Pr18RfkiBtEOCAVi/4j7aGTGEPL2bEGi+zVdkyFRzUh2QyT+2RXLWVAHXH8AFRbf/ttp4GXtNmf/DE2IB2fUXp3xHDnAhzvYJ+E8QOSPIx76PcYY4T8BTqey0YkfqPdoRJW1M77v+74NXaQZdR+phfwyAfkM2Xo53Ju0u4QwW66o3yrki7GArGzk2fJjuiQMImun8z6yKmDyntom+AoiYNh32jtoIGfuB5HGLHtk/Bh52EJn+iqcU6keoe4YAKwgSfjmj4yA++jfp9aFRfpYY5o3LiJs6929otWVVU0bPA+iFHSki8wsdBaQJ2g0idu1aP2S+QdRKJBgLEJ83U1+z3hWy9i/6HvwGYT5RPyPdpGKVeiMUvy8q++jSLeJ9t01/Z4qB/WhTXs2I/1Gcb+b6yt3rx5c137iCMHpJmpPoq08orynVFCRXACOSaUekce6fSK86pyydL9cKZVeVmwwDUkdunyirCzN3XKpNjAkSwfnNsBtSN/AYCBVy/G/DSwcICaB+Jr0vq8+rn/OzeMkj5oVafXvWcvZ6QetvMnYpSQJhZIODleBl2dj/4dxnhbhw+7GEIc7YZbp+H/LghGCWXQRrR+mfR9st3tVG2JdHKLgy5Dqt9+f9UHJ/pxkzFDyd756YSpu96x9ePjHotEbGRggvYZJb1YDIoL5kk2SrKJUUJZ/fYIKj+eBY0f+jBoHc9n1v1FrHYVLvHAPGOhK+NAMnViqO6NtipwImmVNPwrmKQOVh0KKiWawo4NyRYdft3r2XN6wCQkIzBKiJeMguw+koXfZBl52OAKbkFhsfDG4gsY+4ySvxHjx69QoaJjpJB+EKME1WlIW33SnrTwLko/Q3w9PyaS3mjGHfOrz4wjnSjfKuIL6fLgmT7rS8KEvcJeZeyY0XGL56C4WAPgwGq0p6aw87COE/Q7LKOEuNquEww6NGTQLqCo3yfS0N4Oce8TNgNWr1rlHgcxSv4mrMRHWbVtY9R+Kenqq1ZR08+DfutDwPX73JYr2Zil09e/RTUaz3x8dDj8hnYPNldSjb0IS0YJKKQgrc7Sxh6iWb16jRQxMvt6pfUqNGXSRJdossVYpnLFLgvyw06B3jGX9LG4wkSKxWwQwTMfDPmCJjxMbk2bNnOe9YLiQmrh7xxKOKilgOtPdeCehNdXnBI9ZsyomF60vBP1OXw0g97e7S41mWRAH6oXpPuKHSQsZnG4oU+YHKrZvnNikyZxutB+OP8e3q5EdzzZDonEgw482g/t6BMGD9iuQJQskwHChMkjjERJqwkkKit2ylE+vcMr5YQkrnnLlm7nSp7511RtKeFzg4PEDXPVKqip3L2LgbYvSUU+8i5ILc8vR9i6Ywd++rSpcd8g+l85Kx06vVMXAw9VkIoF2eSgr2FTRn/7WKyh30Di8N47I1yxfBso3YfCqlxJ/bQKTCLDXe1dMohBQVpRxg9sEK2wUl9NOMkdqlGatOOBRH1cq3+mclCDeoHxWGzPrfLHTLRZlapVTWt7XAGYJZ805onKgjip8NXeEhE+VZmhfgjvj1iQ+oT5AZJi9I90CePwOOue3vegh7rXr1/fjlsNY2eswZMW7D40YfwBltCOEAKGh1hbn1NP7+hscoDxQVZi1L1HLwkSu6L/gAHRfR+bA3CepClKP9NYJ5prtDpTkMqWlCW336rEx1Uz25lyXIV2gK2pqELq/IA9NivgRdOnsPOwH8+/R/tjswKUDD+JJ67/ce+bNkT5PiV9X9KG5xhTa1n7xkYnnvjH2qNmsA01pEcTrEqrlj5B7RXeCjVF6Zc6HfkNb8gzZ8xwUm1/bJIwmFNg55PsOIDclCvVmCX566ten/ntqMPJb9QJHnkxX+pvXt5jk+vEk05yx1HIs0z1UUkvL64FIlFCRcQmASoR8AYDlZb8IEhmoHv5i9VlTeUtLC/KA3WKjd9tNDt+3WENLss7NRRfghSULwYXqPpstTumv9rJFFIUfFClSqX2gIT00BkxOGAixsAKd8uYgKMSzrv53pYLrsUxeYapS27yxAeIU6w3WYapVMlSrg5QQcztmSW5KQOwg9oJ2gCqk1AnEc9KuUkv03EwmX1n+xbKV/qAA5wKHtQgw1LYtsx2HMLWV4cLW3ds8kAfG/0dhz6H7e9gotB/t/y4xdkb4tvdmyi34wfibdyw0VUVLtGDbHDyEoeffrLj7YYNLovyVgICBjybCf3rxy0/uk2P0geUdmNM0AI43TpgQfitHbugcn6Y1TwQz3natsC37ZE83Nhrx3ioipcpc6BdKFdOa9zFeIF80BcwRwTZLkheue1nEj8T16jfqj66oa3dCMZmXqYIZcMchE27snYOxziSn3Ngpuoh6UT5PtEvMd+hX2IBDnvpdAjxv7e2sGBeypYr71TrE8XPi36JOWezXc9AAlOiREk3NkEym84YmRflSoRBus9Rv422r2KOxIY+xrF01iPp5peX4QuMUUKlZMcRnRwGvEGGt5msPDok9CihklCjZk1rGNsuk8kzLSJABIgAESACew0CWhoTJO3bayqSJQXF4hvqSrhCagebMhIRIAJ7NwIFyihhB3ysVd/Cjh+YJbiZzivJEiRJcMENJgmGe6d37BxnxLt3NyNLTwSIABEgAkQgPAKQTsBRCRb1oHTPPwmf074TUjOeiWxM9h00WFMiUDgQKFBGCRDCRmDSpAmOWYIaXjNrq5NpmyXYJMHDFNTtwCS1a9fBqc4UjiZkLYgAESACRIAIxCPwzvChTtXthIYNc6how14Wdo1ieF0zgS1HfIq8S4YAjjQY+e4IZ5sBdSPYu+ytqkbJ6sl3RGBfQ6DAGSUADskSDKXF8Bfe8E6wRqZRXYdDH3vevDnOkBr5QN0OZyfAAJ9EBIgAESACRKCwIiBOTVA/2KPCrhK2rlu3/mQdj/zhmAbzIc5XS8c2orBilm691q9bZ51wTHF2GPAwJ9TkpKY5PNDJO16JABHYuxDICkZJIBMHD7jHOUv1jz7a+bXX525I2GRXGMTicLOvv4Lb091qBQXhuCFZGfmOCBABIkAEiEBeIeC7qQ7Kp6o9l69Fq9YZcewTlH5hf7Z69Sp3hIWuZxjvYDo8fxMBIpDdCGQVowSowOTMmzvXnbMk0MHFJtzX4npw2YOdx57ixXe7dt25c4fzEPTDZuthw7pJ/mbt2tiBgoiPA69OaGAPeVSHHEq6vBIBIkAEiAARKKwIwKX/0iWL3fk10LBwHqjgLc0ecilzamGte37UC+uVaVOnukN84U22fv1jHK75kTfzIAJEIH8QyDpGSaoNpgcnTi9butSeHZDzbAkJF3QFE1Wrdm13gjWYKxIRIAJEgAgQASJABIgAESACRCAdBLKWUZJK4NCqtWvWGOyMwVhyy5YfrAOIn82OPczTfpYpKlmqpPPRXt7ukuEwNBwoiEPxSESACBABIkAEiAARIAJEgAgQgdwgkPWMUm4qxThEgAgQASJABIgAESACRIAIEIEoCJBRioIe4xIBIkAEiAARIAJEgAgQASJQKBEgo1Qom5WVIgJEgAgQASJABIgAESACRCAKAmSUoqDHuESACBABIkAEiAARIAJEgAgUSgTIKBXKZmWliAARIAJEgAgQASJABIgAEYiCABmlKOgxLhEgAkSACBABIkAEiAARIAKFEgEySoWyWVkpIkAEiAARIAJEgAgQASJABKIgQEYpCnqMSwSIABEgAkSACBABIkAEiEChRICMUqFsVlaKCBABIkAEiAARIAJEgAgQgSgIkFGKgh7jEgEiQASIABEgAkSACBABIlAoESCjVCiblZUiAkSACBABIkAEiAARIAJEIAoCZJSioMe4RIAIEAEiQASIABEgAkSACBRKBMgoFcpmZaWIABEgAkSACBABIkAEiAARiIIAGaUo6DEuESACRIAIEAEiQASIABEgAoUSATJKhbJZWSkiQASIABEgAkSACBABIkAEoiBARikKeoxLBIgAESACRIAIEAEiQASIQKFEgIxSoWxWVooIEAEiQASIABEgAkSACBCBKAhkPaO0a9cuM2PGDDNnzhyzYP58s3LlSrNp03dm+/btrt6lSpUy5ctXMNWrVzdHHnWUadiwoWnevLkpUqRIFFwYlwgQASJABIgAESACRIAIEIF9GIGsZZS+/OILM2z4MDNmzBizfdu2tJqoVOnSpmPHjqZH9x7mmGOPTSsuAxMBIkAEiAARIAJEgAgQASJABLKOUVqyeLF57vnnzITx42OtA2an6UlNzbH2WrNWLVOpUiVT2jJDoG2WidqwYYNZvmyZ+cIyVx99/JEBkyXU4dRTzeWXXW7q1K0rj3glAkSACBABIkAEiAARIAJEgAgkRSCrGKWXX3rJPPHE467AxYoVM+ece64588zupk6dOkkr4b9csmSJGTFiuBnQv7/57bff3OtrrrnWXHLppX5Q3hMBIkAEiAARIAJEgAgQASJABHIgkBWM0i+//GLuuvNOM3HiBFfAnr16mSsuv8JUtJKjKLTRSpqefe5ZM3TIEJdM+/YdzN333GNKlCgRJVnGJQJEgAgQASJABIgAESACRKCQI1DgjNKmTZvMDX/9P/P555+bsuXKmTvvvMu0bds2o7BPnjzZ3HPP3Wbz99+b4447zjzy6H+tA4jyGc2DiREBIkAEiAARIAJEgAgQASJQeBAoUEYJkqQrLr/MMUnwWHffffc773V5AS+85d12263Ocx6YpWefe56SpbwAmmkSASJABIgAESACRIAIEIFCgECBMkq33HyzU7cDk/TEE0/muZQH0qtrrrnaMUtQw3vgwQcLQROyCkSACBABIkAEiAARIAJEgAhkGoECY5TEcQPU7V5++ZU8kyT5gEGydMklFzs1PDp48NHhPREgAkSACBABIkAEiAARIAJAoEAYJbgA79PnLNcCDz38SMZtklI1LWyWbrrxBhds4MBBdB2eCrC98P2UKVPM8uXLTJkyB5revXvnSQ1mzfrYTJ402SxcuNAUL17cnHPOOaZNhu3r0in4iuXLzeQpk12Url27mYoVK6YTnWGJABEgAkSACBABIkAEFAIFwijdeust7pwkeLfr1+9OVZz8+3nvvfc4b3g4Z+n++x/IeMa///67AUMmVK9ePVOtWjW5TXj94YcfzCeffOLe49yoypUrJwxb2F8ss2djLV261Bxgz8w6uVmztKrbr98dZszo0ab0AQeYadOmpxU3TODHHvuvee3VV+OC/vmyy8yVV14V9yw/byZPnmQ3AG50WT73/AumcePGobNfMH++Wb1mjSmx//6mRcuWoeMxIBEgAkSACBABIkAECisC+c4o4TDYCy/sa3BO0qhRoyO7AM9tw8B1eOfOndw5S6+99rrBobaZJDiqOKXZybEka9eubd58q7/Z3y5EkxG8/1180YUuSD/rMr1nz17Jghfad1u2bDG9evYwsCvDWVp/+/vf06prXjJKM2bMMNdde02sPGC2S5YsaRo2aGi69+gRe57fP6IwSvPmzTOXWpVUEFzod+7cxf3mHyJABIgAESACRIAI7KsI5DujBDfdw4YONedfcIG54Ybdu98FBf4jjzxs3nzjDdOjZ0/nljyT5fAZJaR95VVXmT//+bKk2ZBR2g3PbbfeasaPH+ckagMHDbYqdGWS4ua/zEtG6frrrzPTp01zWQ54e6A54ogj/OwL5D4Vo7Ru3TozYcJ4M2vWLPOodZFftGjRuHI+/fRT5oXnn3fP3nn3XVO16uFx73lDBIgAESACRIAIEIF9CYF8ZZR27dplWrZsYbZv22aw+K1Tp06BYr1kyRLT56zeppRV7YJ6VpEiRTJWniBGCYkPGTrM1KxZM2E+ZJSMmTp1qjtbCyA9/8KLplGjRgnxSvQiLxmlzp06mvXr1zsmbtToMYmKkO/PUzFKDz5wvxkwYIAr16xPZudglHbs2GH6XnC+WbRokWl68snmqaeezvc6MEMiQASIABEgAkSACGQLAvnKKE2fPt1cf921Ts0N6m7ZQFADhDrgY/973LRo0SJjRUrEKJ3QoIF5wS7+/d18yZiMkjEX9r3AfPnll6ZZs1PME08+KdCkdc1LRqlxo4auLN3OOMP84x//TKtceRk4KqOEsmkm9bXX3zDHHHNMXhaZaRMBIkAEiAARIAJEIGsRyFdG6fHHHzevvPySufTSP5mrr/nDxqMg0XnyiSfMSy+9aC6+5FJz7bXXZqwomlGCndGKlSvM7D1OGpLZHu3rjNKcOZ+aP//pT64dnnn2WdOkyUm5apP8YJTgTe/2O/rlqnx5ESkTjBKckPTu1dOsWLHCnHrqaea+++/Pi6IyTSJABIgAESACRIAIZD0C+cooXXP11WbmzA/MI488alq3aZMV4Ey1bqRvuOGvkaQXQRXRjBJsoC666GLT/cwzXFB4YhtqVfAqVaqUI2pYRgnODoYNG+pcUy9csMCss6pgdazDiCOPPNI0Oamp6dChQ4608WD+/K+djRh+X2jLVKFCBTN27BjHxM2cOdOUKlXa1D+6vnOpnYpJWbVqlXnnnRFO+oNyH2o99NWvX9+0at0mYf7INxn97a47zciRI53dD+x/EhHUxEYMH27ghAD/t2/fZhpZL2/w9NajR08r6fl7Sq932376yQwePNh89tlnNo25Zr/99jNHH32MadCwgTn77HPcveQPBg5e9ECIA6pRo4Zl5Jq43yVKlDQ37PE4hwdwQoHyffbZPMd0bNi40eFTp05dZ5933HHHuXj6z+hRo8zcuXNMcVuOm2++Rb+K/Ua9H3rIHpRs1VibWwloq1atY++CGCX0w0cefsiFmWbtqqAyCOrevbtzaY7ffn8ZPmyYufvuf+GVGTd+gusj7oZ/iAARIAJEgAgQASKwDyGQr4zSGd26mTVrVpuhw4a7RWY24Iyd8549ujvDdRiwZ4p8RunOO+8yr7/2mvnvfx91WbRt28489PDDObILwyjhjKB7rVMMLMYTEdK/o18/U758+bggejH9v8efMP3fessxr3GB9tzcfMut7mygoHfjxo01t992W9Ar9wxqabfddrvzBpcwkPcCNmytWrU0YGDgZhvutoPo22+/tWnfaubNnRv02p7L1c49R10TuQfH2UdwpY3+GERQObvPuo2vUqWKe62Zh6DweDb70znu1dixY80dtyfGBoFuuulmc+5557nw8gfM3bvvvONuJS15J1cwyG3b7GaOfHfkum3FPfhPFstW1i4wGZ3Vp49rKwmzwXqE7Hj6ae72/gcezDXTK+nxSgSIABEgAkSACBCBvRGBfGWUWjQ/xe78bzfTps8wpa0DhWygbdaxRMsWza0kpZSZPuODjBUpiFH67bffrP1NXyfVQUZglGRRLxmnYpR8BgXqUY0aN3IMycqVK50UQxgoLPZfefW1OHsovZiWPCE5ggRq/xL72wNUJ5n3339fXpkxY8flkHyNGjXS3GVdlwtdfPElpp6VZG3Y8K156803Y1KLK674i7n8iiskWMorzk2C2hcokRMH9J8zunWNMYnwOHfqaaeZww+vZlbZ+r/62quO0ZLMghgl4NSj+5kSxHTp0sWp+O3YucOMGbNbuoaXDRs2Mi+8+KILB7XJd9/bzUgLM4O027dv797jwFkww6CXbJwnn3zCMWmnWdfhR9Q70pQrV85AKjVo4B9SslFWQlW58qEuDv7kBaP0888/m/vu+4/L4zMrecPGAAiMrNCJJzYxXbt2lVt3xeYBwkKydov1QEgiAkSACBABIkAEiMA+h4Ddxc83atSwwS78zzbKi3LZBaqrK9K2akyxKs//+uvY8w7t2+2yEoLYO/ywamCx90OGDI579+OPP+5CHCmvlSzFvcfNxo0bd11yycWxMCNHvhcXZtKkibF3SOfxx/+3yzJwsTDWRmXXPXffHQvz/HPPxd7hhy5DixbNdy1ftizuPepjmZ1Y/O9secLSiBHDY/EsoxkY7eWXXoqFueOO23dZxiku3HfffbfrvHPPjYVBGX267rprY+8nTpwQ9xpY/PMf/4i9tw5I4t7jRvD/97335HiHB5ZR2vWvf/5jF8ri04svvBCL379//7jXf//732Lv4l6oG3sgcSzMU089qd7s2qXb1h5aHPcONw/cf18srm7zHAFVWLQliQgQASJABIgAESAC+yIC1tQh/0gWmPmXY7ic8qJciRgllOipJ5+MLVj9xXYyRum5Z5+NxQPDkIisJCAWrlvXrnHB9GIai+CdO3fGvcfN2rVrY/HBjGjSZbDSJ/0q9vv996fG4r8zYkTseaofL7zwvItnpT2BQcGkgfFBe+HqM0kSadGihbH8fUZp1scfx949/NBDEiXuCuZO+gSYF5/knd92Ei4IU3m3efPmWNoPPHC/PHbXbGKUBr79tiunj19cgXlDBIgAESACRIAIEIFCjEC+MkrNT2nmFl/WbiJrIEVZsPBF2TJJyRglvAMzIAvuTz+dHcs6GaN07TVXxxavVmUwFifox6233BJLX4fVjJK1mQqK6p6J5OqiC/vGhbn6qqtiZUgkldDMwDPPPB0XP9kNGBdg8qdLLw0MprF5+eXEjCIii1TLX+gjnuC+ePHiwHzw8Ow+Z7lwkM75JPETMUp+eNxDQgbp24wZM2L533jDDXFBs4lRGj9uXKycv/76a1w5eUMEiAARIAJEgAgQgX0BgXy1UdrXnTlovU7Yq4gbbHhPg4e3/fff3ySzUZKDTuExDbZHyejFF18wVnLlggwcOMjUqVvX/dY2Sv997DF7AHCrwGTkLIeClngAAA4gSURBVCOUDc43hE7t0D5mH1TbetkLIstAxWxhOnfuYu6+556gYDmeice7Dtau537rSMEn2A/1u+N29/ipp58xTZs29YPE7m+99RYzYfz4HM4ctB0Q6lasWLFYHP1j6dKl7jbIxknOUUrmHhwOJ6ZMmWw+/uhj89VXX8bstnQebdq0MQ9bD5BCumyZcuYgaeOa6sBZHfbjjz82V/5lt30ZPd9pZPibCBABIkAEiAAR2FcQyFdGaV92Dy6G/rpjPWDPqHn77QHuEZwewPlBIkZJO4cIw3zA4QAW3iB4t2vevLn7rRkl8YzmXnh//mLLM2vWx847oTBKVhJmrOTNC5n8tlWrVubR/z6WPNCet7dZpwHjx48zHTt1Mvfe++8ccV54/nnz9NNPuedDrHv1mjVr5ggjDxKdo3TxRRc6jCVcmKvPtKRilKytlfnXP4MPoq1sXaiLi+5sZpQ0I+87nQiDGcMQASJABIgAESACRGBvRyBfGaV99cBZnKMUxCht3brVeV8TL3WQ/GyzXt2wmAfpg2khpTmpyYnueYuWLc1jj/3P/U70Z8CAAU6CgPdvWhfgRx1V3wWNwijhMNImJzZ26cDt+NXXpD6gt9rhh5vGJ+4ut4uY5M9//vNvM3jQoIRnWlnHEsaq8rkUIIGDx7tEdNVVV5qPPvwwh0TpumuvMVb9zUW762+7GclEaeB5yZIlTceOHeOCJGOUNKOLSGAUO1jPhMdaD4SHWVfjkBqKVC43jJJ15mDatW3jyhPGPbgLuOdPOhKlKZMnmxtvvMHFzCYvlbo+/E0EiAARIAJEgAgQgTxFID/1C+2Bl87uoW/fC/Iz26R5oSywOUHZMknJbJR0PtPefz9mCwJ7IG2H43u9E7sb30GDTk9+i70P6mYZMnmc0jOaBLzi8stduXzHCmJb5T+XeFGuVlrk8oR9UBDBg5/YB02dmtPjn47TqePpLqxvo6Q9v9nzgnSU0L+lDEE2SnB+Ie+/+PzzHGnaA2Nj72/46//FvbeMYuxdIju+BQsWxMLkpde7YcOGxfKJKyRviAARIAJEgAgQASKwjyCQr84c4Hq6efNT3AIsmSF9fmGPMmBRizKhbJmksIwS8tSL67vu7BdboPqMkg73yaxZCYsLb3DijAFXTdqZQ5ALaQmbiFHC4l4YAd81uMTN7RXuspE2mJug9pg7Z04sb+CUiOxhsrFwPqMkeSCfdDzy6byk/kGMUipm9quvvoqVzWeUtOtz1CGIhg4ZEosfhVFK5H5d8nz2mWdcPn7/kfe8EgEiQASIABEgAkSgsCOQr4wSwMSZQlhoPvxwsGvm/AQcZUBZ9DlHmco/HUYJ5+1gQS8LcLn6jNKHH34YCwOpC9xlB9Hzzz8XC2cPgI0LEpVRGjVyZCxteMBL5Aob5/2kkvrEFczezJ49O5Z2ECMNKYvG6YsvvvCT2AUPbZdd9udYOj6jZA+bjXtn1R5zpIEHqBfqGkTSPkGMkkjcEGbdunVx0eElUJfNZ5RGjx4dK9v9990XFxc3kAwKA4z002WUnnji8Vj6q1evypG+fgDPg8jj5ptu1I/5mwgQASJABIgAESAC+wwC+WqjBB3CL7/4wlx4YV/nbWzUqNGmYqVKeapamCjxjRs2mM6dOxnY/rz22uvmmGOPTRQ0V8+184VENko64dGjRlk7pn76UZyNkrwQhwe4h2OAO+7oZ447/nhzwAEHOE9zb735hhk+fLeXOnil6z/gbVO8eHGJbqLYKCER2Cn1veACM3/+1y7NY6ztzQ033mjqHVHP7GftbywjYmbP/sTAHq1Ro0YpbaliBbM/NGa3336H6X3WWfq1+z1o4EBz333/iT3/xz/+aZq3aGHKlCljFi1caL3l3We+/PLL2Psgr3WPPvqIeeP1110Y2FrdeuttplHjxqZs2bLmm2++MV9//bV51tpCwfOd78gBkZLZKN11551m1KiRLm3YJ1188SXmaIvRihXLzSOPPOLsptxL+8e3Udpi7Y/a7rE/Qpgrr7zK9Ord29XNSqLMPXf/y5VJ4qdrozRs6FBzzz13u+jwLHj55Ve479BKIE39+rtt2PDSupM3LVvsdv5x2223m7P69JEseSUCRIAIEAEiQASIwD6DQL4zSkBWXDf37NXL9Ot3Z4GAfe+99xirxmQN7YNdUUctlF70h2GUkJ92NIB77cwB9yArfTL2jCQDr2TJCEzS/Q88aHwX3lEZJeS5YP58c801V8fchCcqRxinE35c8baXyFuelRiZG/76VzNz5gd+1Nh9ly5dzC82XJB7cATasmWL+b//u97Mmzs3FifRj3QZpUWLFplzzk7MWHQ74wwzY/p0h53PKKEM9tBd8/RTuz37BZXp4ksuMa+8/LJ7lS6jtHHjRnP6aafmSBaMEBgiITi7QF8Eadfy8p5XIkAEiAARIAJEgAjsCwgUCKO0ZPFi06fPbmnBQw8/YnfR2+Yr1pOtR6+b9nj0yquFoDXaNyc3PcnV6+yzzzG3WNfXqQjSjK5dOseC/e3vfzdnntk9di8/INUZMKC/sTYtOZgVSFD6nNXHXPGXvzgPaxJHrtOnTTPXX3+du03mHlyYNjBagwYPkeixK6QfDz74YEx6Enthf6AM559/vitH+QoV9KuUv7Vb82HDR5jq1avniIP6v/jCCzEPeBIA0iG4Tr/u+uvN3/52lxkzenQOr3cSFpLEV1552f5/xWz76Sd5HLt27dbN9O3b19Stm9OznkiUzjvvfHPjTTfF4siPD2fONP/+97/NmjWr5ZErR7eu3Vz4jqef5tqtffv25oEHH4qFwQ8ryzZDhw4x/7733rjnqNv5VpLXs2cv07ZNa/fuL3+50lx2+eWxcLptX3rpZXNCgwaxd/JjypQp5q677oyrM6Re1163u08gnLjxh1dBSCSLFCki0XklAkSACBABIkAEiMA+g0CBMEpAF4t8azNhypYrZ15++ZXABXFetAJUwy655GKz+fvvrVTkWnPJpZfmRTb5lubmzZvNiuXLXX6HV6tmKqTJmEQtKBiO1atWmdVr1piDDjrIqQNWrFjRFC1aNFdJQ2LUxapEwmW6L+nwEwTDtHr1ave/Vq1a5rDDDvODhLrH4bDLli1zKoqHHlrZVKp0SCCTGSqxPYGAyxqLyVr7v4LFo06dOmlhIriuWbvWVLPtiv+ZIpyHtcq2GSRrYITL2W9QCNLC8847193i0F9IXElEgAgQASJABIgAEdgXESgwRglg32x3461zAXPkUUdZpulJg13zvCQsvqEyhsVgu3btzYMPxe/m52XeTDs8Am9aO6tHHn7YRXhv5KhcM0Dhc2RIQeCWm28yEydONFWrHm6GWVu3YsWKySteiQARIAJEgAgQASKwTyFQoIwS7HiuuPwyg0M6wSzdd9/9eSZZgiTptttudUzScccdZ5597nlTokSJfaqx95bKQqp0Yd8LDOx9cFjtM888m5Y0Zm+pZ7aVc+zYseaO229zxXraYn7SSbtVR7OtnCwPESACRIAIEAEiQATyA4ECZZRQQUh5rJtkxyxBDe/OO+/KuM0SbJLg7QvqdmCSHnn0v3kuvcqPxivMeSy36oS9evZwVfzrX28wF1h7IVLeIbB+/TrT23rYg73WpX/6k7n66t3OHPIuR6ZMBIgAESACRIAIEIHsRqDAGSXAA8nSnf36OTU83MMb3hXWdXFU1+FwAf7sc88673ZIF+p291gjeUqSgEb2E5wTQNpYqnQp52Y7+0u895YQOAPv/fbfz2GtXcrvvbViyYkAESACRIAIEAEikHsEsoJRkuKLgwfcwzbinHPPdV7fYAifDi1ZssSMGDHcDOjf352ThLiFwXFDOhgwLBEgAkSACBABIkAEiAARIAK5RyCrGCVUA67Dn3v+OXcGjlQLh8E2PampOdZea1rvZpXsIbWlS5d2r3E45gYrOVpuvZZ9YQ+z/ejjj9yhthLXHax52eWmTt268ohXIkAEiAARIAJEgAgQASJABIhAUgSyjlGS0n5pmZ5hw4eZMWPGmO2WGUqHSlkmqmPHjqZH9x4GTBaJCBABIkAEiAARIAJEgAgQASKQDgJZyyhJJXAA54wZM8ycOXOcxzp4r9u06Tuzfft2F6RUqVLWMUMF5y0PnvMaNmxomjdvzkMyBUBeiQARIAJEgAgQASJABIgAEUgbgaxnlNKuESMQASJABIgAESACRIAIEAEiQAQiIkBGKSKAjE4EiAARIAJEgAgQASJABIhA4UOAjFLha1PWiAgQASJABIgAESACRIAIEIGICJBRigggoxMBIkAEiAARIAJEgAgQASJQ+BAgo1T42pQ1IgJEgAgQASJABIgAESACRCAiAmSUIgLI6ESACBABIkAEiAARIAJEgAgUPgTIKBW+NmWNiAARIAJEgAgQASJABIgAEYiIABmliAAyOhEgAkSACBABIkAEiAARIAKFDwEySoWvTVkjIkAEiAARIAJEgAgQASJABCIiQEYpIoCMTgSIABEgAkSACBABIkAEiEDhQ4CMUuFrU9aICBABIkAEiAARIAJEgAgQgYgIkFGKCCCjEwEiQASIABEgAkSACBABIlD4ECCjVPjalDUiAkSACBABIkAEiAARIAJEICICZJQiAsjoRIAIEAEiQASIABEgAkSACBQ+BMgoFb42ZY2IABEgAkSACBABIkAEiAARiIgAGaWIADI6ESACRIAIEAEiQASIABEgAoUPATJKha9NWSMiQASIABEgAkSACBABIkAEIiJARikigIxOBIgAESACRIAIEAEiQASIQOFDgIxS4WtT1ogIEAEiQASIABEgAkSACBCBiAj8P2Un0+kELG01AAAAAElFTkSuQmCC;rounded=0;" vertex="1" parent="1">
          <mxGeometry x="50" y="340" width="264.7" height="100" as="geometry" />
        </mxCell>
        <mxCell id="_bzIca81G6JWRWRTaQMl-26" value="" style="endArrow=classic;startArrow=classic;html=1;rounded=0;entryX=0.5;entryY=1;entryDx=0;entryDy=0;exitX=0.5;exitY=0;exitDx=0;exitDy=0;" edge="1" parent="1" source="AcxdMaKK0mU5kZiv2lnr-4" target="_bzIca81G6JWRWRTaQMl-5">
          <mxGeometry width="50" height="50" relative="1" as="geometry">
            <mxPoint x="350" y="450" as="sourcePoint" />
            <mxPoint x="400" y="400" as="targetPoint" />
          </mxGeometry>
        </mxCell>
        <mxCell id="_bzIca81G6JWRWRTaQMl-33" value="PEERING" style="edgeLabel;html=1;align=center;verticalAlign=middle;resizable=0;points=[];" vertex="1" connectable="0" parent="_bzIca81G6JWRWRTaQMl-26">
          <mxGeometry x="0.0892" y="1" relative="1" as="geometry">
            <mxPoint as="offset" />
          </mxGeometry>
        </mxCell>
        <mxCell id="_bzIca81G6JWRWRTaQMl-27" value="" style="endArrow=classic;startArrow=classic;html=1;rounded=0;entryX=0.5;entryY=1;entryDx=0;entryDy=0;exitX=0.5;exitY=0;exitDx=0;exitDy=0;" edge="1" parent="1" source="_bzIca81G6JWRWRTaQMl-8" target="_bzIca81G6JWRWRTaQMl-5">
          <mxGeometry width="50" height="50" relative="1" as="geometry">
            <mxPoint x="470" y="510" as="sourcePoint" />
            <mxPoint x="601.4300000000001" y="299.943" as="targetPoint" />
          </mxGeometry>
        </mxCell>
        <mxCell id="_bzIca81G6JWRWRTaQMl-34" value="PEERING" style="edgeLabel;html=1;align=center;verticalAlign=middle;resizable=0;points=[];" vertex="1" connectable="0" parent="_bzIca81G6JWRWRTaQMl-27">
          <mxGeometry x="0.1221" relative="1" as="geometry">
            <mxPoint x="1" as="offset" />
          </mxGeometry>
        </mxCell>
        <mxCell id="_bzIca81G6JWRWRTaQMl-28" value="" style="shape=image;verticalLabelPosition=bottom;labelBackgroundColor=default;verticalAlign=top;aspect=fixed;imageAspect=0;image=data:image/png,iVBORw0KGgoAAAANSUhEUgAAAcIAAACqCAYAAAA+yE/GAAAMQGlDQ1BJQ0MgUHJvZmlsZQAASImVVwdYU8kWnluSkEBoAQSkhN4E6QSQEkILIL0INkISIJQYA0HFjiwquHaxgA1dFVHsgNgRxcIi2PuCiIqyLhbsypsU0HVf+d5839z57z9n/nPm3Jl77wCgdpojEuWg6gDkCvPFsSEB9HHJKXTSE0AG6oAELIAFh5snYkZHRwBYhtq/l3c3ASJtr9lLtf7Z/1+LBo+fxwUAiYY4jZfHzYX4MAB4JVckzgeAKOXNpuWLpBhWoCWGAUK8SIoz5LhSitPkeL/MJj6WBXEzAEoqHI44AwDVdsjTC7gZUEO1H2JHIU8gBECNDrFvbu4UHsSpEFtDGxHEUn1G2g86GX/TTBvW5HAyhrF8LrKiFCjIE+VwZvyf6fjfJTdHMuTDElaVTHForHTOMG+3s6eES7EKxH3CtMgoiDUh/iDgyewhRimZktAEuT1qwM1jwZwBHYgdeZzAcIgNIA4W5kRGKPi0dEEwG2K4QtDpgnx2PMS6EC/i5wXFKWy2iKfEKnyhdeliFlPBX+CIZX6lvh5KshOYCv3XmXy2Qh9TLcyMT4KYArF5gSAxEmJViB3ysuPCFTZjCjNZkUM2YkmsNH5ziGP5wpAAuT5WkC4OjlXYl+bmDc0X25IpYEcq8MH8zPhQeX6wZi5HFj+cC9bOFzIThnT4eeMihubC4wcGyeeOPeMLE+IUOh9E+QGx8rE4RZQTrbDHTfk5IVLeFGLXvII4xVg8MR8uSLk+ni7Kj46Xx4kXZnHCouXx4MtBBGCBQEAHEljTwBSQBQRtffV98E7eEww4QAwyAB/YK5ihEUmyHiG8xoFC8CdEfJA3PC5A1ssHBZD/OszKr/YgXdZbIBuRDZ5AnAvCQQ68l8hGCYe9JYLHkBH8wzsHVi6MNwdWaf+/54fY7wwTMhEKRjLkka42ZEkMIgYSQ4nBRBtcH/fFvfEIePWH1Rln4J5D8/huT3hC6CA8ItwgdBLuTBYUiX+KcizohPrBilyk/ZgL3BJquuEBuA9Uh8q4Dq4P7HFX6IeJ+0HPbpBlKeKWZoX+k/bfZvDD01DYkR3JKHkE2Z9s/fNIVVtVt2EVaa5/zI881rThfLOGe372z/oh+zzYhv9siS3CDmEt2BnsInYcqwd07BTWgLViJ6R4eHU9lq2uIW+xsniyoY7gH/6Gnqw0k3mONY69jl/kffn86dJ3NGBNEc0QCzIy8+lM+EXg09lCrsMourOjszMA0u+L/PX1Jkb23UB0Wr9zC/4AwOfU4ODgse9c2CkADnjA7X/0O2fNgJ8OZQAuHOVKxAVyDpdeCPAtoQZ3mh4wAmbAGs7HGbgDb+APgkAYiALxIBlMgtFnwnUuBtPALDAflIAysBysARvAZrAN7AJ7wUFQD46DM+A8uAzawQ1wD66eHvAC9IN34DOCICSEitAQPcQYsUDsEGeEgfgiQUgEEoskI6lIBiJEJMgsZAFShqxENiBbkWrkAHIUOYNcRDqQO0gX0ou8Rj6hGKqCaqGGqCU6GmWgTDQcjUcnohnoVLQQLUaXouvQKnQPWoeeQS+jN9BO9AU6gAFMGdPBTDB7jIGxsCgsBUvHxNgcrBQrx6qwWqwRPudrWCfWh33EiTgNp+P2cAWH4gk4F5+Kz8GX4BvwXXgd3oxfw7vwfvwbgUowINgRvAhswjhCBmEaoYRQTthBOEI4B/dSD+EdkUjUIVoRPeBeTCZmEWcSlxA3EvcRTxM7iN3EARKJpEeyI/mQokgcUj6phLSetId0inSV1EP6oKSsZKzkrBSslKIkVCpSKlfarXRS6arSU6XPZHWyBdmLHEXmkWeQl5G3kxvJV8g95M8UDYoVxYcST8mizKeso9RSzlHuU94oKyubKnsqxygLlOcpr1Per3xBuUv5o4qmiq0KS2WCikRlqcpOldMqd1TeUKlUS6o/NYWaT11KraaepT6kflClqTqoslV5qnNVK1TrVK+qvlQjq1moMdUmqRWqlasdUrui1qdOVrdUZ6lz1OeoV6gfVb+lPqBB03DSiNLI1ViisVvjosYzTZKmpWaQJk+zWHOb5lnNbhpGM6OxaFzaAtp22jlajxZRy0qLrZWlVaa1V6tNq19bU9tVO1F7unaF9gntTh1Mx1KHrZOjs0znoM5NnU8jDEcwR/BHLB5RO+LqiPe6I3X9dfm6pbr7dG/oftKj6wXpZeut0KvXe6CP69vqx+hP09+kf06/b6TWSO+R3JGlIw+OvGuAGtgaxBrMNNhm0GowYGhkGGIoMlxveNawz0jHyN8oy2i10UmjXmOasa+xwHi18Snj53RtOpOeQ19Hb6b3mxiYhJpITLaatJl8NrUyTTAtMt1n+sCMYsYwSzdbbdZk1m9ubD7WfJZ5jfldC7IFwyLTYq1Fi8V7SyvLJMuFlvWWz6x0rdhWhVY1VvetqdZ+1lOtq6yv2xBtGDbZNhtt2m1RWzfbTNsK2yt2qJ27ncBuo13HKMIoz1HCUVWjbtmr2DPtC+xr7LscdBwiHIoc6h1ejjYfnTJ6xeiW0d8c3RxzHLc73nPSdApzKnJqdHrtbOvMda5wvu5CdQl2mevS4PLK1c6V77rJ9bYbzW2s20K3Jrev7h7uYvda914Pc49Uj0qPWwwtRjRjCeOCJ8EzwHOu53HPj17uXvleB73+8rb3zvbe7f1sjNUY/pjtY7p9TH04Plt9On3pvqm+W3w7/Uz8OH5Vfo/8zfx5/jv8nzJtmFnMPcyXAY4B4oAjAe9ZXqzZrNOBWGBIYGlgW5BmUELQhqCHwabBGcE1wf0hbiEzQ06HEkLDQ1eE3mIbsrnsanZ/mEfY7LDmcJXwuPAN4Y8ibCPEEY1j0bFhY1eNvR9pESmMrI8CUeyoVVEPoq2ip0YfiyHGRMdUxDyJdYqdFdsSR4ubHLc77l18QPyy+HsJ1gmShKZEtcQJidWJ75MCk1YmdY4bPW72uMvJ+smC5IYUUkpiyo6UgfFB49eM75ngNqFkws2JVhOnT7w4SX9SzqQTk9UmcyYfSiWkJqXuTv3CieJUcQbS2GmVaf1cFnct9wXPn7ea18v34a/kP033SV+Z/izDJ2NVRm+mX2Z5Zp+AJdggeJUVmrU56312VPbO7MGcpJx9uUq5qblHhZrCbGHzFKMp06d0iOxEJaLOqV5T10ztF4eLd+QheRPzGvK14I98q8Ra8oukq8C3oKLgw7TEaYema0wXTm+dYTtj8YynhcGFv83EZ3JnNs0ymTV/Vtds5uytc5A5aXOa5prNLZ7bMy9k3q75lPnZ838vcixaWfR2QdKCxmLD4nnF3b+E/FJToloiLrm10Hvh5kX4IsGitsUui9cv/lbKK71U5lhWXvZlCXfJpV+dfl336+DS9KVty9yXbVpOXC5cfnOF34pdKzVWFq7sXjV2Vd1q+urS1W/XTF5zsdy1fPNaylrJ2s51Eesa1puvX77+y4bMDTcqAir2VRpULq58v5G38eom/021mw03l23+tEWw5fbWkK11VZZV5duI2wq2PdmeuL3lN8Zv1Tv0d5Tt+LpTuLNzV+yu5mqP6urdBruX1aA1kprePRP2tO8N3NtQa1+7dZ/OvrL9YL9k//MDqQduHgw/2HSIcaj2sMXhyiO0I6V1SN2Muv76zPrOhuSGjqNhR5savRuPHHM4tvO4yfGKE9onlp2knCw+OXiq8NTAadHpvjMZZ7qbJjfdOzvu7PXmmOa2c+HnLpwPPn+2hdly6oLPheMXvS4evcS4VH/Z/XJdq1vrkd/dfj/S5t5Wd8XjSkO7Z3tjx5iOk1f9rp65Fnjt/HX29cs3Im903Ey4efvWhFudt3m3n93JufPqbsHdz/fm3SfcL32g/qD8ocHDqj9s/tjX6d55oiuwq/VR3KN73dzuF4/zHn/pKX5CfVL+1Php9TPnZ8d7g3vbn49/3vNC9OJzX8mfGn9WvrR+efgv/79a+8f197wSvxp8veSN3pudb13fNg1EDzx8l/vu8/vSD3ofdn1kfGz5lPTp6edpX0hf1n21+dr4Lfzb/cHcwUERR8yR/QpgsKLp6QC83gkANRkAGjyfUcbLz3+ygsjPrDIE/hOWnxFlxR2AWvj/HtMH/25uAbB/Ozx+QX21CQBEUwGI9wSoi8twHTqryc6V0kKE54AtkV/TctPAvynyM+cPcf/cAqmqK/i5/RfSgHxwyICe4QAAAIplWElmTU0AKgAAAAgABAEaAAUAAAABAAAAPgEbAAUAAAABAAAARgEoAAMAAAABAAIAAIdpAAQAAAABAAAATgAAAAAAAACQAAAAAQAAAJAAAAABAAOShgAHAAAAEgAAAHigAgAEAAAAAQAAAcKgAwAEAAAAAQAAAKoAAAAAQVNDSUkAAABTY3JlZW5zaG90HtS0NwAAAAlwSFlzAAAWJQAAFiUBSVIk8AAAAdZpVFh0WE1MOmNvbS5hZG9iZS54bXAAAAAAADx4OnhtcG1ldGEgeG1sbnM6eD0iYWRvYmU6bnM6bWV0YS8iIHg6eG1wdGs9IlhNUCBDb3JlIDYuMC4wIj4KICAgPHJkZjpSREYgeG1sbnM6cmRmPSJodHRwOi8vd3d3LnczLm9yZy8xOTk5LzAyLzIyLXJkZi1zeW50YXgtbnMjIj4KICAgICAgPHJkZjpEZXNjcmlwdGlvbiByZGY6YWJvdXQ9IiIKICAgICAgICAgICAgeG1sbnM6ZXhpZj0iaHR0cDovL25zLmFkb2JlLmNvbS9leGlmLzEuMC8iPgogICAgICAgICA8ZXhpZjpQaXhlbFlEaW1lbnNpb24+MTcwPC9leGlmOlBpeGVsWURpbWVuc2lvbj4KICAgICAgICAgPGV4aWY6UGl4ZWxYRGltZW5zaW9uPjQ1MDwvZXhpZjpQaXhlbFhEaW1lbnNpb24+CiAgICAgICAgIDxleGlmOlVzZXJDb21tZW50PlNjcmVlbnNob3Q8L2V4aWY6VXNlckNvbW1lbnQ+CiAgICAgIDwvcmRmOkRlc2NyaXB0aW9uPgogICA8L3JkZjpSREY+CjwveDp4bXBtZXRhPgoSBhk4AAAAHGlET1QAAAACAAAAAAAAAFUAAAAoAAAAVQAAAFUAAD1sY26GXwAAPThJREFUeAHsnYdbnseZ7kcghCRUQaghEE0IEOrVvTuJYycuieMSJ7azyW6uTTbZ3bN7rnOu8zecEyfZZJPYTpzYTlzi3uLeZDXUhYREl1AFCRVUECCf+/fgUT59/kACfcgIZmwEfLzvvDP3zDz302beQZ+quFACAgGBgEBAICAwQBEYFIhwgI586HZAICAQEAgIGAKBCMNECAgEBAICAYEBjUAgwgE9/KHzAYGAQEAgIBCIMMyBgEBAICAQEBjQCAQiHNDDHzofEAgIBAQCAoEIwxwICAQEAgIBgQGNQCDCAT38ofMBgYBAQCAgEIgwzIGAQEAgIBAQGNAIBCIc0MMfOj8QEWhtbXXNzc2uoWGfO3zosGtrazMYEhIS3KjRo9y4celu1KhRbsiQIQMRntDnAYjAF0KEHGbT0tLi9u3b5xITE23RjRw5ss/Bf+TIEcfXoEGDJBzGuaSkpD7Xxi+6QYzj/v37rRmjJTxTRoz4opsUnt8JAqdOnXIHDx50Bw4ccA1ae7t373KHDh1y7Z8R4SAR4ejRo9348ePd+AkTbM6PGTPW1ihrIJSAQH9F4Ashwvb2drdjxw732GN/cCNSRrjLLrvMLbnkkj6H8Yrly93KlSvd4MGD3R3f+IYJiD7XyC+4QfX19e75556zVlx+xRVu7ty5X3CLwuNjIQAJnjhxwr377tuubNMmU0QLCqa7goICNzwlxW7BUty2bZvbtHGjkWPJzJnu+htuEDmOMTKMVW/4LCDQHxA4byLcvHmz27BhvTt27Jj78pe/4iZIk8TKiywsQrTQN9543SUmJLqC6dNdWlqq+8MfRISyIC6/7PJAhJGAXUQ/ByLs+4OF4rlr50738ssvSqlLcvn5+S5/2jQ3bNgwfQ3Xek2wTpw69ak7fvy4O3b0qNup67duLXcHZO1/Set6emGhKYR9v7ehhQGB7iNw3kRYXl7uPv74Y7dq5Qr3Tz/8oSssLLIFFtkUNNG6ujr3+98/6or090WLF7vJkyeJQDcqDpHkpkzJdBkZGZG3fO5niHbPnj1uk7TZGTNmuKysrF53VfYFixC3Y1VVlWuWi/ZSWc7EbYjl9JXSV4kQ5Ys588knn7i01FSXk5vrUvV9IJbtWnvr169zVZWVbrYs9qKiYjdx4sQuoTh4sMmsw2VLl7qMKVPcrFmzTYHt8qbwx4DARYrAeRNhQ0ODgzAee+wx9+D3vucWLlxgwfZIPJqaDhiBPScX2le/+lVds8hiEZHXnO1nLMoNGza4Z555xt1x++3ukksv/Rzhnq2O7v69LxBhpYTXO++84/ZKCfiXn/zELGhctX2l9FUiJAGEOfPQz37m8vLy3NXXXONyRYYDraCErpSSum7tGjdz5iw3Z+48N3bs2DNg2LVrl2ttPemmTs0+43Osw7Vr1riyso1SVrMMQ6zIUAIC/Q2B8yZCFtpGxRR++9vfuEtFTlcoTpSfP+0MnLAGP/lkqauoqHBf+9rXXEnJTLNqEFYE4XGlYuWgxROn4DO+/N/52Yhw/Xr3wgsvWB2LlyxxKYptYCFxH19cF00Svk6ewRfXkKxD3Xz5t1D5e7mfnynnSoS+Pr77e+kHhd95Lok2/m/2B/3DNe3tbWp7x5uw+DvXcT2F9hGzee/ddy2xCIvbZ/NxLS6vaAuR+tra2g3PyL6c0rXtn2HkcfDYUE9koU5/jf+ctvr+ebwTNWZ79u51L2pMKJExQur0GET2ydcX/T1WW5I0Fv4dYcwPP7Zc68fP1wMekVgwL/eqbb/+1a/MGmRe5uTk2DW+b9Rz8uRJmzu+Hv5GeyPnIz/zOd8pfry5nzbxN/+5bxufR9bB577wuW+rv56/+Xv8dXwHR758G6LnUOS1sX7evr3OrV5dai7O+x/43um2Rl777DNPa33tdz/4xx9Gfnz65xdffN6dbDnp5i9Y4LKzc07jcPqC8ENA4CJH4LyJEKGARvn222+ZsL7sssvdokWLTgstBBYxxLffflvu0MkiyivNDbpv31730ksv2c8lJSX6W4bSuRvc888/LxfWWDc0eaj74IMPzAKaOGmi0rwPuRUrVijr7ZAbPWa0mzxpkhHqPffeq8Sb7RbT4B6C+74gDHGnPv/8c664uNgsUbRhXGYv69m4zUghp0xUfddcc627/vrr3fDhw+2zcyVCMkvffustS0aAnFtOtogcXjSSGyt33Nw5c91dd99t9XqhSbblO8Lkww8/lNu4VsIl0Y1Rv26TtbtgwUKkrWH2zjtvm2u0tbXNpaePc5lyCS+Yv0Bp7qPdmtWr3b3f/rbLzMw04U2da6X5ry5d7SbI9fWVr3zFnonw3LJlizT7MovNzpVVQJZubW2te+WVl91GuaiPHm22PpP1+cADD8j9XKL2jDGhD6G99dabrulAk91Xv7PelJ/Zs2eby4x2UDwRcj3teP31102I33TTTUqimeeSk5Ptuuh/ICMyiJ94/E+KS21TnOqYEcWX1X76reZbXIs6hg4d6rCS35WV/PHHH50mW9zr96vdkB1bA5bLS/GnPz5mc4rn0i9cpPc/8KDmTYnhQhzsySeecNXV1db/ESNGupmzZrpbbvmazUus3ddff0115sqammk4M9+ZP6+9+qrVPW/+fDdv3jxrL8+tqalxb775N4uX474nKYxn7BRmzEcSU6jv3nvucVM0brRhmeYhBUVyana2/cw/HkfCAdxDIhJj0p3yzjtvuf2N+9X2LIfy6Mk8so6DTU2uTWRLZnSssm7dWldXWyfsk219JSb2HY9ErPaGzwIC3UXgvImQBx4+fFiCdrN79dXX3HwJhquvvvq065O/LV++TNlq77qbbvqqBEqJrJrRRl5/ULIM7ipcpQgwhMKv/uuXJtRJqCGmAymNHDlKBNgkzXa1XDxr3ezZcxTnKLLYBcKYhVpVWWXXkt3pCwJr+/bt7tFHH7F2QXQQIbGSWlmppI77QhwFIVus+CPWA1bBShHvuWSNkpL+12eftThMWto4N0ttapVwb5N1Vl+/UwLwuLv0kkvdQikIpKfvb2zUteuN4LAMhsrddOpUu+3pOnrsqJs2rUCYLHSNUgxK1WeI5vCRw4br+PTxRnKkv+Nq/u7995tgh9jAGtKHXHOkuUMMxF6xKFAqVikDljgj2GGlrxWWhw4ddJOkBAwZkizrqMXacFCfgescETj3Q1RPP/203Nsb3bChw2QZzDcLITMrU5inmMUKjhBhoZIqEP7P/fWvJnSnF04XUcy3mHAsAYr7DSJ69dVX3HAlbtAP8EAROKqkDdzhiYMT3Ze+9CV3+eVXmPXG9eXlW3SN/a8tLodl8RxQJuQJd+ttt6k/k0Wse0Uwy9z7779nrvppBdOkPE128+bPE5mMtf4zvmwZQMDTtpNSJHbv3i03oGJi6j9KDQoA/V+y5JLTGbEQJPHu7XXb3ZVXXeluu+12azdKF5hC0HfddbeUjjRXLyzqNAd9oa31O+otWWWxYuWQNOPCfbfIWwKpMvcozKt3333HlA7WDtiCT3fK43/6o9V31VVX27yJZVGuLl1lWF+pa2IVFNTSVSttLT34vX843b5Y14bPAgIXIwJxIUKv0T/66KMuO3uqWX0QGwUiQuCUKbv0vvvuM8GKCwgrLhYR/uz//V+XLEK69tpr3Q033GiWJYvXXKMSirFihBBtxbaKcyZCBCmxDkjRC5aPRB6lpaVmAX3/Bz+wukpXreoWEWJh0v/bbr/DLFDcXmvWrHbLly030r3vO9+xrNpKuYixlkwJEDlOnTrVtH8Ugb/85c/W55tvvkWEOM0sjOgYIfWSAv/kk08aOSLcIWAE8eOyqrD8wP92WZckOUAoWOyQ791332PuMdparSQctq5coq0rWJhYlFj3j7GtRRYUgvrSSy+ztoE7fWGv4A/+8Z/MeoDEIQW/fQLrCNctWO7es1ttu8YInc86KxDFChHBG8IDfGbNmmVWD9bQ8mXL3CsiSCwpYssQIR6GJlkwzDnww8JmbqzW2P3mN//t/uH73zfFCoWDz2PFCMEJ78L6devcN6Q4YYVBelyPwoAHA2ULpa6yssItUzvAguczF1GOXn3lFbdz104b5wceeNBIr7q6yixREpywKkeozkNSTlDosOQgOMYYpbBcFvoNN95gXg3WyF/+/Gd33XXXmdXmrT7qW/rxUrdXSs93hA3z1ZNkZ3hGf/5rKZapIuTb7/hGp/f++cknzHX6zz/+l+jb7Xcwf1eeiVVaD//xn//TrN+YF4YPAwIXKQJxIUIEM5r9E088bkSCG+kSWUAU4hNklg6Wxv21r3/dCAYLpTMifOihn5lFhOBD0PkSLyJkszAFQUubEbIULCQEHlbYT376U7PcEK7dsQgRsFhSN8p6gSQoWBjUQRyNZBeeT0wVlxukNGVKhgTUkNMuyNdee9U28SOEEby1cl9GEyGKBO3lWoQmFjXbViD45577q1lN/I5lebWs80ZZoEuV/QdpPfjgg+a2ZEwQ/t/61l3WVm8pQIbggJWNu/qWW24x4Q8R1tfvcNPyp5n71rt4PREiLHF9Y8W8qnb9WEKVPnSVqYmbcZUsjRXLV5hlxPyIzGakLa/KBVlbW2NWL3jgIeA+xg9XJHOJ6yoUS33kkUfcN++801zz6enpnRIhCs/GjRtcy4kWd5PmGZ4ASodCt9c9K+ueLQbXXnudYYnCwbheddVVpqTwd2JquMTb20+5+2WV0262EuFOx1JevHiJXNnpdj+W9tGjx6ytWITb5P594403bJ5ceeWVNg9RYLKzc8zqRImhj0uXfuxqqmtMufj6rbdaG7v7zy9+/pC141uyUP0YR9dxNiKkLW+9+abmxVL3v/73/zk9t6PrCb8HBC5WBOJChHQeQYgbCgFLrAF3EQWB39DQaEKR2AwE0RURPvzw72wLxo033mguO6tE/8SbCIm74PZCO6e0SbBiJZaUzOwxESKYZ8+ZYwLTC51oIjSL6aOP3O9++xuzRiE1SagOH598fVhvM4TTHXfc0SUR7pHF9ZHqISZF3JXMSIhwjbL8cHVCDgjre+/9thJutir2ttX2cEIUWDMQVk5ujt3r22o4aBxRUv72t78Z6dx6621mSXjhj5KDmy2SCHGDssXj0OFDFru9XpY88Sz66q8zkKP+gczoA5YqFhd1ewudSzsjQnCmP7+Xyxvlg+sgMVzDP/npvxr+XREh8UXmJa52XLuDEoQ/RQKfRKPBcsXiirxZSgCuy1/+4heWcAMRQuxPP/2UER/tZ75ff/0Ntp2HOQWxf/3rt4rUOqxMrFc+Az/mAkoj8z8tNc0R30ZRobz33rtSwhrNZYqVTn+4h+QnYqNg05Py37/+lVmSt2o9dhajPRsRgvcHWtsbNE7//h//GYiwJwMR7unTCMSNCFngZDhivbB477zzW9ZxNF9+R7BgDSEYOyNC3HKPPPKwxbBwi2LV+BIPIrzyyqtMqL8pIb9fJAHxpetcxUSRETG3KrmiEgYl9JgIiUnOERFeIS3fl2giRNCTkv6mSPgKWThYdNEJDGnj0iRIcwwvyC2WRUh8kzgZCUdLlARB6jvuNlyaJNQQp8Oq++Y37zSBD1lMLygw1xuuzOajzeZ69Za7by9jQ5uJ2SUr+eg2xdxQXhDKxGlxXUK8vs1YhBDhFrWFWFKGrMLbReIk/GBxdlUQ9h9++IFZyIzNdMWFab8vsYgQd+46uTRJPsnMmmrP+PTTU9owvktJKm+673z3u+bq7YoI31Ji04b164yUCgqmm5Xnn8l3CAMMMzMzzYr6o7YGkXELfnmyFLHEcTljna5XPUMVN8V7wfzFnXnffd+xv+GiRjEhRoxyAum2tJyw67Zs3mIxwWu0rQNlCGUFN2i61sgNSvhiLnEAxdixqVKILu/Sso5se/TPTz/1F7MuF8lChZwjlR5/7dmIkPg5/WhsbFBM+oFOXay+vvA9IHCxIRA3IsR9gnD+m4iP+BAJJ5S1a9Za/IltEwgYFmJvECFuKRI+7rrrLiNbnoMmi6XyqMgVVxWJInz28O9+57KmZpnFRXICgojrsA53KF7TU9fouRAhcR4sBxIq7pdQyZZw6kxTBz8yJGMRISTB9gDisgVKBEmVhYEwxVojwQWLCdca7kSSbSBXfiYRBAGL0MaVeeONXzJS8wISK4d7P/jgfSNprBvwwTXaFRFimXHdsOE6rYQY73XXixxyRGydJ3d4IsQym6U9bhyzBz4U5hNua7KI6+QeJkGHMWR+QTD05w7FvSA8rmX8f/7QQ+a2JdGoKyL86KMPLaY8ctRIU9AgNN9/e3jEPyh4WJCMAwoBJ6yAM+5orMPNm8ssI9eSkmRNntR+vNsVI8Y6ReFao+xZskEhetqEO5X2Pys8r1OGMkSIaxYLHYLl5CWyO/mdcSB+HJmFHdG0c/pxqeYZY52WNs72AXoFJvLmsxHhUh2YwTYMxgYFFcUxlIBAf0IgbkToQSFtHctkSHLHCSitJ1tdtmIenhi5ridEiIuJ2NrTTz3lblW8hA313uJAkOJ+ghwgFz7H8rRsN8WDcGUhcLB+9snye0p13HzzzaZpcy3CjuzED5UoQTytN4kQy4BnvfDC8yYwiT2RXegFMXFLCuSI0MIiZOvJbgmzH/34xxa7hHBoM27UJ5Xo8Cn7EOXdO3KkWXHHu82SZs/mx3I70r8d9TvsNBG2hvA7MbJSZQpSB2SCQCcJg99RFHAZ71S2a25ergk+iKYrIvTJMrjvSMN/9tlnLKaGJUOc0sfgrGMR/0C6JDpxMhH7HO9SzBTB7/vHIQJPaeywUEmemjNnrmXnHhNGuM7ZEsO1kA5WIm7AOxXzxM0K6TBncGtmqU5icSQfUYgPrly5SorEHkvgmjBhopEc/eSLMaBexoDfUZLAkqQWlAe289AWiAHXNATG9TyT+B7zrFbkzbjRh3/+0Y9s3GxOav6tEv6QJLFk5iVETHnvvfcsozg1LdVCAeBWUDDdzgO1C3rwj3kGRMaNjQ3KqL3j7+74iLqw/g/J2r/n3vsiPnWn59hLL75goQ8UEbK5Y5HpGTeGXwICFxkCcSdCkjgQtMuWfWKuR4QCVldkEkRPiBABjev197KAECBo2RAIBY2X/XAcFkx6NwIPoUPs6ZGHHxYh7rO0erRyrFbquPa6a81CQphR92PaysH1CLreJEJieVgXzzzzlATtUNvrRwzIZwOSmUdhiwOkhdVHvI7sxe+pbxCptyAhkg9kuXHIQJMyHknu+MY3v2lCFwHNPkWUgFw9E+JHm+derI1XFCckGQhXJ2n7xHWxaCHeX/7i57Z5mvoQ7DyH7ROdWYSeCIlt8axtsmQe1fYC0v0hMNyInRVcqx+8/777tUjs3/79f5hyggsda/GlF1/U+Zgvu4TEBLP0Fy1a/FnMucGyOnkeuDFuL7/0ovXpp/9KjFBbBeRWZ1zZ5oALnMSd+fMXWDPAlH2fED4JOtQDGTIvUS5wA3I/Y0BhztBH9nQOkuv8hzrYgDguRMV8/69f/lLWW7lObZnrvv3t++y+jnF7w/Bk3Jj/kCqEzfyjf4xVJBEyLzZt2mjzA6WEtVNcXGTWnDWkB//QJ7ZnLF/+ibwBmYYN7tfIggKJexkXb2QBP2KDNTXVRshY+RB+KAGB/oZA3IkQocHCQ3CO1cZ4BDACyGu9ANgTIiQZB2vtz0oz3yE3DUKoqHiG1Y9wJ1bzvjTqSmnvxJkguHTtueM7ZIFwROggOEmU2CJXGhYU7UoTCbAtAOHFc3qTCImDIXgqKraZK5YsVawoYpMU9t0tWLDQCAqhw7VsdUAIs/+QWOCVStrw+80QnmzYPtB0wOKBuAUR/KTwY/UhpDnblX14jAPaPH3EusFlSrIK+/QG6T8Ih7187KXEUmVDOHUhtM+FCNlHCLFiobGFgtOEEOi4pK+55lqzRqKtCdyfkOH7IkNIgKQlFAT6DnmhALTo+ZAVWzloN9sq1srK6cjMHWTuXpQG4tFs0cHFCvF4i/O9d98z195kuYxJ4qJfPonFFA8RVEICJw8lqL/Drb30A6WDAl5Ydx/Lpdqqn7///R9YHbSRMfnT44+bEgZmd99zj1mGYEYbP/7oY1mUlTZf2b/IfART9g1+VWsjkghpE5YnliGuVjJayV71SpI1pgf/sG7w0mB9F4rccUNjJXdW6C+WbFnZJoszz5hRYvsq2ZQfSkCgPyIQdyJE+BBnQ8BwmgfuMuJSWGi+IByxShDUqalpEiqZEhCpJkA5F3H8+AnmDorMIOReSIHMtc1a1CQgZErDJTEFMmsSEZSXbzUXKdeOVGyKZAcWPhYDwg+hAmliLZGwsmv3LtvWwT6rAlmRJ1Q/J+9TJ0SLW4m+JKjtCMbIRA6e4QuuNNydbKJH2EZu+4AUqIO4IPX6hCHav2pVqQlJsPAFIVU8o1hCeLL/yDZlb9T9JMeQbUhmKtYKApL6ITTaMFeWt68frHApfqRkFE4l4W0DkVY5wo49bWyr4A0DrW2tLmlwkhszdozFs7CIwAorBsUFDI8fP2bton/elXtIbcdlTeFgawQ444sLmq0EEDIuVsgdsvL3ne6cfqCtXI8i07i/0f5EWyBQ9ks2NDac3j5B3Vhf9JktCXJmurzcPBtrYmozNU6MOxmrtJ16UcwqRKiMKYTM3yEx4pok64A/eBCfS0kZbgcDZCkRB8LypUaWMtYfSgvKBnMTUofImZNgDXEyNuBGwTVPVinznMI9GZMzXLasbNqKUoSHoIPQnVnkxKmJg14mtzJZqp6MrYIe/gNmjAMH46OoYvnhxuULYh6seUThOsi4UR4U2s7cGqa1RQYw1qRvZw+bEW4LCPRZBOJOhH22p6FhFxUCkBiuWlyjZIiSMEKCCmTWXwskxbmyxEzZWoGLP1oZ7GnfITmsVA6JwDo80nzElBZcwsmK5xNkBnPipvvkGcE7kJ2dI9wXm0Ibqcj2tA3hvoBAX0UgEGFfHZkB3i4EN1YWR8YdP35CG/+/ZfFbLLn+WvBUcLINRIV7nrjt+bpFo7ECV+KgJF/h+mTPKFYtRIdnBfdnXl6+eTa81RtdR/g9INDfEAhE2N9G9CLrD/tDITzOPMWNzrmyuGJxVxIPJgmImCWxZlxzsVyrF1mXP9dcLDFcs+yD5BSdibLSvqKDynHN9kZ/wRfrsFlWISQIOfIc4qRY3BAi7t1gBX5uqMIH/RSBQIT9dGAvlm6RyIFlwl7JdFlA7AVt1wHkxA05SJvTiBYoJkcsrT8W4nBswifT+mDTwc+OZ1usmPZUi0H2xz6HPgUE+hoCgQj72ogMsPaQos+2GM5IhRSwjCi8i5CYIEkjbOHor4WkFE4AYl8hLkn2x5J9GkpAICBw4RAIRHjhsA5PCggEBAICAYE+iEAgwj44KKFJAYGAQEAgIHDhEAhEeOGwDk8KCAQEAgIBgT6IQCDCPjgooUkBgYBAQCAgcOEQCER44bAOTwoIBAQCAgGBPohAIMI+OCihSQGBgEBAICBw4RC4IETIhl3OID2hsyrZH8Zm3vb2Nu0X0+uDdFYkB04n6txGzjwcoo28w3QWYvJQNvT231NELtwQhycFBAICAYGAQFcI9CoRcmIGb+TmQOgT+uJEC947d0qf89oXfTtd7GQLESIHGScMTrBTRIYNS7HTNfisN07YOP3w8ENAICAQEAgIDFgEeoUIIUCswJMnW/TCz0N63dEhezPDyFGjdbr/CCM3LD9/hBPX8vodrMWjR5t1vTZWt7a54XpbwVi9NBYLEWsxkOGAnaeh4wGBgEBAoNcQ6BUi5HSQozrHcLdec8TrdEaNHq2XxY4x4hv0mXUXTWqQJyYi1iLEyCt/DurVSs1HjujVQKn2uqahEa/F6TVEQsUBgYBAQCAgMKAQiDsR8k4+XifDO804vHek3gvHewmTkrp3YDIxRA4EPqzDmI82H7XYIe8pTNahwNEkOqBGLHQ2IBAQCAgEBOKKQFyJEKvuoF7seehgk73odbxO0ccV2tNX51AfZHhAL2blOy8JTRcZUl8gw7jOg1BZQCAgEBAYsAjElQghqwa92JOs0PF6w3mK3hJPosv5FtykvI6HV/VkTMmyN537+OL51n0x3G+vzVH89IS+eMs776jrShEgMelk60ldk2DXx2MMzoYTY06MF+WF1wf1NWXF4tBy2R/Xy355nVNkjPpsfRtIf2f8SG7DIzNYYQ1ey9TVXBtI2IS+9l8E4kaELKA9igkiEIenDNdLRcfHdQEd1VsK9u9vsBhievp4szT777Cc2bMmWdnb6+pcVVWFW6g3hvNWcYR5Z2Xz5jJ7q3uyrpm/YKGIaXhcFJLOnsfY76yvd1WVFa5NArRk5iyXljaux56Azp5zPp+fOHFcb1/f68o2bnBT9PLZqdnZFrc+nzr7272MI9ucNm/eJMWzyY0fP94VTC+M+8uB+xtuoT8XPwJxIUK07VZZIHV6w/aIkSNFgummcccTHjRU3qxdv71O1uZEyybt7j5DNN19+/aJJHbYm7hjEQpE3qhX4+zcWW8JOlMyM+0lpfHsS3fr4uW1dbW1rqJiq1tyyaVu4sRJXRLhpk0bXb3ePM7LVRcuWmKx2t60ChGg9Tt2uIptW40IZ82eY3Ogpy7x7uJzLtcz9nvlrdiwfp3e+ZelVzvluTFjxpzLrQPmGk+Em6QsMOcmyKtTWFQckwjBs1Ehix1aj5DlmDFj+5TiM2AGLXQ0LgjEhQjRIo8cPiSLrdHII1XWQG+4UyCp2ppqN0LJN2PGjpWAT+kWCEeUgbpj+3a9/26rFniRy87OMddPZCW4d02oi3QmTprsCguLzNUXeU1v/Iwywfv4mg7sP50YhAuU0l0i3CfL55DGA/fxlCmZZ3WlxqM/JEjt10t2T+mluhMnTbKx6Yx8Ebj0l6xiMoxHyoWeppfy9mbpC0RIn3n/4j4RMhnQqcqGZotQXyndIULWEgpl+ebNboG8FCSydeWl+KL6eEyu8IPKWSD7PGPKlF73jnxR/QzPPT8E4kKEuJ327dnjEiR40QyxCnujYBXu27vPrM8REp6paWndekxfJkKUCQi4Uu5FMm1nyr1I1i0KRXeJsFugfAEXI3BRatasLlUS1HE3CYVDlkdvlr5AhJD+nj273Xq9iDc1Nc3l5U8z92Nv9rs7dfdHImyQB6i2tsbt2rXTLV5yqVz2aTEt3O7gFK7tfwjEhQjZBL9DMSxcoiO1ZxCXXG8UNGqLFcryGDpsqFls3XnO+RIhgiJWOcP61TWxrjrjmhiVQAwQIXHAkSNHWZwNIsSqOoMItZgnTPx8jPDM+jm5p+MhkZ+fU/uj2ubviazHXxL9t+jfuc5/5u/xn9HftWtKlZhx4jMiLLJL/HO4z/8ceS9H8vWkb90lQt9u2uB/jmxHrLbFuo57/LUQIVawJ8J8EWG64nCRxV/rP4usM9bfYn3m7438fq7XoZB15hqNbAuW7S6FD8q3bHbzF2IRjj9tEUZe59sQ/Xz/efT3WPf6a6Lr6Oxafx1/b1CYo1Yhm927RYSLLzHlOTrZ7FzqoQ2+Xt+ezuYif/d1+nv873+/t+On6L9ruqnYP2dc6u/315/xx/DLeSMQFyLkJJjqyko3NSfHhHhvZXQyGdinWF+/wxYdSQ/dKT0lQjLnyFhlQRFnOtV+yh4LGU/OmOJyc/NMyyRrkrbVVFdZ0gGMSHZienq6Kyqe0WkmJS7FbXLFNsjaPXbsqLk02XbCeauFRR337dq502KExaoH9y1uaN+OyRkZlgCCtkup1vOpk+xNLC1idfSdOmibX1S4snAxFxUXf87NTKbqHln52+tq3SidCJSluBqWqi/0lbgl7cD9SkHosJB5JsrQdsWP0Mh9YZ4wN0je4bAE3KntUm6GaI/psOHDFPucbG5Vjt9jPmXn5kq5Gif39TBfhauuqtQz99v1RYXFLlF9ow24vCEZr4VQH5bm1OwO93d3iJB2EWPFVZ2h8d2hn1H22tvarf24frOmTjXvh28YfdshRYaYGQob7SBpDKWlUO08eJD5U23t5FrLyNT84aCJVJ2exPig+BD/pX4KGIPhnt27DQf6wjUoEbj7GEvi3JMmZ9gY4xLH+mELky/gkGnJQTl2DZ8fVv92q07i4MQB+b1Z/UMBmzatwNWonbQ3MkbIvK+uqtLWqIOGKf1ifpHRjXcGcoFED8i1v23rVpvHn+osYRQ5cJg2bbqRPuPfWWHtMKdoD4V5i3eJOUrfsiVfGFM+BxtImDnXLgWDkjQkSeOS7abqi/bwd/p4sOmgZVGPVEgFlzR15KufrGtwZ6wZ48hxYxymFxYZziSqcUpWTm6+xZXpA/kKe7U+wDtTeQSMASEbCnMA5ZU1wFoAy7q6GhtHv2a9Io8yRCHRDOWCucA4e5xoE+u9rGyT1kmSyRvkSSjxRSAuRHhY8aiKreWuQAueydCbWgsTAwHAYmDCdKf0hAgLCqbbYt66dYviDM0di1MLv12xsGYJtNFKuGCRUyCN/VoAmCweB4Qq562y/5EFyvaH6NgZVi4uM4RTgw4iYIGyWPlOnBIBg6Av31Jmv48SIbHIKCT/UBBMtBUBwKIhg5eDDBYsWGT3IxB2yz3E331sFWHCAp8zd54JM6vos3/AGWIhAeaUBFrxjBkWB/Jt371rl6uprbZFOrNkli3iOvWfsSdTFYG9tXyLQ1DQ/olqH4SG8KQNLHqEPH+jP8SYOIEoRXFfMNu4cb2eWWI4gJkvmzZtMIECvvQNwxeiAD+eSUFwIKgQ0kVSJLzVda7JMhDrNs1nxiMtbZwIQoJeSgNK2OFDh208c/PyTPlgHHgWY886gODoI/hBpG1traYoEDdv1mlLOyXsd0ohGS5lgLgogo86tmt8SThj3KdpHBGEB0T4xLMR0ig5s+fMc2NFCsS9eB745eTmGWFBfhAxtgTCnjZQSGhhGw0WW3ZOrimQZCHXVler7nIjXcgY5WSoFK80eXUYc67xRAgxMbb79u2VUjfe2mhHH372DJ6DtQtuuPYR9owFihbjy3hOKygwkmfdxiqQIB4Rxgy3Mf3n3qNSDJsPHzGiJlzgSYK52SRlimf52CSfoXhOFimx1lhLkBXjzlhkZU01YgVDvFfMfYjXKyZnjJvCMFOkBEHCplwoizYrO9tlq16eAa5by8uN9CDfvLx82zKGAolFjeJMP2bOmi15VW3PQAFFceO8ZZQ51grJeCiSKHhkNaO4zNE4Myf4O0pPo5TajRvW29ijqIB9KPFFIC5EyETfJqIoLi4x4RvfJn6+tsrKbW6w3kzBwu5O6QkRMsERUKtWrjDtPVe/IyBY+CwwCsISTRmyRGDm5xeYBs9EZltBdXWl7YOcL8GNUPYLN7LtLPquYoQIrrKyjSa4EJRo+dRfJ6Kp1t8QMCy60SKTLdKEI4mQtuFyRbjNnTffhC/uF/BAWCA0IN3owt7Nmppq06pniJQytGBZoAh5yJbsWghp9py5RkZYorQpkgirtMDp2+zZcyVAJ9mhCAgEFnisGCHkjOV6rkTIkXy0E/JjSwQFqxpS2Lh+nWO8sCQQ9N0hQkicsUMQQkAQFv2AcDdt2CDFY0JH5qn+DiHVi8iwXrA0IHYwgjwQgghcsnf5HDLxrlEfI2R+Vcna2sXz9BywBmew5/79Err8vkB1QGgkfrDFASs3R2sgOXmoeQtOyM2cA0FrnLzygKVRK2FP2+fNX2DCFFJAmcRiIoN2+vQim1fmcdF13jWKNY7XBSIGY8iNOQZheIXIANc/tAVljXtJROM+5gZKIDhC+ngWvKXj7wMnPxcgQRQi78Xgd+41C1M/z9KzjQhlZe6SIoZVhRXrFSCypVH2aN8CuWtZZ3hGILLoGCHPxHKjb2YJi6j5DpGhZIA9mM2dt8DwxzuCQlQyc6bhjWIJOaEck6uQJ9xpW0dfVpl8AINcKSqQLSdiMYdoE7JjqxQtlCLGdaHa2iQLH/zwPDBOtIU1fUxKVqW8I8zdKUr2YT5zTyjxRSAuRIjGCAkUiQiZ/L1dLiQRImiYjBvWK8FBEx7y9RorQp+CEN6ivXvenYQw9MWsAC0asuvYVgCZxMKIRdclEcoti0XIIvFCBsGFdbBRwueIhBtuFjRMFlkkESIMICnaMn/+QhPYWGXRwsy32X9HEGFtrYdQtKAhTNyjLPbVq1fJQmqV6zDDhH9HfLPyc0QISbCgIQL6zTPjSYQcxk5BoCJgKHzHJbthwzpTUvLy800Id48Iy83Nh0WJAEKQ8Qysv1Url1ufUEYmyIVWumqF9QtLhLHxBfJA0CJUSdSAWHAdRhMhwhdrqnzLFlNIsIQhMq5DUcEly1jMk6WNy46xXrdujQnLSZMn680uJ4wYCwoKjdgQ2L4wNysqtkm419n8gPggrVq1CcuP+cSc5HmRRIjFAnHj48X9iBUFQTH3/bz3z+A7VhXPwJKm/bh3cZlGE1/kPfzMXKKPm0QqRihSIiEMXzqUV9Wrthbp+ZCNV9oYD7Cj3RQUKEiPzxctXmKEiFUdiwgZx9LSlXr9W6JZkKwbX2zcREp4PJZccpl5Avbu3W3uWAiWPkGirHkUrEEJg0wxRUGl3nVrV1sb89QXLHlKdFu5v15ESP8XaW2gQINfnZ5ZWDzDlG08KLjAS1etNCxR9PAYhBJ/BOJChCzMyoqtLk8EwOQ/m4A9n24g5LCCEOS4JLpTemIRFmhyI8gR/PslENi7OF7WQEnJTE32DvcTp5WsXl1q2j4Lk43svrAAaDNfc+bNN229J0SIVokra/GSS2wxoBWeKxHSJlwvCMRP1R4EHwIF66KrQtshz9Wlq2zBI/g5MQiXVJm0b1xqWDUIzM6IkMXuNXQvwOJNhCgRuI/YI4j1hbuMjf1Yl8Q2EVBYI90hQkiCN6eUzJpl7kA0efCIJMKMjClunOI1K1eskMv0oEHJvPQF3Nv0RemKCDvqbRa5rTXSQ6HBc4DFwbwBP6wUYlR4IyAyFLN89QvSw9JnD+9ckRpkG+lxAOta/Q1FiH2T7PlD+JonQXNikeYTcUY/n8ASqw6LRxPMrmWuQKDU3dneXfoAvpA37WNOoDhFKoUel8jvEDVWX01NlRES8ynS4umKCOuECVbUASkRlFa9sYbtO7h3uyJCiAw3Nl4eH4/sbNwgQogfSxNX+RLhhXtzrzwDtJstGfTbrwVItKam2rBi3vk5D8nRR7wzHW1tNbc+HhyIkDAGVmvFtm2mdIADli5KQqnaiWzF0uf6UOKPQFyIEGGJ647EESyGyEkVzyazqFlkTEIWC8/rTukJERYWFtlkZkISH0JDa2xscKPkusAVhsBiEWAVIHhxaURqtB3tGyTlYJAJzZQUDiD/u7D07T+bRQgRVkjZiNxQf65E2LHwD5vVgSDHpYmywqLCrYv2Hik8fZv4jmsL15SPGUGiWDlYnCQIILSpvzMiRKB6IvQCLp5EeECkTBwI9zzt6HC/JVhMiHZiQeVPg6y7T4S4EHEFQgAcGh9NhMw/8OuwEJMMz0hrDPwQomwrgmzAOJZrFDwgPCxYYn1YXSgdxNsQhlgVuMe4H1ctSSg1crejWPEZ7todddvlOl0kIZr6ufkFYaAIoaSSAMJc63CpV5nF4zM+aYcnQovfijBpF+SJZ+Rs25U42q9Ba4ND8lkvKCWsBxQ/LC7GILqwnpk727fXyruQKcUq/4z2RxMhFjdtwrULmQ0Zkmy4M/bMUSxArPeuiJC5DwGuFMGwFlkHscaNOjm8A4UGN2a5YoIzpRgNsrDCYVMScnPzTMFknLHWGF/kQEbGFOszHhusP+QGzyXGSsHiJo7IMyBC5CZth0SxrmfMkKItBYg9p8wDQgvImliyIxrT8Hv3EYgLETLYpFIz4S3wrsXbG4UJiaCAeBEQJKB0p5CUUi8tboviK7kS4Czu6AWAGxTLCeGCBoZW50nCnq8JTdyGSYvVQcZmXt40adHrTSPldxZHd63i3iRCv3gQ5FgDLCxcnie1YEePGa3FPcdwiOXyQuiQsYc7GhKnf1USyhB7ppIPENgI0HgSocVfZN3hikPjRoBTaD+xQ4gPAYtbj7Fi7mGp4JKDNMAeLX3tmtVGKj1xjWIRno0IUQoQbBAhCUgkY9DezgpYMq+iXaP+eqwBrAKsGtysZB6S1EGiEcSEApYswY8bDRKYM3e++p1g2EN0sxTLhNS8FUK9zFmEK3OWbEOUgpaWzyxCkQkWTywipB3giOuQw+5RKOgbLtSzFfpZL+JgXAgXUFAo6BOCP7J4IiSOjpuX+Dpr2xcUnFq1nzh4sbKbUSioc63cj5B+tuK/zEHqZW2DA8/vigi5FoJdJeV1hPqTmdn1uLE2wQOPQ0bGFKuf9mFhswbw1CBbcJPi4qZdnviZy7iL+RttReZQUGwhfyxiT4Rgwfxg7qGAo0ChtEKsM0pKYioSVln457wRiAsRMlC4J7Aexo5Ns0zK825ZjArIwMMdwUTG9TJKllh3CpMOjW2t3JichZqj9HwWnycABC1a5ZrVq8wdSmAa4cbnfJlg0LMRLiRjkIiAtUNyAESA8CUpoLCQ7QgdixmS4F4WJ4TUGUGy2Ogbgh1y5rxOhA5tO2MfYcQRa9R9LjFCnolLlLpw61A63FHVJlCJ32HFRgsprqPt4IYrjlgVWbJYGFlZ2bbYiR31hAjpL8kytB+LtLh4Bo8zokZ4rFu7xmVn55gLl2dQuBaFAzco7SWJBfchCQYIarao0EcIHjfWerUZIuktIkSA0nYIlzYgJLGecKVT2AbSLjctGDL2fPdEiBBF6ONq9gWFA8JjHqFUMoewknC/+m0JWFnMueFSSqbrWUYAmntlZRtNoE/N7tjW4eeZhS00T8EDa3Cy5js4ns0iZM6BMQdkMM/BNVtCnG0j9IXfIwt944s+kznL33k22bDE90gA4t5IkuZ+5hYZyJvLNpm1C1GTMMP91Af5k52JhUkdkAyZ0pDLzNmzjQSpk2s73I/VNh89EeKqJEbInFqkfYTjxrGhfohhAJmi+EaPm+8L331faQcuY9pF9jAvGUc+pKWlqn5l1GrsTiiOy75Y5hveEhDaqnbSdtzL+fnTrD7kR63c1Tt2dGRNeyIED4h/neYTWeAorViHzAHGDQsxlN5BIC5EyMAyCbZLQJImjjsheqGcb/MRthBupbSvcdLCcdPgFulOoQ6SDgg+M+EQYrggECy0l89wY7AoEaosXDQ5hBCuFGIPWBzRRDhD8UImLMFzFg9aH7ERhBGTGQ2WvUrTCwvNqorVZvZC4Vbi2VigWEO43WjX+RIh97PgERgQP+VciZBrwQ0tFUuMMYDU0fAR4giK7hKhrxNBhGWNKxDrzn+O4IAIwZKMRuJT/FxZUWEaP2SAZUoW7qZNGywzEAFJHeCF0Ed4Mx9RZKZN71mM8GwWobck0O7BB0GFJu+VK8gRxYq5A4lAbCTxkOjC3DCLV+TpCwSFRbNly2ZTXPg7cTZc8NRFTKsjU3ekES7zk7lCMlS5slx5ByixJYRuR6KLs/kECWBFst2Euc58PBcixFLEI4KQh0wgNtYF2FNPZMFLQ1+ZZ/QVN/i5ECHjiku1tHSl1lCzxUBJKmNeUSfYbi4rsz3msznDVmuf9UhGMMQOBngqsKZY1xAWc8ETIXXQ9pqqKstuZs2zplmX1I01x1YW6vrcuKm/rGX6igUJZoQJYDieW1Iyy/rJfKvWfMMVT/LW/PkLDSOUTxQBMra9d4k1SPu3bN5sCg/j5ImQOcEcQAbQPvo0OGmwsmU7PDZewYrEPfwcHwTiQoQIQsgBYT94cKK5R9GY4lmwNgk085UuAUy8wWu93XmO7eHRRGTSkgxBGSwrj8mNxTNIkxEBjzsKywyNHsFcoQXAoh2SPESCv8NyQWNmnx8uJ8gBgUNQnUWDO08y2a4doo2+WCbEN6I1Yt92MIRk0Dp5HpvMh49Isf1JNK7DWuxZjJCsP8YG7ZjNzZQ29TVZfcG9h7sJwQWJdFawZHCvIRRRBorlqkHgcE9PiJDnMAZoxmyuH6O6wBFBhYIDjmjTuOYgGFyAfI6y0qbtBuylQrCzbxMBBWZe+CfoHrYkoADQt96KEUKEZPIhvCBdsGEMcSUCJfsvGW+EJkoNpOWFO/1mAzhKABYQ5AKW1FMmQYjVMVv7O7FWuI/5RRwaocvcmjdvvllQCEcUA/qKooDwTNQcpm4KljdxRQQxbWDNdChWHQk0nblGO7Dr2MrAs+vrd9hYgSsEiUsQbH3BVWvKleZISor2ymq8WDvMDaybyVonxMGivQ78nS/20LHp3OaoiIl2shbBhKMVmcMlUjhxOYJx2aZNrkXWJM/BwvPzEIWUJDZPhKxZ3Jokd/FslBEyfXGn0i+syIbP4nr8DTlg46atGShRPj7MM1E4IGzGA7IvKOjYY4zCVFmxzUIO9B0iRIbQLxQDPBPHjh3XfUlqw2D1rWN/IHXSpkgihACRIyhEjB0Y4x1inOljKL2DQFyIkKYx6ASE0QKZxMTvmDDxGLw2TQgWGotkhGJDuJUIiJ9PQXNEO/dZY9SFTx6XFC5ThC79YLFAbBAJ2aH0U52yiUnMBOGC9kph/xpuGwQi2iCF1Go0VhYwAixaENhFEf8QV6FtuFiY/AhaSJFDtHHr8tYEBL7XDv3CwcU0XtoyQg/XGv2C3MisZd8Z92J9+YKFwLUsdtp0tnHyfWMMIEDbIC+C8oXPsWgH6T9vqWBBMid4FpaNb7O/h8QdkgEQcrjUUlPxJkwwBYT+kBDBhupPJVAZG7BG4UIw+r4h6BCiJO9gVVNSpECwt+6ElKeU4SOMYCFTL6whUQQclkGsgvXFmbacg0pCDHMCjBh73K5YGLQHHKiHAt5gjLD0hWuIZWbn5NhaYD4h3BDWZDvSR4gSdzquXfDBqqIvzDuENYcMcB8Fkjyo5wzVuGL1Ra4vcCHu27hfL7GW0PWFQ70hIsjWF3AnlkVbsXgiCYp6mINcw+e0i74j7JnX3Iewh0wiTzgBKxJAuBciEVhGZFhTrCew7mru81zmrSkTwoWSJEWNdchaqqqqPL19gnroK22BDFljuPzHjkn97D2cg1x2BD6Gt9zHR2UdsnbTNM9Yj6xb6xdrI3rc1Hew4RrwZ56hZNTUVNtnKIMotxTGFEWM9kPCWRo3skB9qdO4sT5oK89nzNkDyVrhZCXaymesQcI/uP43rl9vJI/7lXaE0rsIxI0IaSaTGcGG4GUBIygQggxwTwt1Qq6HDjVpIikdXpMGIXg+dfa0LeG+gEBA4MIigAcA6xlrEbcsChUKQH8tkCreFw50QHEm5oznKZTeRSCuREhTsZrQ1NCO2Yg8RloaRxL1pKCB83ontD9OECHrjHiJ15B7Ume4JyAQELh4EMDKwq2JQkwsHhnQnwtWJySIZ4kwQWFhUb8m/r4ylnEnQnMhiAzZ5nD0WLP55NlSgUvzXK04c0Ep7sE+G2KCxABwB5IlGu1e6ytAhnYEBAIC3UeAtY4bGJcj58xGHkGIMl2nhBZifHlyEeJyj7UXsftP7Zt3gANys1QHWLC3kbAFCTxB8e/98Yo7EdJkElIIBBMfwtSHAPG1E6fB58/P+Pn9ALMYuId9eSe1x4nEGO5nYnANcRZ87twXSkAgINB/EGDtY+2RQczaJ2HFr3MUYeKoxGjJhkWh9n/rPwh09IRsYDxpuILpd25uvlmExGND6X0EeoUIfbOZ4CQoYNWRIg0REhTGwiMtmOw+Ssd+KxGhSJOJz5c+FQEqzij/eGRSgN0Q/gkIBAT6FQLl5dpOoOSq4xGJPiTBkJRCwggJcl5e9KuOf9YZEsPIum2RJ4zXkU2V9UsYKJQLg0CvEqHvAll+kBuZdZzAgB/8pNKwIUo0Qkv3lrWHtYjlR7YamhC/hxIQCAgMDASQBdHF0uzOI9kuur6+/Lvv/7mGkPpyXy62tl0QImSAiR1CiB0nbYgAlWLNf/yvLGK5TxOk8SkNWlYiqdC4TsOEuNimU2hvQCAgEBC4+BC4IER48cESWhwQCAgEBAICAwWBQIQDZaRDPwMCAYGAQEAgJgKBCGPCEj4MCAQEAgIBgYGCQCDCgTLSoZ8BgYBAQCAgEBOBQIQxYQkfBgQCAgGBgMBAQSAQ4UAZ6dDPgEBAICAQEIiJQCDCmLCEDwMCAYGAQEBgoCAQiHCgjHToZ0AgIBAQCAjERCAQYUxYwocBgYBAQCAgMFAQCEQ4UEY69DMgEBAICAQEYiJwQYiQF1a3tX/qTpw85U62nXKt+rldXxwtaCes6Yi1RJ0nqFPV3JDBCW7okAR957i1nr/QN2Zvw4cBgYBAQCAgEBCIQuCCEOGxllNud1OLW1/T7Cp3n3A7G1vc/kNt7niLzhxVgyC/USmJLn1sksubONTNyEpx+ZOGu7SRg6OaG34NCAQEAgIBgYBAfBHoNSLE2jvResptqjtqBLijocWNG53kUkcmuVHDEl1KcoJLSkywA7fbZTJybfOJU66puVUk2SrrcJAryhruFk0b6VJHJLnB+j2UgEBAICAQEAgIxBuBXiHCFpFaw+FWt7662e1qOmku0RHJiW7qhGQ3KTVZlp7IcHiiS5YlSGkTER6TdXjwaLvbI8sR0tx3sNW1iU3TRyW5oszhLnfCMLsn3gCE+gICAYGAQEBgYCMQdyI82fap27W/xa2qOOJWbTvissYPdYsKRrq5uSPcYMX9zsWuI36488BJt6z8sFtdecRNTR/qFqiOWdkpbmhSgl7PNLAHLfQ+IBAQCAgEBOKHQNyJcOf+k+69DU3uuaWN7q6rxrtLi0a5yWnJrrt5L7hWSaxZXdXsXlzWaOR337UTXcHkYS5JhBpKQCAgEBAICAQE4oFAXInwuLJCXys94MoUF8ybNMxdMWO0mzAmySXLiutJgQyPHG83q3Cd3KxHlXTz4A0T3XjFGkPMsCeIhnsCAgGBgEBAIBqB/w8AAP//9aO2SQAAPslJREFU7Z0HdFVHlq43ICGCBEIiR4mcc84mm+yAcQZsY7ftbtvdb63XPd09772ZfvNm1sz02G13OxsbB7ABY3LGJJucc85BKBCFECDB29+WD3N1uZK46MqNoGotIXTvOXWq/qra/05Vp8gNLRKCcl1r2XDgoqzbe1GKFikiA9vGSJWY4hJerEi+a0++cE027E+VlbsuSPuGUdK2TqRUii6e73oLSwWpqaly4sQJ2blzp3Ts2FEqVKggYWFhhaX591U7WU6ZmZmybds2YdzKly8vjRo1uuswOH/+vOzevdvaVatWLalcufJd18a7oUHJycmyf/9+uX79urRp00aKFy8uRVS+uXJvIVAkFEQICaZdyZTPFidIWLGi0lqJqn29qIBInU/LkHOXMiVVf1+5lsXBYUqWJSOKStnSYVIuMiwgeR5LviKrdl+QncfSZHC7GGkZH6nPCm5CXrt2zYRTYmKiVFABVTY6WooVK5atnQixtLQ04ZrIyEgTZP7XZLvhZ/gjISFB1q1bJ1MmT5bX33hDGjduLCVKlPgZnuweESwCEOGVK1dkwoSv5HTCaWnQoIE8/MgjwVZT4NcfO3pUpk2bZs/p1q2btGzVqsCfWdgewFju2bNH5s+bJ9cyMmTs2LEmEwLJA5Se8+fOSfGI4lK2bLQRZmHr7/3c3pAQYfrV63Ii5Yq8Oe2EPNA8WoZ2iJXwsFtJKlMZc/WeC2bZbTl0SU7rPdijZZX84quUlPYNoqRn02gpXyZcrcrsw8K9p85clX/84rAM0fp76nNi9L5gypkzZ0xTh1CGDh0qXbp2lVKlSmWr4tKlSzb5v/32W2nerJkMGjzYJn+2iwroDxYemifFd7E5IgwOcF8cixYt+rNq8Dz76tWr8vXXE40I69evL8MfeijPDvi22Xfs87zxDi+4W4iQfqN8euN0N1lbtO12iXDr1q2yauVKqViponTu3EUqVap0hyNTsLchX+gXOIO5K1kIhIQIE89fk+U7zsnh0+nStXFZ6VC/jAKdHeILaZkye/0ZWbPrvBxNvKIW5HXVsjyhX0QiwotKVMli0lbJsG+rctKsVulsFWA7nkvNkM+/T5AypcKkVe1Iaak/wZS7mQixVo8cOSLLly+XmJgY6devn5QsWdImrCPCYEZZ5PDhQ7Jjx045efKEDB48RCpWrJhNsQiutuCvRtgw1xhTLPdy5crlWok39itWrJBy6qXo17//zbHP9cZ8fHk3ECEKw8GDB1Vp+Fp69+5tno7Y2Nh89Cq0t95rRMg827Bhg+zdu0fi4+OlZctWEhUV2HMXWiTv/tpCQoSHlAAnLk+U+EolpH39KKlTuWS2np9RAtt2OFUmLU+So6chwcxs3/v+UalccemtRNi7ZbTEVczu/oM8V+w8L/tOpkldtSAHtI7xvTXP/9/NRIg7be/evTJj+nTTJkc+/rhZomhujgjzHNpsF+zatUtdyWtNyI4ePUZq1KjxsxJhtsbcxh8QApbHzBkzLP77+BNP3Bz727j9ji65G4gwPT3d4t5/eesteXTECGnXrt1dFau814iQebZ06RLZtGmTKR1du3bLU0m7o8lVCG8KCRHu0rjd2zNPyIiuFaRFfGmJjQrPBsXu42kyfU2KLN9yTnCj5lWaah3928RYwo3vtdcybsihxHSZsSZZqpSLkKd6VvT9Os//54cIWbTHjh2T06dPm6bPw8qUKWMLt0qVKuZmwMVDbJHr0tTFihVbunRps0hq1qxp1l0g10/qxYtyRGM2GzdulNWrVkm0WgXdu3cXtOPaderI5cuX7Ttcui+99JLFNs+dPStXVcOj1KheXapWq5bNzevFOY8ePaKupyzMS5cuJfXq1TctMKdkGxY/fSU5J0PjImiMJ04c17YXtX5U0+dw75kzKfr5SSGZwCt8xw99piQlJcnFCxe8ryVJr6VdJSIipKYmaGD5XtS+nzx5Us5qfygVNRGoStWq9p13I21iEdOX5OQUa5/3Xe3ata1dWF5cxzXguGXzZjmtY/HAA71U+42TKlWqWttwB53TWM6pU6dMwfDqwWpkjHLSkHk+8welhOQSrvPFEJc6WBArok3MEyzDsmXL2jjyf+bGBcUDS5/raQdtpu3bNblmzZrVOqfKSo8ePeyeeK0nPDzMMLqSfsXG2Dc2zDiBXWZmhlSvXsPqYX7xjFP6ecJPbaCPpTUEUE/dtF67gyFCr2+MVVUdm+PHjwvJNswPPD/MKZKCInRcvcL3CYrxSf3xCnH5WnFxRvLMg0OHDmqf18ismbOkU+fOUq9uXaleo7qOU3XDkvlBYphXL/eAK3O/jl7LPMONfO3aVZsXKJPgjQUOrikpKdZWb27RDtZUFU0MqqDjTfGsd64Fo7TLada3IlLEngG+ixYuzBYj9NY566J06UjFvrrNXxTZ6Oiy0rBhQ4sTeuuINtM2SrFiRQ0v+ub1y77w+4dncB9Ygz8lWvtG/7wSS56D/k1fedZR9SglJScpHhl2CddXVtkEhp6y9cMPK2Tfvn0mMxo1aizMMcbU81owbqwNfrzC/cx5ciaY/5dZwzqHuY/C85kbtJVkItYSspHP6QefU3AXM39Pax2n9If57xVkKDgypqwh+o5TETnBOvPkJnOOsWKOR0VF6rMqhcTFGxIiJN73p4lH5Pcja0iTmqXNzel1kN8/7Lwg7889KYkpV4VYX14lOipMujeLlteHVst26XUAv5wp7846qUk14fKLgVWyfZ/XH3dKhAiuw4cPy3RNLlixYrkNOoOMAOjbr6+538LDw20xLFu6VGbOnKmDf8wmAgKqc5fO8uijI2xy+ApPr737dWLOmjVLFiyYb5MDYc1EiouLlzHPPWcTmRjEN+pCIvEC1x/xiLM6kTKUDIcMGSqDhwyxxAwmDJMFIbNU2zLtu+9sEdJeSOq551+QZhr7ZOIHihEwcVkEkyZ9YwKhsS6W+fPn6WQMV1J5wJ7DZF+9erXMnTtH1q1da5MUgYJLD1ckggABteT774V2UyexWIQeRMWzhw0frll4be3vRQsXyZYtm+26Dh06yMBBg6RLl65WB+1GiCDYJ0+ZLBs3bFShl2TY8synnnpaemq7sPoo33zztT2Xxc5zWXgNNWuzd+8+itMQu2azkiRYL12y5GbbO3XqLI88+qg0bdpUySf85sKzG/QfhCntn6FW27PPPmsaNWNEoY0IwR/UtXlUFZoXX3xRZs+ZYwK6RYuW0lVj0QiihQsXaD+3mCCGpHfu2KHr4boRJziyuH3HfvTo0VJScdu1a6fFGx/RsUfhodB3xuk7Hd+0tEvy+ONPmGDi/l2aXcx8WrZsqT2XaxFaz78wVlq0aGH4H1dl7XaTZXBffr94sbqbd8hDDz8sc2bP0jbtsnVA+1966RemuDG/mH+44MCY/i5etOgmxu3at5fHHhtpGKNoMTdnzJhuih6kwNqoW7eezY1FixYKc6FnzwduWokHNHtz3vz5smH9Ok0a+7Vem0WGCEb6yu9WLVtJa83uhDRXrvxR2zrb8gJoF+NEUlCfPn213p5GRKyVVap8Ll+2zARxckqyWee05eWXX7E5tELDFV6yDIIaIc3aAof6mgz1kMaAGzdukk0xYu6hECMzIJ8zKHr6fObWL3/1mvUNgglUaCd9AXPGERc/hWfUq1fPSI81yLxnPOkDZDPpm2+0LytvyifaRoile/ceRqYff/SRrFfsICD6F6Zt6dWrlwwcOEhaKS4ZGVnjtmDBAns2mDF32us4jBjxmI3bQv3u0KFDUkmViRFqxXvjvWPHdl1730hMOQ3rqBxo3ry54Q2xTp48Sed1MXnwwQeNDEk+WqjKxfbt26xfYMX6RCYgOw4cOCBzdf1o5cIagOw9WcUaYaxZ31zLWIJFfktIiHDjgVT5x88PyX88X0ca1ih1S6LLwk1n5c/fHlOgb5iVlFejixUrIl0al5H//VTcLZdCpP826ahEaZzwNT+ivOVivw/uhAgH6OAxUJ+OGydRKviaNGliQoXFzsIsrVoSLh0mIxbbJV2ATM7q1REKRS1FHcFUVDXBhx562MjIPxkCIcnE3759uwmO2PKxMmjQYLMMIQ0mLgT81ptvmlDtoYsYbY5JumHDetm7Z6/V+9jIkUY4CCmIBQsFi4jFi1a5b99e1b5nCtdBQoEWIn1FwI4f/5kcUgHYXPvSRydpmbJlVAPL0vJwrTCJEXzNmjW3RYX1h8BIT7+shDLCYhA//vCDkuVcc1G+MPYF1SrjJF2t261q/UzRxQEOHTt2kgd0MVauXEkX2GETXgiC55573tpHe3gebkO06A66fQTSA3+eOW/eXLNyIOnWrdsYmWzbtlUJc4McU+EA5lh6LCYWDNYi36PdtmvX3gQT8wIiOnLksDzx5FNSp04dw8x3+kDGbImYNu07fU5rad++gwlO2kpbZs2aadZZnFo8CJ4pStpY8v5EuEiJgexCnkO7GBtd7+oi3GXChz6SoIU2X07/f+zYUSMVMlBvhwgRFJBcomITr20ppgIvRecBW2+WKPGPHjNGY0MtrQ3BEOF3300V2g6pg3WVylXk3PlzhvOBAwelm3owIBcELHEoMEYJ6dCho2F89uwZFcLrZd/effLkU09mzQW1Yjbr2H7++efSX4UnChoWDPPiq6++NMJu27atYchYLFXyYR7s2bNbSf0FU5aw8MDoq6++snnBmOJRQWBD3KzFVjpetIVxgiggjapVqxmB8TkKzsyZM8yCxUXbsEFDne9ZliVCn7ogwhf0mQhkFF3WRoOGDWz+so4gckjBK4dVcd64cYMpPn379lOPRBUjZ8jRPD1qiQVaf6xp1ipK79lzZ6VB/QbSTEmFulEe1mpb5yhJ4DEaOmyY9Q9rkPgy1j7zB7LFSma8Uy+mGmH07tPHZMwyJfydO3fYHGc7CJ4SLCswZ9xQXFH8vXFjbWzQcdt/YL888cSTplixhphnr7zyiskbrMHVq1fJJx9/rOss2uQLmcjMBUht+vRpRpAoUawjFCvWopdQBMb0i7X+7KhR1v7pGiJCfqFksB65nu/xqpCRzRiz3pnLvrh7+Af7OzREqHv8/jD+kLz5YhYR+jdiwYYz8u9TsJD8vwn8N/OpU6My8qdn42+5gDr+5Zsjlljz+rDqt3yf2wd3QoR9+vY1U/2DD963/WC9evU2AmBQEDAUyJAYD66typUqm2BH8DJAJMCsXbtGtZhlMmbMc1aHf6YqdTBBsCpyihGiVb77t7+pEFELSAUO7jfKERXeM2bMlCu6GFjELK7FixcpSSTbAoCkWaQIgYM6KcePH2+aNK4otmH4F/oFEX726ThJ0UUwYMCDwqRmcfAdQgQhj6sEIY9WjnBAA0fTY29aI60XTXO9bvlA26ZvWLZYJSgMCLL33ntPt7+EGVYIQfBCGWCRY/H20YXbvHkLIzvww5Ia+OBAaayKCMoBAoNnzlatHMFfTS3vh3WhIQRog3+MkH4y/rSdZ0Hg9B8BAGH9+OMPsvLHlabhI+i9Rerhw/MOq3ADW67v0aOnachevWjDqvKb4kEiAlmjgYjwxx9/lOLaxmdHjTbBTXs9t1WgGCGa76ZNG2/bIgRfcMFTUF7nAmODoAK/9959Vwn4SSXx9jZfgiFC2sb8hsCx1HCFIoAZqy+++MIUM3CD2MGY302bNjOMwJhrmQt4TNhSwhyG6CFo3xghuDNf5syZrS7QcxYawFXMZ1hXa9ettTnUtElT6T9ggFmLCNtx4z4x7Kkbt/2kSZPs+R21rbhREcrMX8gRoY3lznrEjYdgx+uRmZGpHoanlOAa2ppByWFdM6/T9fkjVYH8QZW7E0akVaWXJviw/5L++ZetijdeE5RYYr6e8gaBUFDEIGH/wpwBk++/X2xzEHmDy5BCXSi4U7+davX1VWsPoqdfkCRE6Lm++Yw6qItn4TlBHi1Ta8o/Rsi11D1lyhS7tlmzpqrwN725Nhg3lFwsTAwBPBmHdNxH6RxmHvBs5gZji4gfNGiQKkxZMgMLFO9AjRo1VZYMMDkE0SNPPI8KFjbEd0TX11NPP219QzHdp4YGCkRvlSXIWLCBNCFCFDIUUlyjoSghIcJNahH+ry8Py7+OjpdGahEW89v78P2Wc/LWtOOSlp55W2QYUbyodGlSVv4wsma2PkKC1zTe9R/fHpeypYrJL4dkd51muzjAH3dChJj5LGIWOwRdv34DE6AQgWeSI2hwA23buk0iVbtiMXol7VKaWibHTNvChYQGgyD2L3kRIYvqi8/Hyxu//o3VwYRnoeJPR3vE1cYEZGEzoRMSTkmjho0snlj0p/E4f+687UeEkBBauKr8C4sCIvxS+8v/Rzz2mJEuggQBC8m8/9676m5sbAoBcUevYJmmpCSrNVjbrBcWHIIH7fpRdTsiHKnzuOLx2WefmWaMSxLNlJLlPlxoGisLjsUEaWKJQUQPP/yIaYIId6/gklmriwYcEGwsMBQKfyKEINDG33//PVu8WKdowl5BYTl65Kj1Cc0VweVfmD9Ywig1KAdYH+DC83BjVahYwRQH2jBx4oSARLhl8xZTInD/QuiUUBIh7UHpQbAhBIlVI8RPnTppls1TTz+jllQXI8pgiBBX8u5du3X+/dqEE8oVmCLYITKEtbcd6X1VcvAgxMfFqxflv7MSwR9Lqlq16uYGg0T8iZDPqBcBClZghOXD+KL0JKhlzBxnfg8bNtzagrKA+w33Hd8xHljozAfWoq/iiatupYYVli9fZtfHxcXZ/IIgqqmViPvOcz97RDgb96Tih/eC2DMWCspEE3Wj51T2KoGyZvHOtG3X1hQv5hRzI7dC+7BAE5MSjXQIETCmXiEOCGlQuquCABF6hfABGHMvBcsL5RJMRo8eY8RGv/2JENmD+5Vxi1a841gbvuN2VMdNCQgPEMoHigfrAEsXfPE0YUleUlmXmHhaUFJat2mt1mmshU8yVMHAjYl1T4HQaCdKPM9OT78im9R65vfTzzxjdRKbRXlDVjyplijxUNYf8oSxIhyEjPBksFWcj39CQoRbD1+Sf1V35a+HV5Omuu2hVER2DWnNnosybmGCHD51WTIy8zYLK+mJNOwTfHFA9hggbtGzmoH68fxTEqt7Dcf2z/59XjjcCRHipmLyzlMXHxrWOSUTJjaxC6wvhDuD+a2SDwIySSeh/+CEq1kfq9ovVhGaFiTmX/IiwkAb6v2JcODAgaZlTZwwwYjguuLlkaDv83DdoU3ix/cvHhEiWNAgiW2ilaH1skiZnO+8/RfrM/f6uyUgWbDBpYxLJTcixHLCYsXNSwlEhLg4WdAkUUCMvkKNe9AmWdyHDx+R559/3vqPYPQnQpQZTgih7YmJSXpn1l4q6vAKbiUsPRY7ffYvCGjcNePUTc4iRBiibS9Z8r2cSTljGnOnTp0MG7TWQBYhgt8jeU8jDiURQoK4jHfv3iVTp06V5KRkxfVKFjnq+L322ms2PliMwRAhbjZI7LXXXzf3G8LZnwg7at9RUsDYkmRUUfOfHyiBuPb79x9gCkkgIkTpYawgIK1AnlQrFsLFdRcWVsysi6lTv9W9wMNsDRKiWL9hvcVJIWiUI9ydWCy4n30tNvChHsaMscajAVnhEeAEICyNChWyEmk8IuRZeDcgifqaF4BMIJbs3zff+UJ7t23bqp6VTxX/a2ZFoyhUVouXgzyQEb4KnXfvGSUuFFkUCbwWzBXf4k+ErGFP8VmjxIvHYdeunXYLMgUZxbjkRoQouJDbX995WxWmBL331nHDFQlebHM5pJbbelVUwJa1jnJMu/DWMJ5YO3HxcRYewYCgD7gxUXKwBvEqEerBysSIIPcDhS0uLl7jp78yIqTtuNIhPcYRJQJyZF1jXOBxIvEqVCUkRLhHs0Lf1WSYgW1j7cSXStHZs0YPJqTL/E1nZM7qFNs/mFfj2+lewgHtYmxzve+1VzXGuOdEmhBzrBZbXEZ2y5qwvtfk9v87JUKEHUINrRQBM2f2HJtsTFTcek01tgERMrHrajAb7ce3sGD4DtJkAQRaQKEkQuJy4SqosGZ5pv/zyNok6wu3nH/JiwiZ6Fg7w4c/pNZxfXMh+daB0MHlw89SFZ53ExFmuVUmqGbfQa3qVrdo54yR13Zf4enbPxbyZHW7IXAbNmqohFlVvvzyC7US6lrCAZ4CxvLvRYQrVRCiGCSqhwA3ZvXq1Wzu7d+3Xz755BNLduGYvoIiQgiS+UHyBXFofwsIjMGOzxHggYgQAkLpwr2ZrKQ+4MEBRu6sQRQt3GGfq3cEC4M4/El1zUEcCGrq3Lp1S4EQIZ4NhDlzHy9GoPXjzRXInLZcUpmxX0kGCxWljvaPffElI13kin8JlghJnmFef/TRh1K2TFlLbEFBo2zevMlInrmcFxFSB+58xgyXY6BxQ25E6LpG0SRccVgJkRg8iioxYPIasPRwhZIdS8yXZC4SWhgr8EC5gczIhseihKhZU7im8cgQ3sHKZB6hdCPLIF/6efz4MRvXzp27mJcqkEHhj+ft/h0SIjyadEWmrkqSaD0irUODMtKo+n+7y2jIpSuZAhlOXJoou46myYVLGTm2r3bVkvJg2xjp3rSsnTDje+Elda3OVxI8fe6qNKhWSnqp1RhMQftAe/lA3WO9dXBwDzKxfQuuBDKaSC9vq9aKF/TlGm+BMvC4Bg5qkgDxB8iQGB6pxQ000E5Mw9ed4Vt/Tv8PBRHiGiXGwqk4N25ctwxOf404p+d7n+dGhGiOxEyIl7IAEAbECHIqXqZhTq7R27EIeR6aNdbHI488aq4yhKlXGIe1a9fZYhozZowt4Jxco2iitJ1EANyD/mPv1Znbb6w3XLH71P2G8CVzGOuZpCQECBZPqIkQwYHGTpwHokWwIWiZh8Tjrl65KqM0uw43IoKHudukaRMjBtoDdsx7XJjD1M1IFmBBECEWD4oXGLfU+DEJNIEsaw9frPRARMj3tHmexuawQpnDCacTzOWOkgmBICBLqlC+qERz5Uq6Ctp2pphRJzE/kl/GjMlyjdImr2S5RlEWllsGK3jies/NIpytmaeJ6nnAFQm5kBBCiINYKevcX9H0nuX9Ru4Qn8cluVljfL10ruBVImHHv3hEeEkzgVEm8IJ4soS1ifWLggAGJJlVrVrlJwt3ibUH9y1kS2GebtL4MljmRoTMV6ytDz/4wDJusYpzGze8MOBAdimJdFi/JGWRlU12NZ4zfjds2MhcyeRZQG7EEj/68EN1PVe1sAIYonhiYBD/3aNriuQYruVz3LXr16vLVBUg4rY8h/kyXLNLkTu5KSL+uOb1d0iIkA3z6/ddlDV6fFo3je111x9/lxyb4dfuvSCr9bzQvScuS7KeRuPFDIkJllESrVIuXDo04mSaKNuc79t4VRIl5eI1eW/OSYnTjfvt9CzThn6E63t9oP8jxBgM0ogx9clARDv2XJkIerSdCZqB1rRZUxOYJKWgsfCDBsIPmo3FITR7DPcWafcIJQQ/GZ8kmLB4WSBMXgYaDR3zngEOVGgbWhlumHKagkxqMq466oBgb8c1ykSMU3cBCTckAzB5SJ9GEEAeV3XCE0vkb37QzP1LbkTIgjqiWuDHmh1GHAXsmMzehCQuxaQlsE39obAIWVBonwiRAepOw/oGF4iAMUHg4QqsXbuOKSS0hbHgHrZavKj7LsGE/qPkkNnGGEDiuIy4HowRVvwgYHC/esInJ3xwg6MFEzdBMyb9G9ca9wVLhMwnb+yjVcgSl/XGHvKGCCEFhBkuObDFOkIQLVUXH4KZLErmNMTIOOD+9saGmC/bbcaPHy/PPEuMsGuBECEuTwQU8yNMyZpsTRQOD2PWwQW19Lz5wRii6BCbwtVFzJp14xXGnHFkPLFQsCyIiTGWZEuvXbPW1hWZpo8pZlgXzF+EJVY78585ijVBG/gOpQqXG+7xpzUxA5xxleZGhCTLsD6JX3E/9YeHFze3fjOVEyVKZJ0A5bWb33if6C+KKc+mr7hgUZqYJxAWiqB/YQ7i3mTrB1j069f/Jia45ZkLX0+cqHU0lgc1FIIyR3/I0CYcATnzPNYGW0d2a4ydMWHuIOeoG+yqqiejX/9+Gqcvb7iwzvAY4Eli+0lnTabLNm5KQp7cYH7jGZuo7WCtUBeZrdzDvJwzZ7ZZcyUiSug2i0o6tr1N9rFOiNGjtNBOL+EPPJFZECxZoxAh9YIf62KZJuFA7tYvVRDYokVb8lJA/LHN7e+QECEuy8TzV+Xt6SeklR643b91jMToXsBAZduRS7L5YKrsOX5ZUvQeCC5St0JUrxAhzeJKSdu6UZoIc+u9EOnBhMvy15knZWjHWOmqZFtGj2QLtjBQpIET9EZwsMcP0AH1/PkLpnmv1HgB2XXe1gC0pR26tQGNm7MEs8giwdx+lTQQzQSERCdN+kbO6gIgaxLfPQsW8khNvWTCGqFAHYEKdSLQJ+sWDDRcFgpClkA3WiyL1f/Qbf8Y4dChQ20S4YIh04v6Bg0eZP1EQKdfTjf/PO5bJlYg10JW307ZggUT3xgh7WaBszcMIRWnBIPwKlUqKwGAeBT+fuIuCCX2ZuXXNcriZaxmqkuFDc88r0aN6oprpmmdxHoQBrhZaA8FpYOYDmnu7E0iuaG8KigRujBRVsASS6l7j+43x/6sZiiyUZhN57Q9kJJgles/EBdaLxgwvhAOi5t2MCbBEqE39sSG2H7iO/Z8x7aaD9XK6qoJOghA4s2X1fJhrxVEEl873rabIPCW6skhEAcp+szf8PAwzao9bi4ltpq8/Mqr0lMJqyAsQrIoUfZYX+CPsOqpXhfWF4ox8XUOjyD7EIwRbGx9YM7bhn+1rvmOOQ/+KIDzdd8grmdir3gEcLeBCX18R2NaJ/VQB4TqK6++akoM1jL3LdZxZmsGikOLnywPxo0xY/sKQpgtBVxP8kxeROjtI6RdxLcgn4xrGbrndaBZqijEvsoTY0bCTM1aNa3/yDnkCFsq6ANzJpBFyHxi3eJe5jAK4m6MY5EiHFCRrO3faASHMjNE1ztkilKObEBJ4PrixcNVHl22rVIkr/AZRIgysU2TWoifklnbQ+N7WMTIQXBgXa/TfkWpMsgcYQ9r1ridUxfvJVsbjA39hNRwpa5auco8a7g0qQuMFyyYby7QAzpGL+i+ZeYt99EW4tbcz1rlh0JSFDFo+s44ekToYcFzwJr1hezCzcrcCWUJCRHSoGuaBPPVstNyUc8UbVSjtPRpEdhtScKLKkeSqTODyUHRMba9h4BOxmkRPvAr+zXRZvHWc/rmigwZrK7TxvqMQNf53XbLnwgqFhITklR9To3wNAu0Q4K6Y3VDNIIEIYyrBb/3X995x7QgiJRJU7NmLUuLxo3gEQoTnaQa9pqhlVMQBuzFI2MUYsvJIuRa2obLZ65qVGhJ8Zp9OXbsWNu8ivvmdomQ9nE9WhaCEW2WPqL9sS2BQ6Bpi9dvnu0VsMGCCJQswzW0kQlK3Ux4iM6rh7gbWXdoqnwWCtcoAoYxIKvzg/fftzFAa8YVUy66nLoER6mQ7GyCFcWDwmLEFYgAhUSraUYjmjUuFa5BSM6bO8eEmdd2Fh8JHGSM+go0qzDAP7jf2Eqxa+cu+ZUmoGB1YE3eCRFSPfdh9aHFs8+LsWffGkIczZi4H9nBJ1TwM98gdzJPwZ97n9AUfdxZWL1sRmdzNXOQ77CKWrVqbaRC/yCOgiJC2sX8QLAxj3HP6WSwNY4Q66/jQBs8RYOxZK6//fZf5LBq/02bNpNXf/lLw5O2Q1L0BaUFKxcriTnKfbjySE5DCcGK9saf+5gz36nQJZsbLw/jzOckQjFHmauMM3MlGCJkjFF6scCwiPj/0888rSGU7mZdelMFopw5Y7rNNe8z4mJ4epAZWPFee73vvd+0E88Vc2GG1oEiTOE+ZEmCJrSwxrHAUbiZH+QoMO4QFDKnjZIFWOE2L6YJRh4RMifWrFltVjiuRty9Q4YMNXJh3L7XQzBQsLA8vbWB+5/wD27L4hER1pbk5CRzL+MZ6aqkzJoHGwrKBm1hCwlvy8FFyncoiHg4Pvn4I1NGwY4ySpNhULAZUw4M8YiQ7+gbCiInL7HGOHoSJdZrG9eEooSMCHXs5OBpdddsOqsxwEwZ3D5WzwMtccspM3fS6OM/vYJprb7r8JEu+n433aIRyGoMpm4mARpKVgZh1p1oUrimyEZikQA2Lg3I74im+l68mGqLkM/RciETLDwmJQXCSVJr5JSmdl/TTDF4HhcRsSTS9Vn8OU1+q0D/wf2BRYM2iEbGZOY+JglHE3lHVHn1MHnRgHF7cmwUi4DvmEC4GtAu6QMFYkcTx12TEyGzCJmw1ElBC+P5/hOPmAmbtsHRK0xQND+eQUEo0w6wpB5w8oQUCx0NlXu8BUQ7vXv4DGy5l89p0xFd5OCAds47L8N1vNifxHW+GiLPwDVEjAErhL5iLdEGsOEZjD1WoFd4Hm0HG/++etf4/qbfXlvjdL4wH7x5QHtRivgNadG+nPrmW6c39tRNfVhX4IPgx3XFkV6X1aonc7JUqdLWn9TUi4qpGAkyTgh26uH5165leVxi9PlkKvI5/aNOMGJ+UGifl8Hq2x7v/wgsBBXrAK0frMGIOph/jAtJFCiPtJtCrIt5bCeq/FRRpM5N5iht8OYvfWOsiAVyGAVbWlgrzGMKgpu5iJJKOxlLnst9KKisOfrD2PoWruE+5j9z0CuMMT9ef7kObM/p5vXSpbPmHOvEK7QN3Bg/xoMx5v/cA8YZGddMDsTE6Bt3fKwUyIs5lpSU7FWl9asbUeOC9IN5nVuhX9wP6XlHKcbGxuj+zyuWnc693vYJsEA20FcwpI1YeYzFDW2rDpa1EcwZL9qGYsn8oN3enKDOrLWRaP3jb0pkpI6bZtKCsbc2uBcMzpw5awfFs2fVm/+s0ZSUZJUNF4W1wVh6uLGOiWGf0zbQFkpNxZU1nak/FXVueNfzHfhDhPQPTxtKTF7YcV+wJWREyIOvZlyXH3ZomrO+oBcW4LzQ2hrPi7wDFyb1qfEoCWevyood5+WQukV5PdPwTuXtnYVYjq44BBwCDoH7BQGIA1c426MszqjuYizwe7VA8ChgbEFh6wouURKICqKElAhpYJImwWC5zVmXIi01Xti6TpTUrlzCXrp7u9ylSpqkX7tudW3Yf9FiiuU0mWaYkmCN8nomYTFHggUxGVydDgGHwN8XASxUrCYsISxTL+zC51jwGzasV5fpHDvGDLco1uW9WsxToO7yzzXJi8RGknFw/xdECTkR0kjieNuPpMmXS/QUCN1TSCZpt8Z61mM4L0nNignm1BlIkE33vNqJrRIblQi5v5fGHP1fy5RTHe5zh4BDwCFQGBHAtY3Lldg22bBYQRRcpSSGccQbBElczXPVFsZ+5tVmiJ/wyapVKy3eT/wea9DX/ZxXHcF8XyBECJGxd/CY7i/cqlmiBzTRJT39ujSuVUpq63sEq8VE6Kuawm6eQINL9YK+VSLxnKaRa5xxt77WiRNkKuoJM63jI82ixC0aoUTqikPAIeAQuFcRwB1IXBT3J5mnV/RUIMoNjRMR1+QQB0iBrG/ipV7M7l7BAwIkJksi3iZNSGNrivdmHeKeBdXfAiFCGzj9hzfQs9keIjyWrK9guqGBW7X4sAnNuWn/52/9+Ka3U48FU7OxrLpCa2uyTT0lzsgSxW45vzTrLvevQ8Ah4BC4dxCACLD+sAjZC4x70CvlYvQc0Lj4m4fFFxQpeM/7e/ym//SZbGgsY1zDWMX89pJxCqJdBUaEvo0l3pdy4ZqwBeJ4yhXdTK+ZS+o+vaov6YULwzXmV0rJjvcQcnRafKWSUj02QsrowdquOAQcAg4Bh4BDoCAR+FmIsCA74Op2CDgEHAIOAYdAfhBwRJgf9Ny9DgGHgEPAIVDoEXBEWOiH0HXAIeAQcAg4BPKDgCPC/KDn7nUIOAQcAg6BQo+AI8JCP4SuAw4Bh4BDwCGQHwQcEeYHPXevQ8Ah4BBwCBR6BBwRFvohdB1wCDgEHAIOgfwg4IgwP+i5ex0CDgGHgEOg0CPgiLDQD6HrgEPAIeAQcAjkBwFHhPlBz93rEHAIOAQcAoUeAUeEhX4IXQccAg4Bh4BDID8I/CxEyBuLT+orNRKTEu1kdQ5VtTe46wGrnDXKq5k4ULVEhL63MLqslI8tL5X0bcgF9e6p/ADm7nUIOAQcAg6BewuBAiNCThG/cOGCnD17Vo4fOyb79++XhIRTkqJvHE69mKoHbl/RN9BnvX6Cd1GEhSkR6is3OGG9UsWKUrNmLalXr57ExMRImbJlJSIi4t5C3vXGIeAQcAg4BO4KBAqMCHnL8qqVK2X27Fn2Oo34+Hhpo6/TqFevvll6vFurWFF9v6Cag9evX7e3Mp9RkjyghLll6xbZqa/hSElJkWHDhkn3Hj2lVq1adwVgrhEOAYeAQ8AhcG8hUCBEeEwtwCVLlsjuXTulevUa0qhxY32PVpy9U6pUqZL6huUIc4X6vk8LMuTtzJcvX9b3UaXK6dOJsm/fXtm6datUrFBR2rdvL506d7630He9cQg4BBwCDoG/OwIhJ8KDBw/am4V37Ngu9erXlyaNm0gtJcGy6t4MpmBRJiUm2gsa9+zZLeHh4WpRtpMWLVo4N2kwQLprHQIOAYeAQyBXBEJGhMQEz507J0u+/152794t1apXkyFDhkq5cuXU+3nz9fO5NibQl1iKP6xYIRs2rNc33mfIo4+OkGrVqjkyDASW+8wh4BBwCDgEgkYgZESYmZkpy5cvN9KKjo6WV1591dyfQbcowA2Q4apVK+WrL7+Url27Sffu3aV6jRoBrnQfBYsA2GaoglFU47Vk7t6p0oJbm7pEFaJiYWH5qiu3PjDPeA7tDNPnuOIQcAg4BPKLQMiIEEH4//7l/+r2h2glqh7SqlWrOxaqgTp1QrdfrFq1ShYvWiSjRo+Sjh07BbrMfRYEArifExISZPr0aVK/fgOLw5KlG0yBlKhn1qyZsnbtWrmeeV2Vla7Su08fISEq1IU5cOTwYZtnvXv31nhz8VA/wtXnEHAI3GcIhIQIU1NTLdvz668nSrt27U0IBhsTzAv39PR0OXrkiLz33rvSpUtX6dyli1StWjWv27J9f/XqVUnUuOPSpUtMgDZo0ECaNGka0LI4dOigHD9+wr5r165dgVk42RoYoj9wTR8/ftzaTpJRyZIlAyolJCaR2PTJJx9Ly5atBGKpqFtXgilsj9m4caPs0sSo4uHFzW1NYlTdunUlokSJYKq6rWsXzJ8ve/bskdjYWHnk0UdzdJGTgbxt2zZJS7tkJE+bsHhdcQg4BBwC/giEhAhPnjwp8+bOtT2D3Xv0UDJs5/+ckPx94fx5+fKrL3XXYREV3C2DziJlI//evXvlrTf/y9yBkOnw4Q/Zdg5cg77lxx9/lC1bNpugfeqpp404/a/xvf5u+D/WGYcXMBaMSe06tZXc+kipUqXM9enfxvwSIXHhI6qcTJ48ScpElVEFpYs0bdbM/zEh/TsQEaKInTmTovtWL9o2m8jISElOTrbtO9s1aYsEq/btO0iFChVC2hZXmUPAIXBvIBASIoRcPvzgfenQsaMJnILa84dViPttzepVUrt2bbUIRgQ1ChAhWzL+8tZbZgnVrVtPhgwdIg880OsWq6kwEiEW7/bt22XRwoUm9Ec89piULl06oDUIcPklQmKLHJTw5ZdfSKNGjdRd3VHq1Kkb1JgEe3EgIty/f5+sWbNGrdJd8swzz2ob6hjxp6WlyYQJX2nY8oY0U4Lu1KlzjlgE2w53vUPAIXDvIBASIty6ZYv86U//LL/81WtmqYXaLerBjeDF0vnss0+lcqVK8uJLv/C+uq3fECGC+6OPPjSiIJ51/sJ5efnlV/Qkm5pGhl5FhZEI6d/MGTP01J6r0qBhA3NT52bF3stESCIN82WLzs0VmsRVomQJefrpZ3K0jr1xd78dAg6B+w+BkBDh+vXr5Xe//Z/y7//xn6Z5s+evIAqaPVr+v/3bv9q2jN/85n8E9RiPCMeN+0Tatmlrbs8deoINFuwDvXoZGXpxpJyIkC0iu9Xy+OGHFZKaesmeX1KFbPPmLaRNmzZSUQnaK8TOzujpOOARGRWp9/wgZ8+cNaFctUpV6duvnxGyb/Yjca3NmzbJgQMHrBosupatWhqpkY2bUyGbEnfg55+Pt9N7Wrdubf3xrj99+rRai9usDTeu39Dj7EpI5cqV7Nqp302VtrpH0zdGiIuVvaDggOuRe6pWqyotW7SUtur65vt169ZZvHWbHnqA8oPrsUnTptK3bz+tu7Ls37dPNmlf8Bh4Bcuxm2b9co4smZ8k6xw9esTcmm315CGvj952HNs2cy1DOnToYN9h7RIjJKln2PDhsnnzZlm58kfZrridU9c51mA9tfSbNW+m93S004mmT5tm3z2mFnINzTYuqPnp9dH9dgg4BAoXAiEhwrVr18iv33hDPvzwI2ncpEmBup+Ig/3jH/9oGYm//d3vgkLblwgfeOABJcA4S/JZo+3vp6QEecTGlrc6AxEhiTaQ4KbNm2zPJLHKIkV1j6QemQqxNG/eXImgiZ2mgyWGAEZQ0+ZWrVuZNXpJSQUXb7pmWg4aNEjjVy2NQMi6PXTokJHg0aNHJe1ymrUDgospFyMNGza0BCHifR5Z+3YeBeGwZlMSr+vWrbsSW9ubWZtJetg5J/RAsGeVyMPDwi3mSZs5w3Xjxg3SU/Ho16+/tYW6tm3bqsfc7ZSTp05a++lDWLEwqVCxgnTu3MWSVcBi6bKlZnVBYBUhQk0+6qVJN2SMQpC4apOSk6ypkGdkZJQestDYEqqioqKEAxhoF9iS/OIdtM7zTp06JVOnfqt4XZHHH3/cvvt+8eJsRIjFx9YangURkqQDERKrhDyxjqd9950c1aQgxpzYMv12xSHgEHAIeAiEhgg1PvPGG6/LRx9/ooKwiVd3gf3+/e//wQTt7373D0E9w58IsRguq9D/6OOPVchWthhX69ZtLNvSnwghtuXLl2kCxio7Cm7Mc88p4VW3WBSWGASE1cW2kQcfHGhuVohw3rx5dmTcqNGjzerCwsNCmjFjut0L+RC/wtKcMmWyKREt1Lok3kqB3ObOmaMkuk/GvviSWa9kgfoXzmXF4mN7ARYZCSJYmhAK7cZqh7iff+EFO+oOt+HOnTvl8/Hj5cSJ4zJw0GAZOHCgWVqQE+0uUSJChg4dZpmkEDJ1LFPiK1a0mB5s8Kjt5cRy9Y8R8kyIjZ9S2ta6eng6BYKn3k2bNsqv1I1OJifZrXdChL5Zo4FihJ6VjYLBM4kNN6jfQAm/p8ZNI/3hc387BBwC9zECoSFCTWD5za/fkPc/+NCI8E43Zd/OOCBkzSIsW0Z++9v8WYRszodUcEd+p+7BmjVqmlVSSd2bK/XAcC9r9Mknn7KM2FmzZpmr7aGHHjIh7lkW7KMje/Lbb6cYkUAeuAZnTJ8u25ScOF2HJA5IEGuO1H4smdlaX9++fe0wcqyfyZMmmYsWF6u3Bw/rcdmyZXayDuRGwkegvX7ss1y3bq2c0C0fuDgbqgsSrHBrfjpunEGL1QfpQuq4HvmOmOlXmomLAtBH9/6RcUm7Icr6DeobeXtxRuKzkCHtfmHsWGmslh3bL/yJkIfxbMjTd+M7FiH7QFfoSUGPjRxpCTa4RguSCOkn+GExYoE+9PDDQR/3dzvz0l3jEHAIFF4EQkKExML++Iffy//5p3+yWJlHEKGGBeF6Xt1fb735prnmXnv99aAe4W8RQoSQFIQAEWLB1NfzUbHoIBXcibgOIUIEPifn3LhxXR57bKQJVY8gaBdCfpISGYK/Z8+eltVK4grWVRXd70h8iu/4wfojNjll8mSLE0JwxNP++re/GhGVUzej5/6k7mS19sKUQIfqmzhoM9aQf8GqI3PydMJpc02yRxJrKCkpSb75+mu750G1+Hy3EPgny+A6pL+c4LNz1057Z2S0vh/SK7hz0y6lGUlychDWPxZdICLkHl7DhYv1ez12D3ysPYoxL9969dVf2v1Y0QVJhLRjw4YNFkOEmHG/FlQyF89yxSHgECh8CISECHfs2C5//s//lJEjH5fWas34CttQQkK8BzcYMZ9q1arrCTOjg6o+EBGWL58VE8RCW63bMpKTU+Thhx8yAb9PyckjQuJ3a9asVndjuJEaJ5pAahSsDtqGexRhz6k3EBFEiDsQFyqWiFf8iRArDXfpF198ru9irCTlK5Q3q827nt8QNpvja9euY5mPvt/x/0BESJuwNL9TvIi9EZPE4vOKPxFC4CSSjB//mREoL0qOKhPlXW6/2TQfo0TM6TFYzofVdetPhFiTEDt9wooEd/XKSoYmvYAHbxd56Rcvm0X5cxAhZEys8nLaZUeE2UbT/eEQcAiAQEiI8JBaPbjXOP8T1x0kUBAFgbp48SI5qHGpBg0aChZOMCU3IoQUcNlxwHeNmjXMasCawrrFIkSAk/UJ92ER+m5Sx2ojwQSLEFLs1q2bJW3cLhFiEUIoCxbMV2v0QTvlJVirOjcixOVKNuvgwYOzuVW9BBtOlsE1iksVgjdCrlTZ4p25jaURnt8+QoganCdOmGBJLfG14+2gdBQO3LyLNdlluboqHx0xwlyjECHJOqdOnhL2PXKgOgoGmGJt4m6G0BkDyNxLlrndGCHzg8xVskpRUpxFGMyKcdc6BO4PBEJChBAGBLJVX6jLNgTOGi2IwnFef/vrOxp/q2LWUXMlkGBKbkRIPVhPq1evli90C0IPfRkwVgwWFEKYZJSZM2eYu4+/iQF6afgIWGJdE3TzNrE9YoQc/0as7XYsQjI8EfqffjpO+vfvb8pEIPdnbn3NjQg/eP89bVdZs0px/XqWLK5LEmbGKRGSCToQi1HjmFOmTLF+kgHcS8czpxKICGvWrGUu5nfeftsyXdkqweEHPDNLkbmVCMk6ZkvEqFGjJC4u3pJ8cGPyGVY2WzdI8rlTIsSlzV5XlBdHhDmNpvvcIXD/IhASIrymGjuZk3/+rz9LU91H1r//ABNaoYSVGBPp+h9++IE8/MgjtkXA1813O8/KiwixPA6rC/RrjamRRFJSXyKMO5Ij1rD0lurLhok3Ya2N/CmdnzghyS+QJApBs6bNLEaHS5Ws0dshws76wmFinxwUQPIOz+zSpetNoqUO4pdsoeB7L37o22fwJ6a5fv06S8BhXyNtI5GHWOTefXt1TKpqX56ypB2PaL6eONG+I2N0kGaOsg1igybETNODuKMio+TpZ56xvXc8E/zoa7L2k20KJZVYwMnXNQqRobB8/PFH5iKnL82aNbemrlElY/bsWXYPhy8QY6R9xGOJS4557nnbi0kMD/cxnxF/jourpUQ4Nkci9BKF5s2dJ794+WWzNMGfgpKyYMEC2aukWlv3GGL1BjtvrCL3j0PAIXDPIhASIgQdrANcbBfOXzAyHKAuPs/yyC96kBCCbP6C+bYhHSIkrhZsyYsIqe+iWkmbdO/fhK++kqvXrtr5md5ZoyTMbFQiJHMytnyskVLRIkUl83qmNQW3IBvGvSPmbpcIea0UfYRkN+seRVyWxAQ9woP8qmlMFMLEdekl6fj2HyLFgpo27TvN/uxrZOoJfLBbq5vf9+7dI+Vjy0vxiOLadj1/tIgm7uh9m9Q1iSWPAoMLE1JdtGiRYR4WHmaf8Uy2TUSpxUu2aHx8vMVP/YkQDDw38+7duyT9crqUiylnTS1ZoqSR4LFjR20rCPVAWNQxadI31i8s6ujoclJSlQ2zWDVph4PAn312VI5EmGXZ7lCLfMLNQ7/r129gcwTlhrdrHD1yVLqqy5q9ouDpikPAIeAQ8BAIGRES09mhCQlL1GpC+AzXLQac4uFp5t4Dg/0NQSRqHGmVJrKsWL4iK4ame/W8JJdg6iNGhfUwd+4ci8NBpv4ZhFhKCPJpas2dPXvGzs5kWwFuUIj9pN5PLJFN+GkkgWiBHAYMGGCbtWOVaLzCXkTaTvIQQtgrZKke1pggsbI26hYlRghOKBO48XAVHtHvvcLmcFy1uZE/babOcbpVokOH9uZeJd7mFRJ/OA1nrWaWgilEW1/jrJwPumzZUntDAyThneyCq5cTWzjb0yu4V9mW8YgqIh7JgiekWatWTVMCqlatZvE9XMlYYpAs/aVwADg4UjeHs6MwsKUEItumCS3s90tSyxcXZvXqNeyagwcPaHvFNsPjLt6kFiIKCYRJHdTHmFHnfG3rLnX1ltGtNW31pBzcutQ9depUO+EHt2hcXJwpE16f3G+HgEPAIRAyIvSgxH1IUsnVq1c0M/AXFs/DmrgT6xByhRzY2sA+sFp6EszjTzxhWxe857nfWQhABrgtyfiE5Eh+YXP//VyYPxzEDZkzBzkEAQIPZFHfzzi5vjsE7ncEQk6EaODskWPjdEbGNWnXvoO5o0h0CKZgRbAHb9HCBWpR8E65+qbhx6rrznMZBlPfvX4tVh4WL+5VTpchWYeN/7gB70QJKex4QYJYyST+8E5C4qskcbm5U9hH1rXfIRB6BEJOhDSRZAlcVMS7eEccripiSrhKcRPiYiPhxBPQCHEsP2JjxKdOnjxhJ7UQ1wnXGBUuPNyCZB+6kjMCCH+sQo5k4zcHYBNXvB/JkP6zbYJEHEiQF0b7uopzRtF94xBwCNxvCBQIEQIi2Xq8KZ0sRuJq4boRmwObo8tGSymNCxUvnhVz41piQLj2rqhFw2uRUpL1JasXL5j23kEtSgR6sG9Op977tXDQN9Y0SgTvWvTd83i/YEIGLyftpKZetMPQSZ7xzh+9XzBw/XQIOARuD4ECI0Lfx5NQsV6zFnfs2G4JHQgpXJ9YMBQsQ5JFSFzhvYBsluctAa00ecMVh4BDwCHgEHAIFCQCPwsRYh0Sr2HPGBmlmeoGhQQ5c9IrkCHxG7IAIUVcpy7N3UPH/XYIOAQcAg6BgkLgZyHCgmq8q9ch4BBwCDgEHAL5RcARYX4RdPc7BBwCDgGHQKFGwBFhoR4+13iHgEPAIeAQyC8Cjgjzi6C73yHgEHAIOAQKNQKOCAv18LnGOwQcAg4Bh0B+EXBEmF8E3f0OAYeAQ8AhUKgRcERYqIfPNd4h4BBwCDgE8ouAI8L8Iujudwg4BBwCDoFCjYAjwkI9fK7xDgGHgEPAIZBfBBwR5hdBd79DwCHgEHAIFGoEHBEW6uFzjXcIOAQcAg6B/CLgiDC/CLr7HQIOAYeAQ6BQI+CIsFAPn2u8Q8Ah4BBwCOQXAUeE+UXQ3e8QcAg4BBwChRoBR4SFevhc4x0CDgGHgEMgvwg4Iswvgu5+h4BDwCHgECjUCDgiLNTD5xrvEHAIOAQcAvlFwBFhfhF09zsEHAIOAYdAoUbAEWGhHj7XeIeAQ8Ah4BDILwKOCPOLoLvfIeAQcAg4BAo1Ao4IC/XwucY7BBwCDgGHQH4RcESYXwTd/Q4Bh4BDwCFQqBH4/y1vw5W9yQL2AAAAAElFTkSuQmCC;" vertex="1" parent="1">
          <mxGeometry x="50" y="210" width="238.23" height="90" as="geometry" />
        </mxCell>
        <mxCell id="_bzIca81G6JWRWRTaQMl-31" value="VNET GATEWAY" style="aspect=fixed;html=1;points=[];align=center;image;fontSize=12;image=img/lib/azure2/networking/Virtual_Network_Gateways.svg;" vertex="1" parent="1">
          <mxGeometry x="510" y="173" width="52" height="69" as="geometry" />
        </mxCell>
      </root>
    </mxGraphModel>
  </diagram>
</mxfile>
